<?xml version="1.0" encoding="utf-8"?>
<!-- Generator: Adobe Illustrator 15.0.0, SVG Export Plug-In . SVG Version: 6.00 Build 0)  -->
<!DOCTYPE svg PUBLIC "-//W3C//DTD SVG 1.1//EN" "http://www.w3.org/Graphics/SVG/1.1/DTD/svg11.dtd">
<svg version="1.1" id="图层_1" xmlns="http://www.w3.org/2000/svg" xmlns:xlink="http://www.w3.org/1999/xlink" x="0px" y="0px"
	 width="595.28px" height="435px" viewBox="0 0 595.28 435" enable-background="new 0 0 595.28 435" xml:space="preserve">
<ellipse fill="#FFFFFF" stroke="#000000" stroke-miterlimit="10" cx="285.5" cy="70.539" rx="47.5" ry="26"/>
<g>
	<ellipse fill="#FFFFFF" stroke="#000000" stroke-miterlimit="10" cx="89.173" cy="251.029" rx="34.827" ry="26"/>
	<line fill="none" stroke="#000000" stroke-miterlimit="10" x1="89.173" y1="225.029" x2="89.173" y2="185"/>
	<text transform="matrix(1 0 0 1 78 255)" font-family="'AdobeSongStd-Light-GBpc-EUC-H'" font-size="16">RR</text>
	<g>
		<g>
			<line fill="none" stroke="#000000" stroke-miterlimit="10" x1="36" y1="212" x2="55.03" y2="231.835"/>
			<g>
				<polygon points="59.918,236.93 50.097,232.565 54.665,231.455 55.963,226.937 				"/>
			</g>
		</g>
	</g>
	<g>
		<g>
			<line fill="none" stroke="#000000" stroke-miterlimit="10" x1="115.317" y1="269.696" x2="134.347" y2="289.531"/>
			<g>
				<polygon points="139.235,294.626 129.414,290.261 133.982,289.15 135.28,284.633 				"/>
			</g>
		</g>
	</g>
	<text transform="matrix(1 0 0 1 18 205.0146)" font-family="'AdobeSongStd-Light-GBpc-EUC-H'" font-size="16">cptr #1</text>
	<text transform="matrix(1 0 0 1 70 379.0146)" font-family="'AdobeSongStd-Light-GBpc-EUC-H'" font-size="16">req #1</text>
	<text transform="matrix(1 0 0 1 120.2354 307.0146)" font-family="'AdobeSongStd-Light-GBpc-EUC-H'" font-size="16">gnt #1</text>
	<g>
		<g>
			<line fill="none" stroke="#000000" stroke-miterlimit="10" x1="89.173" y1="364" x2="89.173" y2="284.09"/>
			<g>
				<polygon points="89.173,277.029 93.239,286.979 89.173,284.618 85.109,286.979 				"/>
			</g>
		</g>
	</g>
	<line fill="none" stroke="#000000" stroke-miterlimit="10" x1="124" y1="251.029" x2="176" y2="251.029"/>
</g>
<g>
	<ellipse fill="#FFFFFF" stroke="#000000" stroke-miterlimit="10" cx="245.173" cy="251.029" rx="34.827" ry="26"/>
	<line fill="none" stroke="#000000" stroke-miterlimit="10" x1="245.173" y1="225.029" x2="245.173" y2="185"/>
	<text transform="matrix(1 0 0 1 234 255)" font-family="'AdobeSongStd-Light-GBpc-EUC-H'" font-size="16">RR</text>
	<g>
		<g>
			<line fill="none" stroke="#000000" stroke-miterlimit="10" x1="192" y1="212" x2="211.03" y2="231.835"/>
			<g>
				<polygon points="215.918,236.93 206.097,232.565 210.665,231.455 211.963,226.937 				"/>
			</g>
		</g>
	</g>
	<g>
		<g>
			<line fill="none" stroke="#000000" stroke-miterlimit="10" x1="271.317" y1="269.696" x2="290.347" y2="289.531"/>
			<g>
				<polygon points="295.235,294.626 285.414,290.261 289.982,289.15 291.28,284.633 				"/>
			</g>
		</g>
	</g>
	<text transform="matrix(1 0 0 1 174 205.0146)" font-family="'AdobeSongStd-Light-GBpc-EUC-H'" font-size="16">cptr #2</text>
	<text transform="matrix(1 0 0 1 226 379.0146)" font-family="'AdobeSongStd-Light-GBpc-EUC-H'" font-size="16">req #2</text>
	<text transform="matrix(1 0 0 1 276.2354 307.0146)" font-family="'AdobeSongStd-Light-GBpc-EUC-H'" font-size="16">gnt #2</text>
	<g>
		<g>
			<line fill="none" stroke="#000000" stroke-miterlimit="10" x1="245.173" y1="364" x2="245.173" y2="284.09"/>
			<g>
				<polygon points="245.173,277.029 249.239,286.979 245.173,284.618 241.109,286.979 				"/>
			</g>
		</g>
	</g>
	<g>
		<g>
			<line fill="none" stroke="#000000" stroke-miterlimit="10" x1="174" y1="251.029" x2="203.286" y2="251.029"/>
			<g>
				<polygon points="210.347,251.029 200.397,255.095 202.758,251.029 200.397,246.965 				"/>
			</g>
		</g>
	</g>
	<g>
		<g>
			<line fill="none" stroke="#000000" stroke-miterlimit="10" x1="280" y1="251.029" x2="324.939" y2="251.029"/>
			<g>
				<polygon points="332,251.029 322.051,255.095 324.412,251.029 322.051,246.965 				"/>
			</g>
		</g>
	</g>
</g>
<g>
	<ellipse fill="#FFFFFF" stroke="#000000" stroke-miterlimit="10" cx="492.173" cy="251.029" rx="34.827" ry="26"/>
	<line fill="none" stroke="#000000" stroke-miterlimit="10" x1="492.174" y1="225.029" x2="492.174" y2="185"/>
	<text transform="matrix(1 0 0 1 481 255)" font-family="'AdobeSongStd-Light-GBpc-EUC-H'" font-size="16">RR</text>
	<g>
		<g>
			<line fill="none" stroke="#000000" stroke-miterlimit="10" x1="439" y1="212" x2="458.03" y2="231.835"/>
			<g>
				<polygon points="462.918,236.93 453.097,232.565 457.664,231.455 458.963,226.937 				"/>
			</g>
		</g>
	</g>
	<g>
		<g>
			<line fill="none" stroke="#000000" stroke-miterlimit="10" x1="518.316" y1="269.696" x2="537.348" y2="289.531"/>
			<g>
				<polygon points="542.235,294.626 532.414,290.261 536.981,289.15 538.28,284.633 				"/>
			</g>
		</g>
	</g>
	<text transform="matrix(1 0 0 1 421 205.0146)" font-family="'AdobeSongStd-Light-GBpc-EUC-H'" font-size="16">cptr #N</text>
	<text transform="matrix(1 0 0 1 473 379.0146)" font-family="'AdobeSongStd-Light-GBpc-EUC-H'" font-size="16">req #N</text>
	<text transform="matrix(1 0 0 1 523.2354 307.0146)" font-family="'AdobeSongStd-Light-GBpc-EUC-H'" font-size="16">gnt #N</text>
	<g>
		<g>
			<line fill="none" stroke="#000000" stroke-miterlimit="10" x1="492.174" y1="364" x2="492.174" y2="284.09"/>
			<g>
				<polygon points="492.174,277.029 496.239,286.979 492.174,284.618 488.109,286.979 				"/>
			</g>
		</g>
	</g>
	<g>
		<g>
			<line fill="none" stroke="#000000" stroke-miterlimit="10" x1="421" y1="251.029" x2="450.286" y2="251.029"/>
			<g>
				<polygon points="457.347,251.029 447.397,255.095 449.758,251.029 447.397,246.965 				"/>
			</g>
		</g>
	</g>
</g>
<text transform="matrix(1 0 0 1 275.2354 75)" font-family="'AdobeSongStd-Light-GBpc-EUC-H'" font-size="16">RR</text>
<g>
	<g>
		<line fill="none" stroke="#000000" stroke-miterlimit="10" x1="89.173" y1="185" x2="279.063" y2="99.439"/>
		<g>
			<polygon points="285.5,96.539 278.099,104.333 278.582,99.656 274.759,96.92 			"/>
		</g>
	</g>
</g>
<g>
	<g>
		<line fill="none" stroke="#000000" stroke-miterlimit="10" x1="245.173" y1="185" x2="282.571" y2="102.963"/>
		<g>
			<polygon points="285.5,96.539 285.072,107.278 282.353,103.443 277.675,103.906 			"/>
		</g>
	</g>
</g>
<g>
	<g>
		<line fill="none" stroke="#000000" stroke-miterlimit="10" x1="492.174" y1="185" x2="291.991" y2="99.317"/>
		<g>
			<polygon points="285.5,96.539 296.246,96.716 292.476,99.524 293.047,104.19 			"/>
		</g>
	</g>
</g>
<text transform="matrix(1 0 0 1 359 251.0293)" font-family="'AdobeSongStd-Light-GBpc-EUC-H'" font-size="24">...</text>
<g>
	<g>
		<line fill="none" stroke="#000000" stroke-miterlimit="10" x1="192" y1="70.539" x2="230.939" y2="70.539"/>
		<g>
			<polygon points="238,70.539 228.051,74.604 230.412,70.539 228.051,66.474 			"/>
		</g>
	</g>
</g>
<text transform="matrix(1 0 0 1 166 75)" font-family="'AdobeSongStd-Light-GBpc-EUC-H'" font-size="14">rptr</text>
<text transform="matrix(1 0 0 1 150 243)" font-family="'AdobeSongStd-Light-GBpc-EUC-H'" font-size="14">msk</text>
<text transform="matrix(1 0 0 1 295.2354 243)" font-family="'AdobeSongStd-Light-GBpc-EUC-H'" font-size="14">msk</text>
<text transform="matrix(1 0 0 1 421 243)" font-family="'AdobeSongStd-Light-GBpc-EUC-H'" font-size="14">msk</text>
</svg>
