<?xml version="1.0" encoding="utf-8"?>
<!-- Generator: Adobe Illustrator 15.0.0, SVG Export Plug-In . SVG Version: 6.00 Build 0)  -->
<!DOCTYPE svg PUBLIC "-//W3C//DTD SVG 1.1//EN" "http://www.w3.org/Graphics/SVG/1.1/DTD/svg11.dtd">
<svg version="1.1" id="图层_1" xmlns="http://www.w3.org/2000/svg" xmlns:xlink="http://www.w3.org/1999/xlink" x="0px" y="0px"
	 width="965.5px" height="719px" viewBox="0 0 965.5 719" enable-background="new 0 0 965.5 719" xml:space="preserve">
<text transform="matrix(1 0 0 1 142.0813 404.4883)" font-family="'ArialMT'" font-size="14">ColSeler</text>
<rect x="129.495" y="263.489" fill="none" stroke="#000000" stroke-miterlimit="10" width="73.051" height="282"/>
<g>
	<g>
		<line fill="none" stroke="#000000" stroke-miterlimit="10" x1="187.473" y1="256.879" x2="187.473" y2="229.939"/>
		<g>
			<polygon points="187.473,263.939 191.536,253.991 187.473,256.352 183.408,253.991 			"/>
		</g>
	</g>
</g>
<text transform="matrix(1 0 0 1 169.2981 224.4277)" font-family="'ArialMT'" font-size="14">cptr[0]</text>
<g>
	<g>
		<line fill="none" stroke="#000000" stroke-miterlimit="10" x1="294.579" y1="256.104" x2="294.579" y2="229.166"/>
		<g>
			<polygon points="294.579,263.166 298.643,253.217 294.579,255.578 290.514,253.217 			"/>
		</g>
	</g>
</g>
<g>
	<g>
		<line fill="none" stroke="#000000" stroke-miterlimit="10" x1="405.63" y1="255.33" x2="405.63" y2="228.391"/>
		<g>
			<polygon points="405.63,262.391 409.694,252.442 405.63,254.804 401.565,252.442 			"/>
		</g>
	</g>
</g>
<text transform="matrix(1 0 0 1 387.4539 222.8789)" font-family="'ArialMT'" font-size="14">cptr[2]</text>
<g>
	<g>
		<line fill="none" stroke="#000000" stroke-miterlimit="10" x1="519.625" y1="254.556" x2="519.625" y2="227.617"/>
		<g>
			<polygon points="519.625,261.617 523.691,251.668 519.625,254.029 515.562,251.668 			"/>
		</g>
	</g>
</g>
<g>
	<g>
		<line fill="none" stroke="#000000" stroke-miterlimit="10" x1="627.732" y1="256.104" x2="627.732" y2="229.166"/>
		<g>
			<polygon points="627.732,263.166 631.796,253.217 627.732,255.578 623.666,253.217 			"/>
		</g>
	</g>
</g>
<text transform="matrix(1 0 0 1 609.5559 223.6533)" font-family="'ArialMT'" font-size="14">cptr[0]</text>
<g>
	<g>
		<line fill="none" stroke="#000000" stroke-miterlimit="10" x1="739.728" y1="255.782" x2="739.728" y2="228.843"/>
		<g>
			<polygon points="739.728,262.843 743.791,252.893 739.728,255.255 735.661,252.893 			"/>
		</g>
	</g>
</g>
<text transform="matrix(1 0 0 1 721.552 223.3301)" font-family="'ArialMT'" font-size="14">cptr[1]</text>
<text transform="matrix(1 0 0 1 277.0715 222.8789)" font-family="'ArialMT'" font-size="14">cptr[1]</text>
<text transform="matrix(1 0 0 1 498.385 223.4277)" font-family="'ArialMT'" font-size="14">cptr[3]</text>
<g>
	<g>
		<line fill="none" stroke="#000000" stroke-miterlimit="10" x1="851.078" y1="255.782" x2="851.078" y2="228.843"/>
		<g>
			<polygon points="851.078,262.843 855.145,252.893 851.078,255.255 847.016,252.893 			"/>
		</g>
	</g>
</g>
<text transform="matrix(1 0 0 1 832.9055 223.3301)" font-family="'ArialMT'" font-size="14">cptr[2]</text>
<text transform="matrix(1 0 0 1 134.5652 650.6914)" font-family="'ArialMT'" font-size="14">g[0][0..3]</text>
<text transform="matrix(1 0 0 1 157.0208 612.6914)" font-family="'ArialMT'" font-size="14">OR</text>
<g>
	<g>
		<line fill="none" stroke="#000000" stroke-miterlimit="10" x1="152.124" y1="250.074" x2="152.124" y2="172.621"/>
		<g>
			<polygon points="148.06,244.4 152.124,249.039 156.189,244.4 152.124,263.939 			"/>
		</g>
	</g>
</g>
<path fill="none" stroke="#000000" stroke-miterlimit="10" d="M22.544,88.466v15.237c0,0-0.119,15.237,12.794,15.237
	c12.912,0,12.912-15.237,12.912-15.237V88.466H22.544z"/>
<text transform="matrix(1 0 0 1 145.0813 421.5137)" font-family="'ArialMT'" font-size="12">{A0, D0}</text>
<line fill="none" stroke="#000000" stroke-miterlimit="10" x1="152.124" y1="172.621" x2="188.473" y2="144.489"/>
<text transform="matrix(1 0 0 1 253.1321 404.4883)" font-family="'ArialMT'" font-size="14">ColSeler</text>
<rect x="240.546" y="263.489" fill="none" stroke="#000000" stroke-miterlimit="10" width="73.051" height="282"/>
<g>
	<g>
		<line fill="none" stroke="#000000" stroke-miterlimit="10" x1="233.485" y1="285.989" x2="202.546" y2="285.989"/>
		<g>
			<polygon points="240.546,285.989 230.597,281.924 232.958,285.989 230.597,290.053 			"/>
		</g>
	</g>
</g>
<g>
	<g>
		<line fill="none" stroke="#000000" stroke-miterlimit="10" x1="233.485" y1="364.989" x2="202.546" y2="364.989"/>
		<g>
			<polygon points="240.546,364.989 230.597,360.924 232.958,364.989 230.597,369.053 			"/>
		</g>
	</g>
</g>
<g>
	<g>
		<line fill="none" stroke="#000000" stroke-miterlimit="10" x1="233.485" y1="443.989" x2="202.546" y2="443.989"/>
		<g>
			<polygon points="240.546,443.989 230.597,439.924 232.958,443.989 230.597,448.053 			"/>
		</g>
	</g>
</g>
<g>
	<g>
		<line fill="none" stroke="#000000" stroke-miterlimit="10" x1="233.485" y1="522.988" x2="202.546" y2="522.988"/>
		<g>
			<polygon points="240.546,522.988 230.597,518.925 232.958,522.988 230.597,527.053 			"/>
		</g>
	</g>
</g>
<text transform="matrix(1 0 0 1 245.6155 650.6924)" font-family="'ArialMT'" font-size="14">g[1][0..3]</text>
<g>
	<g>
		<line fill="none" stroke="#000000" stroke-miterlimit="10" x1="263.175" y1="250.074" x2="263.175" y2="172.621"/>
		<g>
			<polygon points="259.11,244.4 263.175,249.039 267.239,244.4 263.175,263.939 			"/>
		</g>
	</g>
</g>
<text transform="matrix(1 0 0 1 256.1321 421.5137)" font-family="'ArialMT'" font-size="12">{A1, D1}</text>
<line fill="none" stroke="#000000" stroke-miterlimit="10" x1="263.175" y1="172.621" x2="299.524" y2="144.489"/>
<text transform="matrix(1 0 0 1 364.1824 404.4883)" font-family="'ArialMT'" font-size="14">ColSeler</text>
<rect x="351.597" y="263.489" fill="none" stroke="#000000" stroke-miterlimit="10" width="73.051" height="282"/>
<g>
	<g>
		<line fill="none" stroke="#000000" stroke-miterlimit="10" x1="344.532" y1="285.989" x2="313.597" y2="285.989"/>
		<g>
			<polygon points="351.597,285.989 341.648,281.924 344.009,285.989 341.648,290.053 			"/>
		</g>
	</g>
</g>
<g>
	<g>
		<line fill="none" stroke="#000000" stroke-miterlimit="10" x1="344.532" y1="364.989" x2="313.597" y2="364.989"/>
		<g>
			<polygon points="351.597,364.989 341.648,360.924 344.009,364.989 341.648,369.053 			"/>
		</g>
	</g>
</g>
<g>
	<g>
		<line fill="none" stroke="#000000" stroke-miterlimit="10" x1="344.532" y1="443.989" x2="313.597" y2="443.989"/>
		<g>
			<polygon points="351.597,443.989 341.648,439.924 344.009,443.989 341.648,448.053 			"/>
		</g>
	</g>
</g>
<g>
	<g>
		<line fill="none" stroke="#000000" stroke-miterlimit="10" x1="344.532" y1="522.988" x2="313.597" y2="522.988"/>
		<g>
			<polygon points="351.597,522.988 341.648,518.925 344.009,522.988 341.648,527.053 			"/>
		</g>
	</g>
</g>
<text transform="matrix(1 0 0 1 356.6663 650.6924)" font-family="'ArialMT'" font-size="14">g[2][0..3]</text>
<g>
	<g>
		<line fill="none" stroke="#000000" stroke-miterlimit="10" x1="374.226" y1="250.074" x2="374.226" y2="172.621"/>
		<g>
			<polygon points="370.158,244.4 374.226,249.039 378.288,244.4 374.226,263.939 			"/>
		</g>
	</g>
</g>
<text transform="matrix(1 0 0 1 367.1824 421.5137)" font-family="'ArialMT'" font-size="12">{A2, D2}</text>
<line fill="none" stroke="#000000" stroke-miterlimit="10" x1="374.226" y1="172.621" x2="410.573" y2="144.489"/>
<text transform="matrix(1 0 0 1 475.2332 404.4883)" font-family="'ArialMT'" font-size="14">ColSeler</text>
<rect x="462.648" y="263.489" fill="none" stroke="#000000" stroke-miterlimit="10" width="73.051" height="282"/>
<g>
	<g>
		<line fill="none" stroke="#000000" stroke-miterlimit="10" x1="455.586" y1="285.989" x2="424.648" y2="285.989"/>
		<g>
			<polygon points="462.648,285.989 452.698,281.924 455.06,285.989 452.698,290.053 			"/>
		</g>
	</g>
</g>
<g>
	<g>
		<line fill="none" stroke="#000000" stroke-miterlimit="10" x1="455.586" y1="364.989" x2="424.648" y2="364.989"/>
		<g>
			<polygon points="462.648,364.989 452.698,360.924 455.06,364.989 452.698,369.053 			"/>
		</g>
	</g>
</g>
<g>
	<g>
		<line fill="none" stroke="#000000" stroke-miterlimit="10" x1="455.586" y1="443.989" x2="424.648" y2="443.989"/>
		<g>
			<polygon points="462.648,443.989 452.698,439.924 455.06,443.989 452.698,448.053 			"/>
		</g>
	</g>
</g>
<g>
	<g>
		<line fill="none" stroke="#000000" stroke-miterlimit="10" x1="455.586" y1="522.988" x2="424.648" y2="522.988"/>
		<g>
			<polygon points="462.648,522.988 452.698,518.925 455.06,522.988 452.698,527.053 			"/>
		</g>
	</g>
</g>
<text transform="matrix(1 0 0 1 467.7166 650.6924)" font-family="'ArialMT'" font-size="14">g[3][0..3]</text>
<g>
	<g>
		<line fill="none" stroke="#000000" stroke-miterlimit="10" x1="485.276" y1="250.074" x2="485.276" y2="172.621"/>
		<g>
			<polygon points="481.212,244.4 485.276,249.039 489.341,244.4 485.276,263.939 			"/>
		</g>
	</g>
</g>
<text transform="matrix(1 0 0 1 478.2332 421.5137)" font-family="'ArialMT'" font-size="12">{A3, D3}</text>
<line fill="none" stroke="#000000" stroke-miterlimit="10" x1="485.276" y1="172.621" x2="521.625" y2="144.489"/>
<text transform="matrix(1 0 0 1 586.2844 404.4883)" font-family="'ArialMT'" font-size="14">ColSeler</text>
<rect x="573.698" y="263.489" fill="none" stroke="#000000" stroke-miterlimit="10" width="73.053" height="282"/>
<g>
	<g>
		<line fill="none" stroke="#000000" stroke-miterlimit="10" x1="566.637" y1="285.989" x2="535.698" y2="285.989"/>
		<g>
			<polygon points="573.698,285.989 563.747,281.924 566.11,285.989 563.747,290.053 			"/>
		</g>
	</g>
</g>
<g>
	<g>
		<line fill="none" stroke="#000000" stroke-miterlimit="10" x1="566.637" y1="364.989" x2="535.698" y2="364.989"/>
		<g>
			<polygon points="573.698,364.989 563.747,360.924 566.11,364.989 563.747,369.053 			"/>
		</g>
	</g>
</g>
<g>
	<g>
		<line fill="none" stroke="#000000" stroke-miterlimit="10" x1="566.637" y1="443.989" x2="535.698" y2="443.989"/>
		<g>
			<polygon points="573.698,443.989 563.747,439.924 566.11,443.989 563.747,448.053 			"/>
		</g>
	</g>
</g>
<g>
	<g>
		<line fill="none" stroke="#000000" stroke-miterlimit="10" x1="566.637" y1="522.988" x2="535.698" y2="522.988"/>
		<g>
			<polygon points="573.698,522.988 563.747,518.925 566.11,522.988 563.747,527.053 			"/>
		</g>
	</g>
</g>
<g>
	<g>
		<line fill="none" stroke="#000000" stroke-miterlimit="10" x1="596.324" y1="250.074" x2="596.324" y2="172.621"/>
		<g>
			<polygon points="592.263,244.4 596.324,249.039 600.392,244.4 596.324,263.939 			"/>
		</g>
	</g>
</g>
<text transform="matrix(1 0 0 1 589.2844 421.5137)" font-family="'ArialMT'" font-size="12">{A0, D0}</text>
<line fill="none" stroke="#000000" stroke-miterlimit="10" x1="596.324" y1="172.621" x2="632.676" y2="144.489"/>
<text transform="matrix(1 0 0 1 697.3352 404.4883)" font-family="'ArialMT'" font-size="14">ColSeler</text>
<rect x="684.747" y="263.489" fill="none" stroke="#000000" stroke-miterlimit="10" width="73.053" height="282"/>
<g>
	<g>
		<line fill="none" stroke="#000000" stroke-miterlimit="10" x1="677.688" y1="285.989" x2="646.747" y2="285.989"/>
		<g>
			<polygon points="684.747,285.989 674.8,281.924 677.159,285.989 674.8,290.053 			"/>
		</g>
	</g>
</g>
<g>
	<g>
		<line fill="none" stroke="#000000" stroke-miterlimit="10" x1="677.688" y1="364.989" x2="646.747" y2="364.989"/>
		<g>
			<polygon points="684.747,364.989 674.8,360.924 677.159,364.989 674.8,369.053 			"/>
		</g>
	</g>
</g>
<g>
	<g>
		<line fill="none" stroke="#000000" stroke-miterlimit="10" x1="677.688" y1="443.989" x2="646.747" y2="443.989"/>
		<g>
			<polygon points="684.747,443.989 674.8,439.924 677.159,443.989 674.8,448.053 			"/>
		</g>
	</g>
</g>
<g>
	<g>
		<line fill="none" stroke="#000000" stroke-miterlimit="10" x1="677.688" y1="522.988" x2="646.747" y2="522.988"/>
		<g>
			<polygon points="684.747,522.988 674.8,518.925 677.159,522.988 674.8,527.053 			"/>
		</g>
	</g>
</g>
<g>
	<g>
		<line fill="none" stroke="#000000" stroke-miterlimit="10" x1="707.378" y1="250.074" x2="707.378" y2="172.621"/>
		<g>
			<polygon points="703.314,244.4 707.378,249.039 711.443,244.4 707.378,263.939 			"/>
		</g>
	</g>
</g>
<text transform="matrix(1 0 0 1 700.3352 421.5137)" font-family="'ArialMT'" font-size="12">{A1, D1}</text>
<line fill="none" stroke="#000000" stroke-miterlimit="10" x1="707.378" y1="172.621" x2="743.727" y2="144.489"/>
<text transform="matrix(1 0 0 1 808.2952 404.4883)" font-family="'ArialMT'" font-size="14">ColSeler</text>
<rect x="795.71" y="263.489" fill="none" stroke="#000000" stroke-miterlimit="10" width="73.051" height="282"/>
<g>
	<g>
		<line fill="none" stroke="#000000" stroke-miterlimit="10" x1="788.649" y1="285.989" x2="757.71" y2="285.989"/>
		<g>
			<polygon points="795.71,285.989 785.761,281.924 788.12,285.989 785.761,290.053 			"/>
		</g>
	</g>
</g>
<g>
	<g>
		<line fill="none" stroke="#000000" stroke-miterlimit="10" x1="788.649" y1="364.989" x2="757.71" y2="364.989"/>
		<g>
			<polygon points="795.71,364.989 785.761,360.924 788.12,364.989 785.761,369.053 			"/>
		</g>
	</g>
</g>
<g>
	<g>
		<line fill="none" stroke="#000000" stroke-miterlimit="10" x1="788.649" y1="443.989" x2="757.71" y2="443.989"/>
		<g>
			<polygon points="795.71,443.989 785.761,439.924 788.12,443.989 785.761,448.053 			"/>
		</g>
	</g>
</g>
<g>
	<g>
		<line fill="none" stroke="#000000" stroke-miterlimit="10" x1="788.649" y1="522.988" x2="757.71" y2="522.988"/>
		<g>
			<polygon points="795.71,522.988 785.761,518.925 788.12,522.988 785.761,527.053 			"/>
		</g>
	</g>
</g>
<g>
	<g>
		<line fill="none" stroke="#000000" stroke-miterlimit="10" x1="818.339" y1="250.074" x2="818.339" y2="172.621"/>
		<g>
			<polygon points="814.275,244.4 818.339,249.039 822.403,244.4 818.339,263.939 			"/>
		</g>
	</g>
</g>
<text transform="matrix(1 0 0 1 811.2952 421.5137)" font-family="'ArialMT'" font-size="12">{A2, D2}</text>
<line fill="none" stroke="#000000" stroke-miterlimit="10" x1="818.339" y1="172.621" x2="854.688" y2="144.489"/>
<text transform="matrix(1 0 0 1 759.7502 590.002)" enable-background="new    "><tspan x="0" y="0" font-family="'ArialMT'" font-size="14">rptr encode</tspan><tspan x="70.82" y="0" font-family="'AdobeSongStd-Light-GBpc-EUC-H'" font-size="14">：</tspan></text>
<text transform="matrix(1 0 0 1 779.5764 609.5479)" font-family="'ArialMT'" font-size="14">0 =&gt; 1111000</text>
<text transform="matrix(1 0 0 1 779.5764 626.5479)" font-family="'ArialMT'" font-size="14">1 =&gt; 0111100</text>
<text transform="matrix(1 0 0 1 779.5764 644.2969)" font-family="'ArialMT'" font-size="14">2 =&gt; 0011110</text>
<text transform="matrix(1 0 0 1 779.5764 661.2969)" font-family="'ArialMT'" font-size="14">3 =&gt; 0001111</text>
<line fill="none" stroke="#000000" stroke-miterlimit="10" x1="166.021" y1="545.488" x2="166.021" y2="562.596"/>
<line fill="none" stroke="#000000" stroke-miterlimit="10" x1="276.404" y1="545.488" x2="276.404" y2="562.596"/>
<line fill="none" stroke="#000000" stroke-miterlimit="10" x1="388.12" y1="545.488" x2="388.12" y2="562.596"/>
<g>
	<g>
		<line fill="none" stroke="#000000" stroke-miterlimit="10" x1="501.448" y1="545.488" x2="501.448" y2="627.143"/>
		<g>
			<polygon points="501.448,634.203 497.385,624.254 501.448,626.615 505.515,624.254 			"/>
		</g>
	</g>
</g>
<g>
	<g>
		<line fill="none" stroke="#000000" stroke-miterlimit="10" x1="166.021" y1="617.096" x2="166.021" y2="627.143"/>
		<g>
			<polygon points="166.021,634.203 161.955,624.254 166.021,626.615 170.085,624.254 			"/>
		</g>
	</g>
</g>
<g>
	<g>
		<line fill="none" stroke="#000000" stroke-miterlimit="10" x1="277.072" y1="617.096" x2="277.072" y2="627.143"/>
		<g>
			<polygon points="277.072,634.203 273.006,624.254 277.072,626.615 281.136,624.254 			"/>
		</g>
	</g>
</g>
<g>
	<g>
		<line fill="none" stroke="#000000" stroke-miterlimit="10" x1="388.243" y1="617.096" x2="388.243" y2="627.143"/>
		<g>
			<polygon points="388.243,634.203 384.18,624.254 388.243,626.615 392.31,624.254 			"/>
		</g>
	</g>
</g>
<line fill="none" stroke="#000000" stroke-miterlimit="10" x1="610.224" y1="545.488" x2="610.224" y2="562.596"/>
<line fill="none" stroke="#000000" stroke-miterlimit="10" x1="721.275" y1="545.488" x2="721.275" y2="562.596"/>
<line fill="none" stroke="#000000" stroke-miterlimit="10" x1="832.906" y1="545.488" x2="832.906" y2="562.596"/>
<ellipse fill="none" stroke="#000000" stroke-miterlimit="10" cx="166.266" cy="607.846" rx="22.207" ry="10.25"/>
<text transform="matrix(1 0 0 1 267.158 612.6914)" font-family="'ArialMT'" font-size="14">OR</text>
<ellipse fill="none" stroke="#000000" stroke-miterlimit="10" cx="276.404" cy="607.846" rx="22.207" ry="10.25"/>
<text transform="matrix(1 0 0 1 378.2083 612.6914)" font-family="'ArialMT'" font-size="14">OR</text>
<ellipse fill="none" stroke="#000000" stroke-miterlimit="10" cx="387.452" cy="607.846" rx="22.207" ry="10.25"/>
<g>
	<g>
		<line fill="none" stroke="#000000" stroke-miterlimit="10" x1="166.021" y1="562.596" x2="166.217" y2="590.535"/>
		<g>
			<polygon points="166.266,597.596 162.131,587.676 166.213,590.008 170.261,587.618 			"/>
		</g>
	</g>
</g>
<g>
	<g>
		<line fill="none" stroke="#000000" stroke-miterlimit="10" x1="610.224" y1="562.596" x2="173.305" y2="597.041"/>
		<g>
			<polygon points="166.266,597.596 175.865,592.761 173.831,597 176.504,600.865 			"/>
		</g>
	</g>
</g>
<g>
	<g>
		<line fill="none" stroke="#000000" stroke-miterlimit="10" x1="276.404" y1="562.596" x2="276.404" y2="590.535"/>
		<g>
			<polygon points="276.404,597.596 272.338,587.646 276.404,590.008 280.468,587.646 			"/>
		</g>
	</g>
</g>
<g>
	<g>
		<line fill="none" stroke="#000000" stroke-miterlimit="10" x1="721.275" y1="562.596" x2="283.442" y2="597.042"/>
		<g>
			<polygon points="276.404,597.596 286.003,592.763 283.969,597 286.641,600.867 			"/>
		</g>
	</g>
</g>
<g>
	<g>
		<line fill="none" stroke="#000000" stroke-miterlimit="10" x1="388.12" y1="562.596" x2="387.589" y2="590.537"/>
		<g>
			<polygon points="387.452,597.596 383.577,587.57 387.599,590.009 391.706,587.727 			"/>
		</g>
	</g>
</g>
<g>
	<g>
		<line fill="none" stroke="#000000" stroke-miterlimit="10" x1="832.906" y1="562.596" x2="394.491" y2="597.043"/>
		<g>
			<polygon points="387.452,597.596 397.054,592.764 395.019,597.002 397.691,600.868 			"/>
		</g>
	</g>
</g>
<line fill="none" stroke="#000000" stroke-width="3" stroke-miterlimit="10" x1="188.473" y1="144" x2="854.688" y2="144"/>
<text transform="matrix(1 0 0 1 533.5002 135)" font-family="'ArialMT'" font-size="16">rptr</text>
</svg>
