<?xml version="1.0" encoding="utf-8"?>
<!-- Generator: Adobe Illustrator 15.0.0, SVG Export Plug-In . SVG Version: 6.00 Build 0)  -->
<!DOCTYPE svg PUBLIC "-//W3C//DTD SVG 1.1//EN" "http://www.w3.org/Graphics/SVG/1.1/DTD/svg11.dtd">
<svg version="1.1" id="图层_1" xmlns="http://www.w3.org/2000/svg" xmlns:xlink="http://www.w3.org/1999/xlink" x="0px" y="0px"
	 width="524px" height="430px" viewBox="0 0 524 430" enable-background="new 0 0 524 430" xml:space="preserve">
<g>
	<rect x="210.141" y="92" fill="#FFFFFF" stroke="#000000" stroke-miterlimit="10" width="29" height="48"/>
	<text transform="matrix(1 0 0 1 220.1404 121)" font-family="'ArialMT'" font-size="16">&amp;</text>
	<line fill="none" stroke="#000000" stroke-miterlimit="10" x1="239.141" y1="116" x2="258" y2="116"/>
	<line fill="none" stroke="#000000" stroke-miterlimit="10" x1="210.141" y1="116" x2="87.641" y2="116"/>
	<g>
		<g>
			<line fill="none" stroke="#000000" stroke-miterlimit="10" x1="206.094" y1="130.5" x2="87.641" y2="130.5"/>
			<g>
				<g>
					<circle fill="#FFFFFF" cx="205.881" cy="130.5" r="3.76"/>
					<path d="M205.881,126.24c-2.349,0-4.26,1.911-4.26,4.26s1.911,4.26,4.26,4.26s4.26-1.911,4.26-4.26
						S208.229,126.24,205.881,126.24S208.229,126.24,205.881,126.24z M205.881,133.76c-1.798,0-3.26-1.462-3.26-3.26
						s1.462-3.26,3.26-3.26s3.26,1.462,3.26,3.26S207.679,133.76,205.881,133.76S207.679,133.76,205.881,133.76z"/>
				</g>
			</g>
		</g>
	</g>
	<g>
		<g>
			<line fill="none" stroke="#000000" stroke-miterlimit="10" x1="210.141" y1="100" x2="186.212" y2="100"/>
			<g>
				<circle cx="186.4" cy="100" r="3.76"/>
			</g>
		</g>
	</g>
	<text transform="matrix(1 0 0 1 130.6404 111.5)" font-family="'ArialMT'" font-size="14">r#1</text>
	<text transform="matrix(1 0 0 1 128.1404 144)" font-family="'ArialMT'" font-size="14">msk#1</text>
</g>
<g>
	<rect x="210.141" y="159.5" fill="#FFFFFF" stroke="#000000" stroke-miterlimit="10" width="29" height="48"/>
	<text transform="matrix(1 0 0 1 220.1404 188.5)" font-family="'ArialMT'" font-size="16">&amp;</text>
	<line fill="none" stroke="#000000" stroke-miterlimit="10" x1="239.141" y1="183.5" x2="258" y2="183.5"/>
	<line fill="none" stroke="#000000" stroke-miterlimit="10" x1="210.141" y1="183.5" x2="87.641" y2="183.5"/>
	<g>
		<g>
			<line fill="none" stroke="#000000" stroke-miterlimit="10" x1="206.094" y1="198" x2="87.641" y2="198"/>
			<g>
				<g>
					<circle fill="#FFFFFF" cx="205.881" cy="198" r="3.76"/>
					<path d="M205.881,193.74c-2.349,0-4.26,1.911-4.26,4.26s1.911,4.26,4.26,4.26s4.26-1.911,4.26-4.26
						S208.229,193.74,205.881,193.74S208.229,193.74,205.881,193.74z M205.881,201.26c-1.798,0-3.26-1.462-3.26-3.26
						s1.462-3.26,3.26-3.26s3.26,1.462,3.26,3.26S207.679,201.26,205.881,201.26S207.679,201.26,205.881,201.26z"/>
				</g>
			</g>
		</g>
	</g>
	<g>
		<g>
			<line fill="none" stroke="#000000" stroke-miterlimit="10" x1="210.141" y1="167.5" x2="186.212" y2="167.5"/>
			<g>
				<circle cx="186.4" cy="167.5" r="3.76"/>
			</g>
		</g>
	</g>
	<text transform="matrix(1 0 0 1 130.6404 179)" font-family="'ArialMT'" font-size="14">r#2</text>
	<text transform="matrix(1 0 0 1 128.1404 211.5)" font-family="'ArialMT'" font-size="14">msk#2</text>
</g>
<g>
	<rect x="210.141" y="285" fill="#FFFFFF" stroke="#000000" stroke-miterlimit="10" width="29" height="48"/>
	<text transform="matrix(1 0 0 1 220.1404 314)" font-family="'ArialMT'" font-size="16">&amp;</text>
	<line fill="none" stroke="#000000" stroke-miterlimit="10" x1="239.141" y1="309" x2="258" y2="309"/>
	<line fill="none" stroke="#000000" stroke-miterlimit="10" x1="210.141" y1="309" x2="87.641" y2="309"/>
	<g>
		<g>
			<line fill="none" stroke="#000000" stroke-miterlimit="10" x1="206.094" y1="323.5" x2="87.641" y2="323.5"/>
			<g>
				<g>
					<circle fill="#FFFFFF" cx="205.881" cy="323.5" r="3.76"/>
					<path d="M205.881,319.24c-2.349,0-4.26,1.91-4.26,4.26s1.911,4.26,4.26,4.26s4.26-1.91,4.26-4.26
						S208.229,319.24,205.881,319.24S208.229,319.24,205.881,319.24z M205.881,326.76c-1.798,0-3.26-1.462-3.26-3.26
						s1.462-3.26,3.26-3.26s3.26,1.462,3.26,3.26S207.679,326.76,205.881,326.76S207.679,326.76,205.881,326.76z"/>
				</g>
			</g>
		</g>
	</g>
	<g>
		<g>
			<line fill="none" stroke="#000000" stroke-miterlimit="10" x1="210.141" y1="293" x2="186.212" y2="293"/>
			<g>
				<circle cx="186.4" cy="293" r="3.76"/>
			</g>
		</g>
	</g>
	<text transform="matrix(1 0 0 1 130.6404 304.5)" font-family="'ArialMT'" font-size="14">r#M</text>
	<text transform="matrix(1 0 0 1 128.1404 337)" font-family="'ArialMT'" font-size="14">msk#M</text>
</g>
<text transform="matrix(4.489659e-011 -1 1 4.489659e-011 224.6399 255.5)" font-family="'ArialMT'" font-size="14">......</text>
<text transform="matrix(4.489659e-011 -1 1 4.489659e-011 387.6399 255.5)" font-family="'ArialMT'" font-size="14">......</text>
<ellipse fill="none" stroke="#000000" stroke-miterlimit="10" cx="327.521" cy="212.5" rx="17.75" ry="29"/>
<text transform="matrix(1 0 0 1 318.2703 216.5)" font-family="'ArialMT'" font-size="14">RR</text>
<g>
	<g>
		<line fill="none" stroke="#000000" stroke-miterlimit="10" x1="258.141" y1="116" x2="306.439" y2="206.274"/>
		<g>
			<polygon points="309.771,212.5 301.491,205.646 306.191,205.809 308.659,201.81 			"/>
		</g>
	</g>
</g>
<g>
	<g>
		<line fill="none" stroke="#000000" stroke-miterlimit="10" x1="258.141" y1="183.5" x2="303.615" y2="209.042"/>
		<g>
			<polygon points="309.771,212.5 299.105,211.172 303.154,208.784 303.086,204.084 			"/>
		</g>
	</g>
</g>
<g>
	<g>
		<line fill="none" stroke="#000000" stroke-miterlimit="10" x1="258.141" y1="309" x2="306.439" y2="218.727"/>
		<g>
			<polygon points="309.771,212.5 308.661,223.189 306.191,219.191 301.492,219.355 			"/>
		</g>
	</g>
</g>
<line fill="none" stroke="#000000" stroke-miterlimit="10" x1="345.271" y1="212.5" x2="371.641" y2="116"/>
<line fill="none" stroke="#000000" stroke-miterlimit="10" x1="371.641" y1="116" x2="469.641" y2="116"/>
<line fill="none" stroke="#000000" stroke-miterlimit="10" x1="371.641" y1="183.5" x2="469.641" y2="183.5"/>
<line fill="none" stroke="#000000" stroke-miterlimit="10" x1="371.641" y1="309" x2="469.641" y2="309"/>
<line fill="none" stroke="#000000" stroke-miterlimit="10" x1="345.271" y1="212.5" x2="371.641" y2="183.5"/>
<line fill="none" stroke="#000000" stroke-miterlimit="10" x1="345.271" y1="212.5" x2="371.641" y2="309"/>
<text transform="matrix(1 0 0 1 387.6404 109.5)" font-family="'ArialMT'" font-size="14">gnt#1</text>
<text transform="matrix(1 0 0 1 333.6404 340)" font-family="'ArialMT'" font-size="14">ptr</text>
<text transform="matrix(1 0 0 1 190.3904 77)" font-family="'ArialMT'" font-size="14">mask</text>
<text transform="matrix(1 0 0 1 318.2703 66)" font-family="'ArialMT'" font-size="18">BDPA_CELL</text>
<text transform="matrix(1 0 0 1 387.6404 175.5)" font-family="'ArialMT'" font-size="14">gnt#2</text>
<text transform="matrix(1 0 0 1 387.6404 302)" font-family="'ArialMT'" font-size="14">gnt#M</text>
<g>
	<g>
		<line fill="none" stroke="#000000" stroke-miterlimit="10" x1="327.521" y1="386" x2="327.521" y2="248.561"/>
		<g>
			<polygon points="327.521,241.5 331.586,251.449 327.521,249.088 323.455,251.449 			"/>
		</g>
	</g>
</g>
<line fill="none" stroke="#000000" stroke-miterlimit="10" x1="187.141" y1="25" x2="187.141" y2="293"/>
<rect x="107" y="46.5" fill="none" stroke="#000000" stroke-miterlimit="10" width="342" height="314"/>
</svg>
