<?xml version="1.0" encoding="utf-8"?>
<!-- Generator: Adobe Illustrator 15.0.0, SVG Export Plug-In . SVG Version: 6.00 Build 0)  -->
<!DOCTYPE svg PUBLIC "-//W3C//DTD SVG 1.1//EN" "http://www.w3.org/Graphics/SVG/1.1/DTD/svg11.dtd">
<svg version="1.1" id="图层_1" xmlns="http://www.w3.org/2000/svg" xmlns:xlink="http://www.w3.org/1999/xlink" x="0px" y="0px"
	 width="659px" height="925px" viewBox="0 0 659 925" enable-background="new 0 0 659 925" xml:space="preserve">
<g>
	<text transform="matrix(1 0 0 1 264.092 349.5)" font-family="'ArialMT'" font-size="14">A0</text>
	<text transform="matrix(1 0 0 1 264.0291 366.2998)" font-family="'ArialMT'" font-size="14">(0)</text>
	<rect x="250" y="331" fill="none" stroke="#000000" stroke-miterlimit="10" width="45" height="45"/>
	<g>
		<g>
			<line fill="none" stroke="#000000" stroke-miterlimit="10" x1="242.939" y1="353.5" x2="231" y2="353.5"/>
			<g>
				<polygon points="250,353.5 240.051,349.435 242.412,353.5 240.051,357.564 				"/>
			</g>
		</g>
	</g>
	<g>
		<g>
			<line fill="none" stroke="#000000" stroke-miterlimit="10" x1="272.5" y1="323.939" x2="272.5" y2="297"/>
			<g>
				<polygon points="272.5,331 276.565,321.051 272.5,323.412 268.436,321.051 				"/>
			</g>
		</g>
	</g>
</g>
<g>
	<text transform="matrix(1 0 0 1 347.092 349.5)" font-family="'ArialMT'" font-size="14">A1</text>
	<text transform="matrix(1 0 0 1 347.0295 366.2998)" font-family="'ArialMT'" font-size="14">(0)</text>
	<rect x="333" y="331" fill="none" stroke="#000000" stroke-miterlimit="10" width="45" height="45"/>
	<g>
		<g>
			<line fill="none" stroke="#000000" stroke-miterlimit="10" x1="325.939" y1="353.5" x2="295" y2="353.5"/>
			<g>
				<polygon points="333,353.5 323.051,349.435 325.409,353.5 323.051,357.564 				"/>
			</g>
		</g>
	</g>
	<g>
		<g>
			<line fill="none" stroke="#000000" stroke-miterlimit="10" x1="355.5" y1="323.939" x2="355.5" y2="297"/>
			<g>
				<polygon points="355.5,331 359.565,321.051 355.5,323.412 351.436,321.051 				"/>
			</g>
		</g>
	</g>
</g>
<g>
	<text transform="matrix(1 0 0 1 430.094 349.5)" font-family="'ArialMT'" font-size="14">A2</text>
	<text transform="matrix(1 0 0 1 430.0295 366.2998)" font-family="'ArialMT'" font-size="14">(0)</text>
	<rect x="416" y="331" fill="none" stroke="#000000" stroke-miterlimit="10" width="45" height="45"/>
	<g>
		<g>
			<line fill="none" stroke="#000000" stroke-miterlimit="10" x1="408.939" y1="353.5" x2="378" y2="353.5"/>
			<g>
				<polygon points="416,353.5 406.051,349.435 408.409,353.5 406.051,357.564 				"/>
			</g>
		</g>
	</g>
	<g>
		<g>
			<line fill="none" stroke="#000000" stroke-miterlimit="10" x1="438.5" y1="323.939" x2="438.5" y2="297"/>
			<g>
				<polygon points="438.5,331 442.565,321.051 438.5,323.412 434.436,321.051 				"/>
			</g>
		</g>
	</g>
</g>
<g>
	<text transform="matrix(1 0 0 1 513.094 349.5)" font-family="'ArialMT'" font-size="14">A3</text>
	<text transform="matrix(1 0 0 1 513.0305 366.2998)" font-family="'ArialMT'" font-size="14">(0)</text>
	<rect x="499" y="331" fill="none" stroke="#000000" stroke-miterlimit="10" width="45" height="45"/>
	<g>
		<g>
			<line fill="none" stroke="#000000" stroke-miterlimit="10" x1="491.939" y1="353.5" x2="461" y2="353.5"/>
			<g>
				<polygon points="499,353.5 489.051,349.435 491.409,353.5 489.051,357.564 				"/>
			</g>
		</g>
	</g>
	<g>
		<g>
			<line fill="none" stroke="#000000" stroke-miterlimit="10" x1="521.5" y1="323.939" x2="521.5" y2="297"/>
			<g>
				<polygon points="521.5,331 525.565,321.051 521.5,323.412 517.436,321.051 				"/>
			</g>
		</g>
	</g>
</g>
<g>
	<text transform="matrix(1 0 0 1 264.4778 428.5)" font-family="'ArialMT'" font-size="14">B0</text>
	<text transform="matrix(1 0 0 1 264.0291 445.2998)" font-family="'ArialMT'" font-size="14">(0)</text>
	<rect x="250" y="410" fill="none" stroke="#000000" stroke-miterlimit="10" width="45" height="45"/>
	<g>
		<g>
			<line fill="none" stroke="#000000" stroke-miterlimit="10" x1="242.939" y1="432.5" x2="212" y2="432.5"/>
			<g>
				<polygon points="250,432.5 240.051,428.435 242.412,432.5 240.051,436.564 				"/>
			</g>
		</g>
	</g>
	<g>
		<g>
			<line fill="none" stroke="#000000" stroke-miterlimit="10" x1="272.5" y1="402.939" x2="272.5" y2="376"/>
			<g>
				<polygon points="272.5,410 276.565,400.051 272.5,402.412 268.436,400.051 				"/>
			</g>
		</g>
	</g>
</g>
<g>
	<text transform="matrix(1 0 0 1 347.4778 428.5)" font-family="'ArialMT'" font-size="14">B1</text>
	<text transform="matrix(1 0 0 1 347.0295 445.2998)" font-family="'ArialMT'" font-size="14">(0)</text>
	<rect x="333" y="410" fill="none" stroke="#000000" stroke-miterlimit="10" width="45" height="45"/>
	<g>
		<g>
			<line fill="none" stroke="#000000" stroke-miterlimit="10" x1="325.939" y1="432.5" x2="295" y2="432.5"/>
			<g>
				<polygon points="333,432.5 323.051,428.435 325.409,432.5 323.051,436.564 				"/>
			</g>
		</g>
	</g>
	<g>
		<g>
			<line fill="none" stroke="#000000" stroke-miterlimit="10" x1="355.5" y1="402.939" x2="355.5" y2="376"/>
			<g>
				<polygon points="355.5,410 359.565,400.051 355.5,402.412 351.436,400.051 				"/>
			</g>
		</g>
	</g>
</g>
<g>
	<text transform="matrix(1 0 0 1 430.4788 428.5)" font-family="'ArialMT'" font-size="14">B2</text>
	<text transform="matrix(1 0 0 1 430.0295 445.2998)" font-family="'ArialMT'" font-size="14">(0)</text>
	<rect x="416" y="410" fill="none" stroke="#000000" stroke-miterlimit="10" width="45" height="45"/>
	<g>
		<g>
			<line fill="none" stroke="#000000" stroke-miterlimit="10" x1="408.939" y1="432.5" x2="378" y2="432.5"/>
			<g>
				<polygon points="416,432.5 406.051,428.435 408.409,432.5 406.051,436.564 				"/>
			</g>
		</g>
	</g>
	<g>
		<g>
			<line fill="none" stroke="#000000" stroke-miterlimit="10" x1="438.5" y1="402.939" x2="438.5" y2="376"/>
			<g>
				<polygon points="438.5,410 442.565,400.051 438.5,402.412 434.436,400.051 				"/>
			</g>
		</g>
	</g>
</g>
<g>
	<text transform="matrix(1 0 0 1 513.4788 428.5)" font-family="'ArialMT'" font-size="14">B3</text>
	<text transform="matrix(1 0 0 1 513.0305 445.2998)" font-family="'ArialMT'" font-size="14">(0)</text>
	<rect x="499" y="410" fill="none" stroke="#000000" stroke-miterlimit="10" width="45" height="45"/>
	<g>
		<g>
			<line fill="none" stroke="#000000" stroke-miterlimit="10" x1="491.939" y1="432.5" x2="461" y2="432.5"/>
			<g>
				<polygon points="499,432.5 489.051,428.435 491.409,432.5 489.051,436.564 				"/>
			</g>
		</g>
	</g>
	<g>
		<g>
			<line fill="none" stroke="#000000" stroke-miterlimit="10" x1="521.5" y1="402.939" x2="521.5" y2="376"/>
			<g>
				<polygon points="521.5,410 525.565,400.051 521.5,402.412 517.436,400.051 				"/>
			</g>
		</g>
	</g>
</g>
<g>
	<text transform="matrix(1 0 0 1 265.3455 507.5)" font-family="'ArialMT'" font-size="14">C0</text>
	<text transform="matrix(1 0 0 1 264.0291 524.2998)" font-family="'ArialMT'" font-size="14">(0)</text>
	<rect x="250" y="489" fill="none" stroke="#000000" stroke-miterlimit="10" width="45" height="45"/>
	<g>
		<g>
			<line fill="none" stroke="#000000" stroke-miterlimit="10" x1="242.939" y1="511.5" x2="212" y2="511.5"/>
			<g>
				<polygon points="250,511.5 240.051,507.435 242.412,511.5 240.051,515.564 				"/>
			</g>
		</g>
	</g>
	<g>
		<g>
			<line fill="none" stroke="#000000" stroke-miterlimit="10" x1="272.5" y1="481.939" x2="272.5" y2="455"/>
			<g>
				<polygon points="272.5,489 276.565,479.051 272.5,481.412 268.436,479.051 				"/>
			</g>
		</g>
	</g>
</g>
<g>
	<text transform="matrix(1 0 0 1 348.3459 507.5)" font-family="'ArialMT'" font-size="14">C1</text>
	<text transform="matrix(1 0 0 1 347.0295 524.2998)" font-family="'ArialMT'" font-size="14">(0)</text>
	<rect x="333" y="489" fill="none" stroke="#000000" stroke-miterlimit="10" width="45" height="45"/>
	<g>
		<g>
			<line fill="none" stroke="#000000" stroke-miterlimit="10" x1="325.939" y1="511.5" x2="295" y2="511.5"/>
			<g>
				<polygon points="333,511.5 323.051,507.435 325.409,511.5 323.051,515.564 				"/>
			</g>
		</g>
	</g>
	<g>
		<g>
			<line fill="none" stroke="#000000" stroke-miterlimit="10" x1="355.5" y1="481.939" x2="355.5" y2="455"/>
			<g>
				<polygon points="355.5,489 359.565,479.051 355.5,481.412 351.436,479.051 				"/>
			</g>
		</g>
	</g>
</g>
<g>
	<text transform="matrix(1 0 0 1 431.3459 507.5)" font-family="'ArialMT'" font-size="14">C2</text>
	<text transform="matrix(1 0 0 1 430.0295 524.2998)" font-family="'ArialMT'" font-size="14">(0)</text>
	<rect x="416" y="489" fill="none" stroke="#000000" stroke-miterlimit="10" width="45" height="45"/>
	<g>
		<g>
			<line fill="none" stroke="#000000" stroke-miterlimit="10" x1="408.939" y1="511.5" x2="378" y2="511.5"/>
			<g>
				<polygon points="416,511.5 406.051,507.435 408.409,511.5 406.051,515.564 				"/>
			</g>
		</g>
	</g>
	<g>
		<g>
			<line fill="none" stroke="#000000" stroke-miterlimit="10" x1="438.5" y1="481.939" x2="438.5" y2="455"/>
			<g>
				<polygon points="438.5,489 442.565,479.051 438.5,481.412 434.436,479.051 				"/>
			</g>
		</g>
	</g>
</g>
<g>
	<text transform="matrix(1 0 0 1 514.3459 507.5)" font-family="'ArialMT'" font-size="14">C3</text>
	<text transform="matrix(1 0 0 1 513.0305 524.2998)" font-family="'ArialMT'" font-size="14">(0)</text>
	<rect x="499" y="489" fill="none" stroke="#000000" stroke-miterlimit="10" width="45" height="45"/>
	<g>
		<g>
			<line fill="none" stroke="#000000" stroke-miterlimit="10" x1="491.939" y1="511.5" x2="461" y2="511.5"/>
			<g>
				<polygon points="499,511.5 489.051,507.435 491.409,511.5 489.051,515.564 				"/>
			</g>
		</g>
	</g>
	<g>
		<g>
			<line fill="none" stroke="#000000" stroke-miterlimit="10" x1="521.5" y1="481.939" x2="521.5" y2="455"/>
			<g>
				<polygon points="521.5,489 525.565,479.051 521.5,481.412 517.436,479.051 				"/>
			</g>
		</g>
	</g>
</g>
<g>
	<text transform="matrix(1 0 0 1 513.4788 112.5)" font-family="'ArialMT'" font-size="14">B3</text>
	<text transform="matrix(1 0 0 1 513.0305 129.2998)" font-family="'ArialMT'" font-size="14">(0)</text>
	<rect x="499" y="94" fill="none" stroke="#000000" stroke-miterlimit="10" width="45" height="45"/>
	<g>
		<g>
			<line fill="none" stroke="#000000" stroke-miterlimit="10" x1="491.939" y1="116.5" x2="480" y2="116.5"/>
			<g>
				<polygon points="499,116.5 489.051,112.435 491.409,116.5 489.051,120.564 				"/>
			</g>
		</g>
	</g>
	<g>
		<g>
			<line fill="none" stroke="#000000" stroke-miterlimit="10" x1="521.5" y1="86.939" x2="521.5" y2="60"/>
			<g>
				<polygon points="521.5,94 525.565,84.051 521.5,86.412 517.436,84.051 				"/>
			</g>
		</g>
	</g>
</g>
<g>
	<text transform="matrix(1 0 0 1 431.3459 191.5)" font-family="'ArialMT'" font-size="14">C2</text>
	<text transform="matrix(1 0 0 1 430.0295 208.2998)" font-family="'ArialMT'" font-size="14">(0)</text>
	<rect x="416" y="173" fill="none" stroke="#000000" stroke-miterlimit="10" width="45" height="45"/>
	<g>
		<g>
			<line fill="none" stroke="#000000" stroke-miterlimit="10" x1="408.939" y1="195.5" x2="397" y2="195.5"/>
			<g>
				<polygon points="416,195.5 406.051,191.435 408.409,195.5 406.051,199.564 				"/>
			</g>
		</g>
	</g>
	<g>
		<g>
			<line fill="none" stroke="#000000" stroke-miterlimit="10" x1="438.5" y1="165.939" x2="438.5" y2="139"/>
			<g>
				<polygon points="438.5,173 442.565,163.051 438.5,165.412 434.436,163.051 				"/>
			</g>
		</g>
	</g>
</g>
<g>
	<text transform="matrix(1 0 0 1 514.3459 191.5)" font-family="'ArialMT'" font-size="14">C3</text>
	<text transform="matrix(1 0 0 1 513.0305 208.2998)" font-family="'ArialMT'" font-size="14">(0)</text>
	<rect x="499" y="173" fill="none" stroke="#000000" stroke-miterlimit="10" width="45" height="45"/>
	<g>
		<g>
			<line fill="none" stroke="#000000" stroke-miterlimit="10" x1="491.939" y1="195.5" x2="461" y2="195.5"/>
			<g>
				<polygon points="499,195.5 489.051,191.435 491.409,195.5 489.051,199.564 				"/>
			</g>
		</g>
	</g>
	<g>
		<g>
			<line fill="none" stroke="#000000" stroke-miterlimit="10" x1="521.5" y1="165.939" x2="521.5" y2="139"/>
			<g>
				<polygon points="521.5,173 525.565,163.051 521.5,165.412 517.436,163.051 				"/>
			</g>
		</g>
	</g>
</g>
<g>
	<text transform="matrix(1 0 0 1 347.4006 270.5)" font-family="'ArialMT'" font-size="14">D1</text>
	<text transform="matrix(1 0 0 1 347.0295 287.2998)" font-family="'ArialMT'" font-size="14">(0)</text>
	<rect x="333" y="252" fill="none" stroke="#000000" stroke-miterlimit="10" width="45" height="45"/>
	<g>
		<g>
			<line fill="none" stroke="#000000" stroke-miterlimit="10" x1="325.939" y1="274.5" x2="314" y2="274.5"/>
			<g>
				<polygon points="333,274.5 323.051,270.435 325.409,274.5 323.051,278.564 				"/>
			</g>
		</g>
	</g>
	<g>
		<g>
			<line fill="none" stroke="#000000" stroke-miterlimit="10" x1="355.5" y1="244.939" x2="355.5" y2="218"/>
			<g>
				<polygon points="355.5,252 359.565,242.051 355.5,244.412 351.436,242.051 				"/>
			</g>
		</g>
	</g>
</g>
<g>
	<text transform="matrix(1 0 0 1 430.4006 270.5)" font-family="'ArialMT'" font-size="14">D2</text>
	<text transform="matrix(1 0 0 1 430.0295 287.2998)" font-family="'ArialMT'" font-size="14">(0)</text>
	<rect x="416" y="252" fill="none" stroke="#000000" stroke-miterlimit="10" width="45" height="45"/>
	<g>
		<g>
			<line fill="none" stroke="#000000" stroke-miterlimit="10" x1="408.939" y1="274.5" x2="378" y2="274.5"/>
			<g>
				<polygon points="416,274.5 406.051,270.435 408.409,274.5 406.051,278.564 				"/>
			</g>
		</g>
	</g>
	<g>
		<g>
			<line fill="none" stroke="#000000" stroke-miterlimit="10" x1="438.5" y1="244.939" x2="438.5" y2="218"/>
			<g>
				<polygon points="438.5,252 442.565,242.051 438.5,244.412 434.436,242.051 				"/>
			</g>
		</g>
	</g>
</g>
<g>
	<text transform="matrix(1 0 0 1 513.4006 270.5)" font-family="'ArialMT'" font-size="14">D3</text>
	<text transform="matrix(1 0 0 1 513.0295 287.2998)" font-family="'ArialMT'" font-size="14">(0)</text>
	<rect x="499" y="252" fill="none" stroke="#000000" stroke-miterlimit="10" width="45" height="45"/>
	<g>
		<g>
			<line fill="none" stroke="#000000" stroke-miterlimit="10" x1="491.939" y1="274.5" x2="461" y2="274.5"/>
			<g>
				<polygon points="499,274.5 489.051,270.435 491.409,274.5 489.051,278.564 				"/>
			</g>
		</g>
	</g>
	<g>
		<g>
			<line fill="none" stroke="#000000" stroke-miterlimit="10" x1="521.5" y1="244.939" x2="521.5" y2="218"/>
			<g>
				<polygon points="521.5,252 525.565,242.051 521.5,244.412 517.436,242.051 				"/>
			</g>
		</g>
	</g>
</g>
<g>
	<text transform="matrix(1 0 0 1 264.4001 586.5)" font-family="'ArialMT'" font-size="14">D0</text>
	<text transform="matrix(1 0 0 1 264.0291 603.2998)" font-family="'ArialMT'" font-size="14">(0)</text>
	<rect x="250" y="568" fill="none" stroke="#000000" stroke-miterlimit="10" width="45" height="45"/>
	<g>
		<g>
			<line fill="none" stroke="#000000" stroke-miterlimit="10" x1="242.939" y1="590.5" x2="212" y2="590.5"/>
			<g>
				<polygon points="250,590.5 240.051,586.435 242.412,590.5 240.051,594.564 				"/>
			</g>
		</g>
	</g>
	<g>
		<g>
			<line fill="none" stroke="#000000" stroke-miterlimit="10" x1="272.5" y1="560.939" x2="272.5" y2="534"/>
			<g>
				<polygon points="272.5,568 276.565,558.051 272.5,560.412 268.436,558.051 				"/>
			</g>
		</g>
	</g>
</g>
<g>
	<text transform="matrix(1 0 0 1 347.4006 586.5)" font-family="'ArialMT'" font-size="14">D1</text>
	<text transform="matrix(1 0 0 1 347.0295 603.2998)" font-family="'ArialMT'" font-size="14">(0)</text>
	<rect x="333" y="568" fill="none" stroke="#000000" stroke-miterlimit="10" width="45" height="45"/>
	<g>
		<g>
			<line fill="none" stroke="#000000" stroke-miterlimit="10" x1="325.939" y1="590.5" x2="295" y2="590.5"/>
			<g>
				<polygon points="333,590.5 323.051,586.435 325.409,590.5 323.051,594.564 				"/>
			</g>
		</g>
	</g>
	<g>
		<g>
			<line fill="none" stroke="#000000" stroke-miterlimit="10" x1="355.5" y1="560.939" x2="355.5" y2="534"/>
			<g>
				<polygon points="355.5,568 359.565,558.051 355.5,560.412 351.436,558.051 				"/>
			</g>
		</g>
	</g>
</g>
<g>
	<text transform="matrix(1 0 0 1 430.4006 586.5)" font-family="'ArialMT'" font-size="14">D2</text>
	<text transform="matrix(1 0 0 1 430.0295 603.2998)" font-family="'ArialMT'" font-size="14">(0)</text>
	<rect x="416" y="568" fill="none" stroke="#000000" stroke-miterlimit="10" width="45" height="45"/>
	<g>
		<g>
			<line fill="none" stroke="#000000" stroke-miterlimit="10" x1="408.939" y1="590.5" x2="378" y2="590.5"/>
			<g>
				<polygon points="416,590.5 406.051,586.435 408.409,590.5 406.051,594.564 				"/>
			</g>
		</g>
	</g>
	<g>
		<g>
			<line fill="none" stroke="#000000" stroke-miterlimit="10" x1="438.5" y1="560.939" x2="438.5" y2="534"/>
			<g>
				<polygon points="438.5,568 442.565,558.051 438.5,560.412 434.436,558.051 				"/>
			</g>
		</g>
	</g>
</g>
<g>
	<text transform="matrix(1 0 0 1 513.4006 586.5)" font-family="'ArialMT'" font-size="14">D3</text>
	<text transform="matrix(1 0 0 1 513.0295 603.2998)" font-family="'ArialMT'" font-size="14">(0)</text>
	<rect x="499" y="568" fill="none" stroke="#000000" stroke-miterlimit="10" width="45" height="45"/>
	<g>
		<g>
			<line fill="none" stroke="#000000" stroke-miterlimit="10" x1="491.939" y1="590.5" x2="461" y2="590.5"/>
			<g>
				<polygon points="499,590.5 489.051,586.435 491.409,590.5 489.051,594.564 				"/>
			</g>
		</g>
	</g>
	<g>
		<g>
			<line fill="none" stroke="#000000" stroke-miterlimit="10" x1="521.5" y1="560.939" x2="521.5" y2="534"/>
			<g>
				<polygon points="521.5,568 525.565,558.051 521.5,560.412 517.436,558.051 				"/>
			</g>
		</g>
	</g>
</g>
<g>
	<text transform="matrix(1 0 0 1 264.092 665.5)" font-family="'ArialMT'" font-size="14">A0</text>
	<text transform="matrix(1 0 0 1 264.0291 682.2998)" font-family="'ArialMT'" font-size="14">(0)</text>
	<rect x="250" y="647" fill="none" stroke="#000000" stroke-miterlimit="10" width="45" height="45"/>
	<g>
		<g>
			<line fill="none" stroke="#000000" stroke-miterlimit="10" x1="242.939" y1="669.5" x2="212" y2="669.5"/>
			<g>
				<polygon points="250,669.5 240.051,665.435 242.412,669.5 240.051,673.564 				"/>
			</g>
		</g>
	</g>
	<g>
		<g>
			<line fill="none" stroke="#000000" stroke-miterlimit="10" x1="272.5" y1="639.939" x2="272.5" y2="613"/>
			<g>
				<polygon points="272.5,647 276.565,637.051 272.5,639.412 268.436,637.051 				"/>
			</g>
		</g>
	</g>
</g>
<g>
	<text transform="matrix(1 0 0 1 347.092 665.5)" font-family="'ArialMT'" font-size="14">A1</text>
	<text transform="matrix(1 0 0 1 347.0295 682.2998)" font-family="'ArialMT'" font-size="14">(0)</text>
	<rect x="333" y="647" fill="none" stroke="#000000" stroke-miterlimit="10" width="45" height="45"/>
	<g>
		<g>
			<line fill="none" stroke="#000000" stroke-miterlimit="10" x1="325.939" y1="669.5" x2="295" y2="669.5"/>
			<g>
				<polygon points="333,669.5 323.051,665.435 325.409,669.5 323.051,673.564 				"/>
			</g>
		</g>
	</g>
	<g>
		<g>
			<line fill="none" stroke="#000000" stroke-miterlimit="10" x1="355.5" y1="639.939" x2="355.5" y2="613"/>
			<g>
				<polygon points="355.5,647 359.565,637.051 355.5,639.412 351.436,637.051 				"/>
			</g>
		</g>
	</g>
</g>
<g>
	<text transform="matrix(1 0 0 1 430.094 665.5)" font-family="'ArialMT'" font-size="14">A2</text>
	<text transform="matrix(1 0 0 1 430.0295 682.2998)" font-family="'ArialMT'" font-size="14">(0)</text>
	<rect x="416" y="647" fill="none" stroke="#000000" stroke-miterlimit="10" width="45" height="45"/>
	<g>
		<g>
			<line fill="none" stroke="#000000" stroke-miterlimit="10" x1="408.939" y1="669.5" x2="378" y2="669.5"/>
			<g>
				<polygon points="416,669.5 406.051,665.435 408.409,669.5 406.051,673.564 				"/>
			</g>
		</g>
	</g>
	<g>
		<g>
			<line fill="none" stroke="#000000" stroke-miterlimit="10" x1="438.5" y1="639.939" x2="438.5" y2="613"/>
			<g>
				<polygon points="438.5,647 442.565,637.051 438.5,639.412 434.436,637.051 				"/>
			</g>
		</g>
	</g>
</g>
<g>
	<text transform="matrix(1 0 0 1 264.4778 744.5)" font-family="'ArialMT'" font-size="14">B0</text>
	<text transform="matrix(1 0 0 1 264.0291 761.2998)" font-family="'ArialMT'" font-size="14">(0)</text>
	<rect x="250" y="726" fill="none" stroke="#000000" stroke-miterlimit="10" width="45" height="45"/>
	<g>
		<g>
			<line fill="none" stroke="#000000" stroke-miterlimit="10" x1="242.939" y1="748.5" x2="212" y2="748.5"/>
			<g>
				<polygon points="250,748.5 240.051,744.435 242.412,748.5 240.051,752.564 				"/>
			</g>
		</g>
	</g>
	<g>
		<g>
			<line fill="none" stroke="#000000" stroke-miterlimit="10" x1="272.5" y1="718.939" x2="272.5" y2="692"/>
			<g>
				<polygon points="272.5,726 276.565,716.051 272.5,718.412 268.436,716.051 				"/>
			</g>
		</g>
	</g>
</g>
<g>
	<text transform="matrix(1 0 0 1 347.4778 744.5)" font-family="'ArialMT'" font-size="14">B1</text>
	<text transform="matrix(1 0 0 1 347.0295 761.2998)" font-family="'ArialMT'" font-size="14">(0)</text>
	<rect x="333" y="726" fill="none" stroke="#000000" stroke-miterlimit="10" width="45" height="45"/>
	<g>
		<g>
			<line fill="none" stroke="#000000" stroke-miterlimit="10" x1="325.939" y1="748.5" x2="295" y2="748.5"/>
			<g>
				<polygon points="333,748.5 323.051,744.435 325.409,748.5 323.051,752.564 				"/>
			</g>
		</g>
	</g>
	<g>
		<g>
			<line fill="none" stroke="#000000" stroke-miterlimit="10" x1="355.5" y1="718.939" x2="355.5" y2="692"/>
			<g>
				<polygon points="355.5,726 359.565,716.051 355.5,718.412 351.436,716.051 				"/>
			</g>
		</g>
	</g>
</g>
<g>
	<text transform="matrix(1 0 0 1 265.3455 823.5)" font-family="'ArialMT'" font-size="14">C0</text>
	<text transform="matrix(1 0 0 1 264.0291 840.2998)" font-family="'ArialMT'" font-size="14">(0)</text>
	<rect x="250" y="805" fill="none" stroke="#000000" stroke-miterlimit="10" width="45" height="45"/>
	<g>
		<g>
			<line fill="none" stroke="#000000" stroke-miterlimit="10" x1="242.939" y1="827.5" x2="212" y2="827.5"/>
			<g>
				<polygon points="250,827.5 240.051,823.435 242.412,827.5 240.051,831.564 				"/>
			</g>
		</g>
	</g>
	<g>
		<g>
			<line fill="none" stroke="#000000" stroke-miterlimit="10" x1="272.5" y1="797.939" x2="272.5" y2="771"/>
			<g>
				<polygon points="272.5,805 276.565,795.051 272.5,797.412 268.436,795.051 				"/>
			</g>
		</g>
	</g>
</g>
<text transform="matrix(1 0 0 1 249.6731 296)" font-family="'ArialMT'" font-size="14">cmsk[0]</text>
<text transform="matrix(1 0 0 1 276.2957 268.5)" font-family="'ArialMT'" font-size="14">rmsk[3]</text>
<text transform="matrix(1 0 0 1 192.1731 347.5)" font-family="'ArialMT'" font-size="14">rmsk[0]</text>
<text transform="matrix(1 0 0 1 359.7952 190.5)" font-family="'ArialMT'" font-size="14">rmsk[2]</text>
<text transform="matrix(1 0 0 1 442.7971 110.5)" font-family="'ArialMT'" font-size="14">rmsk[1]</text>
<text transform="matrix(1 0 0 1 126.3108 65)" font-family="'ArialMT'" font-size="14">n</text>
<text transform="matrix(1 0 0 1 72.6331 77)" font-family="'ArialMT'" font-size="14">r</text>
<text transform="matrix(1 0 0 1 127.6467 195.5)" font-family="'ArialMT'" font-size="14">s</text>
<text transform="matrix(1 0 0 1 58.1858 131.5)" font-family="'ArialMT'" font-size="14">w</text>
<text transform="matrix(1 0 0 1 73.3318 182.875)" font-family="'ArialMT'" font-size="14">p</text>
<text transform="matrix(1 0 0 1 181.1414 184.875)" font-family="'ArialMT'" font-size="14">g</text>
<text transform="matrix(1 0 0 1 196.095 131.5)" font-family="'ArialMT'" font-size="14">e</text>
<text transform="matrix(1 0 0 1 332.6731 215)" font-family="'ArialMT'" font-size="14">cmsk[1]</text>
<text transform="matrix(1 0 0 1 415.6731 138)" font-family="'ArialMT'" font-size="14">cmsk[2]</text>
<text transform="matrix(1 0 0 1 498.6741 58)" font-family="'ArialMT'" font-size="14">cmsk[3]</text>
<text transform="matrix(1 0 0 1 579.0002 120.5)" font-family="'ArialMT'" font-size="14">to B0</text>
<text transform="matrix(1 0 0 1 160.1917 437.5)" font-family="'ArialMT'" font-size="14">from B0</text>
<text transform="matrix(1 0 0 1 163.9285 516.5)" font-family="'ArialMT'" font-size="14">from C0</text>
<text transform="matrix(1 0 0 1 163.0374 595.5)" font-family="'ArialMT'" font-size="14">from D0</text>
<text transform="matrix(1 0 0 1 162.4216 674.5)" font-family="'ArialMT'" font-size="14">from A0</text>
<text transform="matrix(1 0 0 1 165.1917 752.5)" font-family="'ArialMT'" font-size="14">from B1</text>
<text transform="matrix(1 0 0 1 166.9285 831.5)" font-family="'ArialMT'" font-size="14">from C1</text>
<g>
	<g>
		<line fill="none" stroke="#000000" stroke-miterlimit="10" x1="544" y1="116.5" x2="569.939" y2="116.5"/>
		<g>
			<polygon points="577,116.5 567.051,120.565 569.409,116.5 567.051,112.436 			"/>
		</g>
	</g>
</g>
<text transform="matrix(1 0 0 1 578.0002 199.5)" font-family="'ArialMT'" font-size="14">to C0</text>
<g>
	<g>
		<line fill="none" stroke="#000000" stroke-miterlimit="10" x1="543" y1="195.5" x2="568.939" y2="195.5"/>
		<g>
			<polygon points="576,195.5 566.051,199.565 568.409,195.5 566.051,191.436 			"/>
		</g>
	</g>
</g>
<text transform="matrix(1 0 0 1 578.5002 434.5)" font-family="'ArialMT'" font-size="14">to B1</text>
<g>
	<g>
		<line fill="none" stroke="#000000" stroke-miterlimit="10" x1="543.5" y1="430.5" x2="569.439" y2="430.5"/>
		<g>
			<polygon points="576.5,430.5 566.551,434.565 568.909,430.5 566.551,426.436 			"/>
		</g>
	</g>
</g>
<text transform="matrix(1 0 0 1 577.5002 513.5)" font-family="'ArialMT'" font-size="14">to C1</text>
<g>
	<g>
		<line fill="none" stroke="#000000" stroke-miterlimit="10" x1="542.5" y1="509.5" x2="568.439" y2="509.5"/>
		<g>
			<polygon points="575.5,509.5 565.551,513.565 567.909,509.5 565.551,505.436 			"/>
		</g>
	</g>
</g>
<text transform="matrix(1 0 0 1 579.0002 594.5)" font-family="'ArialMT'" font-size="14">rgnt[3]</text>
<text transform="matrix(1 0 0 1 527.0002 635.5273)" font-family="'ArialMT'" font-size="14">cgnt[3]</text>
<text transform="matrix(1 0 0 1 521.5002 810.5273)" font-family="'ArialMT'" font-size="14">RR</text>
<text transform="matrix(1 0 0 1 484.5002 842.9453)" font-family="'ArialMT'" font-size="14">RR</text>
<text transform="matrix(1 0 0 1 444.0002 717.4727)" font-family="'ArialMT'" font-size="14">cgnt[2]</text>
<text transform="matrix(1 0 0 1 359.0002 796)" font-family="'ArialMT'" font-size="14">cgnt[1]</text>
<text transform="matrix(1 0 0 1 276.4998 876.9727)" font-family="'ArialMT'" font-size="14">cgnt[0]</text>
<g>
	<g>
		<line fill="none" stroke="#000000" stroke-miterlimit="10" x1="544" y1="590.5" x2="569.939" y2="590.5"/>
		<g>
			<polygon points="577,590.5 567.051,594.565 569.409,590.5 567.051,586.436 			"/>
		</g>
	</g>
</g>
<text transform="matrix(1 0 0 1 496.5002 673.5)" font-family="'ArialMT'" font-size="14">rgnt[0]</text>
<g>
	<g>
		<line fill="none" stroke="#000000" stroke-miterlimit="10" x1="461.5" y1="669.5" x2="487.439" y2="669.5"/>
		<g>
			<polygon points="494.5,669.5 484.551,673.565 486.909,669.5 484.551,665.436 			"/>
		</g>
	</g>
</g>
<text transform="matrix(1 0 0 1 413.5002 753.5)" font-family="'ArialMT'" font-size="14">rgnt[1]</text>
<g>
	<g>
		<line fill="none" stroke="#000000" stroke-miterlimit="10" x1="378.5" y1="749.5" x2="404.439" y2="749.5"/>
		<g>
			<polygon points="411.5,749.5 401.551,753.565 403.909,749.5 401.551,745.436 			"/>
		</g>
	</g>
</g>
<text transform="matrix(1 0 0 1 330.5002 831.5)" font-family="'ArialMT'" font-size="14">rgnt[2]</text>
<g>
	<g>
		<line fill="none" stroke="#000000" stroke-miterlimit="10" x1="295.5" y1="827.5" x2="321.439" y2="827.5"/>
		<g>
			<polygon points="328.5,827.5 318.551,831.565 320.909,827.5 318.551,823.436 			"/>
		</g>
	</g>
</g>
<text transform="matrix(1 0 0 1 578.0002 278.5)" font-family="'ArialMT'" font-size="14">to D0</text>
<g>
	<g>
		<line fill="none" stroke="#000000" stroke-miterlimit="10" x1="543" y1="274.5" x2="568.939" y2="274.5"/>
		<g>
			<polygon points="576,274.5 566.051,278.565 568.409,274.5 566.051,270.436 			"/>
		</g>
	</g>
</g>
<text transform="matrix(1 0 0 1 580.0002 357.5)" font-family="'ArialMT'" font-size="14">to A0</text>
<g>
	<g>
		<line fill="none" stroke="#000000" stroke-miterlimit="10" x1="545" y1="353.5" x2="570.939" y2="353.5"/>
		<g>
			<polygon points="578,353.5 568.051,357.565 570.409,353.5 568.051,349.436 			"/>
		</g>
	</g>
</g>
<g>
	<text transform="matrix(1 0 0 1 71.5872 390)" font-family="'ArialMT'" font-size="14">ptr[0]=0</text>
	<g>
		<g>
			<line fill="none" stroke="#FF2400" stroke-miterlimit="10" x1="240" y1="386" x2="242.169" y2="383.928"/>
			
				<line fill="none" stroke="#FF2400" stroke-miterlimit="10" stroke-dasharray="6.0654,6.0654" x1="246.555" y1="379.738" x2="560.138" y2="80.167"/>
			<line fill="none" stroke="#FF2400" stroke-miterlimit="10" x1="562.328" y1="78.072" x2="564.5" y2="76"/>
		</g>
	</g>
	<line fill="none" stroke="#FF2400" stroke-miterlimit="10" stroke-dasharray="6" x1="240" y1="386" x2="127" y2="386"/>
	<rect x="64" y="374" fill="none" stroke="#000000" stroke-miterlimit="10" width="63" height="24"/>
</g>
<g>
	<text transform="matrix(1 0 0 1 71.3372 469)" font-family="'ArialMT'" font-size="14">ptr[1]=1</text>
	<g>
		<g>
			<line fill="none" stroke="#FF2400" stroke-miterlimit="10" x1="239.75" y1="465" x2="241.919" y2="462.928"/>
			
				<line fill="none" stroke="#FF2400" stroke-miterlimit="10" stroke-dasharray="6.0654,6.0654" x1="246.305" y1="458.738" x2="559.888" y2="159.167"/>
			<line fill="none" stroke="#FF2400" stroke-miterlimit="10" x1="562.078" y1="157.072" x2="564.25" y2="155"/>
		</g>
	</g>
	<line fill="none" stroke="#FF2400" stroke-miterlimit="10" stroke-dasharray="6" x1="239.75" y1="465" x2="126.75" y2="465"/>
	<rect x="63.75" y="453" fill="none" stroke="#000000" stroke-miterlimit="10" width="63" height="24"/>
</g>
<g>
	<text transform="matrix(1 0 0 1 71.3372 548)" font-family="'ArialMT'" font-size="14">ptr[2]=1</text>
	<g>
		<g>
			<line fill="none" stroke="#FF2400" stroke-miterlimit="10" x1="239.75" y1="544" x2="241.919" y2="541.928"/>
			
				<line fill="none" stroke="#FF2400" stroke-miterlimit="10" stroke-dasharray="6.0654,6.0654" x1="246.305" y1="537.738" x2="559.888" y2="238.167"/>
			<line fill="none" stroke="#FF2400" stroke-miterlimit="10" x1="562.078" y1="236.072" x2="564.25" y2="234"/>
		</g>
	</g>
	<line fill="none" stroke="#FF2400" stroke-miterlimit="10" stroke-dasharray="6" x1="239.75" y1="544" x2="126.75" y2="544"/>
	<rect x="63.75" y="532" fill="none" stroke="#000000" stroke-miterlimit="10" width="63" height="24"/>
</g>
<g>
	<text transform="matrix(1 0 0 1 71.3372 627)" font-family="'ArialMT'" font-size="14">ptr[3]=1</text>
	<g>
		<g>
			<line fill="none" stroke="#FF2400" stroke-miterlimit="10" x1="239.75" y1="623" x2="241.919" y2="620.928"/>
			
				<line fill="none" stroke="#FF2400" stroke-miterlimit="10" stroke-dasharray="6.0654,6.0654" x1="246.305" y1="616.738" x2="559.888" y2="317.167"/>
			<line fill="none" stroke="#FF2400" stroke-miterlimit="10" x1="562.078" y1="315.072" x2="564.25" y2="313"/>
		</g>
	</g>
	<line fill="none" stroke="#FF2400" stroke-miterlimit="10" stroke-dasharray="6" x1="239.75" y1="623" x2="126.75" y2="623"/>
	<rect x="63.75" y="611" fill="none" stroke="#000000" stroke-miterlimit="10" width="63" height="24"/>
</g>
<g>
	<text transform="matrix(1 0 0 1 71.3372 705)" font-family="'ArialMT'" font-size="14">ptr[4]=1</text>
	<g>
		<g>
			<line fill="none" stroke="#FF2400" stroke-miterlimit="10" x1="239.75" y1="701" x2="241.919" y2="698.928"/>
			
				<line fill="none" stroke="#FF2400" stroke-miterlimit="10" stroke-dasharray="6.0654,6.0654" x1="246.305" y1="694.738" x2="559.888" y2="395.167"/>
			<line fill="none" stroke="#FF2400" stroke-miterlimit="10" x1="562.078" y1="393.072" x2="564.25" y2="391"/>
		</g>
	</g>
	<line fill="none" stroke="#FF2400" stroke-miterlimit="10" stroke-dasharray="6" x1="239.75" y1="701" x2="126.75" y2="701"/>
	<rect x="63.75" y="689" fill="none" stroke="#000000" stroke-miterlimit="10" width="63" height="24"/>
</g>
<g>
	<text transform="matrix(1 0 0 1 71.3372 783)" font-family="'ArialMT'" font-size="14">ptr[5]=0</text>
	<g>
		<g>
			<line fill="none" stroke="#FF2400" stroke-miterlimit="10" x1="239.75" y1="779" x2="241.919" y2="776.928"/>
			
				<line fill="none" stroke="#FF2400" stroke-miterlimit="10" stroke-dasharray="6.0654,6.0654" x1="246.305" y1="772.738" x2="559.888" y2="473.167"/>
			<line fill="none" stroke="#FF2400" stroke-miterlimit="10" x1="562.078" y1="471.072" x2="564.25" y2="469"/>
		</g>
	</g>
	<line fill="none" stroke="#FF2400" stroke-miterlimit="10" stroke-dasharray="6" x1="239.75" y1="779" x2="126.75" y2="779"/>
	<rect x="63.75" y="767" fill="none" stroke="#000000" stroke-miterlimit="10" width="63" height="24"/>
</g>
<g>
	<text transform="matrix(1 0 0 1 70.3372 864)" font-family="'ArialMT'" font-size="14">ptr[6]=0</text>
	<g>
		<g>
			<line fill="none" stroke="#FF2400" stroke-miterlimit="10" x1="238.75" y1="860" x2="240.919" y2="857.928"/>
			
				<line fill="none" stroke="#FF2400" stroke-miterlimit="10" stroke-dasharray="6.0654,6.0654" x1="245.305" y1="853.738" x2="558.888" y2="554.167"/>
			<line fill="none" stroke="#FF2400" stroke-miterlimit="10" x1="561.078" y1="552.072" x2="563.25" y2="550"/>
		</g>
	</g>
	<line fill="none" stroke="#FF2400" stroke-miterlimit="10" stroke-dasharray="6" x1="238.75" y1="860" x2="125.75" y2="860"/>
	<rect x="62.75" y="848" fill="none" stroke="#000000" stroke-miterlimit="10" width="63" height="24"/>
</g>
<g>
	<g>
		<line fill="none" stroke="#000000" stroke-miterlimit="10" x1="94.25" y1="398" x2="94.25" y2="444.884"/>
		<g>
			<polygon points="94.25,451.945 90.185,441.996 94.25,444.356 98.314,441.996 			"/>
		</g>
	</g>
</g>
<g>
	<g>
		<line fill="none" stroke="#000000" stroke-miterlimit="10" x1="93.5" y1="353" x2="93.5" y2="366.884"/>
		<g>
			<polygon points="93.5,373.945 89.435,363.996 93.5,366.356 97.564,363.996 			"/>
		</g>
	</g>
</g>
<g>
	<g>
		<line fill="none" stroke="#000000" stroke-miterlimit="10" x1="521.5" y1="613.527" x2="521.5" y2="627.412"/>
		<g>
			<polygon points="521.5,634.473 517.435,624.523 521.5,626.884 525.564,624.523 			"/>
		</g>
	</g>
</g>
<g>
	<g>
		<line fill="none" stroke="#000000" stroke-miterlimit="10" x1="438.5" y1="692.527" x2="438.5" y2="706.412"/>
		<g>
			<polygon points="438.5,713.473 434.435,703.523 438.5,705.884 442.564,703.523 			"/>
		</g>
	</g>
</g>
<g>
	<g>
		<line fill="none" stroke="#000000" stroke-miterlimit="10" x1="354.5" y1="770.527" x2="354.5" y2="784.412"/>
		<g>
			<polygon points="354.5,791.473 350.435,781.523 354.5,783.884 358.564,781.523 			"/>
		</g>
	</g>
</g>
<g>
	<g>
		<line fill="none" stroke="#000000" stroke-miterlimit="10" x1="271.5" y1="850.527" x2="271.5" y2="864.412"/>
		<g>
			<polygon points="271.5,871.473 267.435,861.523 271.5,863.884 275.564,861.523 			"/>
		</g>
	</g>
</g>
<g>
	<g>
		<line fill="none" stroke="#000000" stroke-miterlimit="10" x1="95.5" y1="477.527" x2="95.5" y2="524.412"/>
		<g>
			<polygon points="95.5,531.473 91.435,521.523 95.5,523.884 99.564,521.523 			"/>
		</g>
	</g>
</g>
<g>
	<g>
		<line fill="none" stroke="#000000" stroke-miterlimit="10" x1="95.25" y1="556.527" x2="95.25" y2="603.412"/>
		<g>
			<polygon points="95.25,610.473 91.185,600.523 95.25,602.884 99.314,600.523 			"/>
		</g>
	</g>
</g>
<g>
	<g>
		<line fill="none" stroke="#000000" stroke-miterlimit="10" x1="95.25" y1="635.527" x2="95.25" y2="682.412"/>
		<g>
			<polygon points="95.25,689.473 91.185,679.523 95.25,681.884 99.314,679.523 			"/>
		</g>
	</g>
</g>
<g>
	<g>
		<line fill="none" stroke="#000000" stroke-miterlimit="10" x1="95.25" y1="713" x2="95.25" y2="759.885"/>
		<g>
			<polygon points="95.25,766.945 91.185,756.996 95.25,759.356 99.314,756.996 			"/>
		</g>
	</g>
</g>
<g>
	<g>
		<line fill="none" stroke="#000000" stroke-miterlimit="10" x1="95.5" y1="792" x2="95.5" y2="838.885"/>
		<g>
			<polygon points="95.5,845.945 91.435,835.996 95.5,838.356 99.564,835.996 			"/>
		</g>
	</g>
</g>
<line fill="none" stroke="#000000" stroke-miterlimit="10" x1="96.5" y1="872" x2="96.5" y2="883.945"/>
<line fill="none" stroke="#000000" stroke-miterlimit="10" x1="96.5" y1="883.945" x2="37" y2="883.945"/>
<line fill="none" stroke="#000000" stroke-miterlimit="10" x1="37" y1="883.945" x2="37" y2="353"/>
<line fill="none" stroke="#000000" stroke-miterlimit="10" x1="37" y1="353" x2="93.5" y2="353"/>
<g>
	<g>
		<line fill="none" stroke="#000000" stroke-miterlimit="10" x1="515" y1="827.5" x2="515" y2="788.061"/>
		<g>
			<polygon points="515,781 519.065,790.949 515,788.588 510.936,790.949 			"/>
		</g>
	</g>
</g>
<g>
	<g>
		<line fill="none" stroke="#000000" stroke-miterlimit="10" x1="515" y1="827.5" x2="472.061" y2="827.5"/>
		<g>
			<polygon points="465,827.5 474.948,823.435 472.588,827.5 474.948,831.564 			"/>
		</g>
	</g>
</g>
<text transform="matrix(1 0 0 1 122.8455 123.5)" font-family="'ArialMT'" font-size="14">B1</text>
<text transform="matrix(1 0 0 1 121.5291 140.2998)" font-family="'ArialMT'" font-size="14">(0)</text>
<rect x="107.5" y="105" fill="none" stroke="#000000" stroke-miterlimit="10" width="45" height="45"/>
<g>
	<g>
		<line fill="none" stroke="#000000" stroke-miterlimit="10" x1="100.439" y1="127.5" x2="69.5" y2="127.5"/>
		<g>
			<polygon points="107.5,127.5 97.551,123.435 99.912,127.5 97.551,131.564 			"/>
		</g>
	</g>
</g>
<g>
	<g>
		<line fill="none" stroke="#000000" stroke-miterlimit="10" x1="183.439" y1="127.5" x2="152.5" y2="127.5"/>
		<g>
			<polygon points="190.5,127.5 180.551,123.435 182.912,127.5 180.551,131.564 			"/>
		</g>
	</g>
</g>
<g>
	<g>
		<line fill="none" stroke="#000000" stroke-miterlimit="10" x1="130" y1="97.939" x2="130" y2="71"/>
		<g>
			<polygon points="130,105 134.065,95.051 130,97.412 125.936,95.051 			"/>
		</g>
	</g>
</g>
<g>
	<g>
		<line fill="none" stroke="#000000" stroke-miterlimit="10" x1="130" y1="176.939" x2="130" y2="150"/>
		<g>
			<polygon points="130,184 134.065,174.051 130,176.412 125.936,174.051 			"/>
		</g>
	</g>
</g>
<g>
	<g>
		<line fill="none" stroke="#000000" stroke-miterlimit="10" x1="102.507" y1="100.007" x2="81.75" y2="79.25"/>
		<g>
			<polygon points="107.5,105 103.339,95.09 102.134,99.634 97.591,100.839 			"/>
		</g>
	</g>
</g>
<g>
	<g>
		<line fill="none" stroke="#000000" stroke-miterlimit="10" x1="173.257" y1="169.882" x2="152.5" y2="149.125"/>
		<g>
			<polygon points="178.25,174.875 174.089,164.965 172.884,169.509 168.341,170.714 			"/>
		</g>
	</g>
</g>
<g>
	<g>
		<line fill="none" stroke="#000000" stroke-miterlimit="10" x1="102.507" y1="154.993" x2="86.5" y2="171"/>
		<g>
			<polygon points="107.5,150 97.59,154.161 102.134,155.366 103.339,159.909 			"/>
		</g>
	</g>
</g>
<text transform="matrix(1 0 0 1 89.4348 215)" font-family="'AdobeSongStd-Light-GBpc-EUC-H'" font-size="14">e = r&amp;p&amp;~n|w</text>
<text transform="matrix(1 0 0 1 89.4348 231.4697)" font-family="'AdobeSongStd-Light-GBpc-EUC-H'" font-size="14">s = r&amp;p&amp;~w|n</text>
<text transform="matrix(1 0 0 1 89.4348 247.0254)" font-family="'AdobeSongStd-Light-GBpc-EUC-H'" font-size="14">g = r&amp;p&amp;~w&amp;~n</text>
</svg>
