<?xml version="1.0" encoding="utf-8"?>
<!-- Generator: Adobe Illustrator 15.0.0, SVG Export Plug-In . SVG Version: 6.00 Build 0)  -->
<!DOCTYPE svg PUBLIC "-//W3C//DTD SVG 1.1//EN" "http://www.w3.org/Graphics/SVG/1.1/DTD/svg11.dtd">
<svg version="1.1" id="图层_1" xmlns="http://www.w3.org/2000/svg" xmlns:xlink="http://www.w3.org/1999/xlink" x="0px" y="0px"
	 width="302px" height="411.5px" viewBox="0 0 302 411.5" enable-background="new 0 0 302 411.5" xml:space="preserve">
<text transform="matrix(1 0 0 1 66.7578 128.2627)" font-family="'AdobeSongStd-Light-GBpc-EUC-H'" font-size="14">R00</text>
<rect x="56.144" y="100.763" fill="none" stroke="#000000" stroke-miterlimit="10" width="45" height="45"/>
<text transform="matrix(1 0 0 1 111.7578 128.2627)" font-family="'AdobeSongStd-Light-GBpc-EUC-H'" font-size="14">R01</text>
<rect x="101.144" y="100.763" fill="none" stroke="#000000" stroke-miterlimit="10" width="45" height="45"/>
<text transform="matrix(1 0 0 1 156.7578 128.2627)" font-family="'AdobeSongStd-Light-GBpc-EUC-H'" font-size="14">R02</text>
<rect x="146.144" y="100.763" fill="none" stroke="#000000" stroke-miterlimit="10" width="45" height="45"/>
<text transform="matrix(1 0 0 1 201.7578 128.2627)" font-family="'AdobeSongStd-Light-GBpc-EUC-H'" font-size="14">R03</text>
<rect x="191.145" y="100.763" fill="none" stroke="#000000" stroke-miterlimit="10" width="45" height="45"/>
<text transform="matrix(1 0 0 1 66.7578 172.9629)" font-family="'AdobeSongStd-Light-GBpc-EUC-H'" font-size="14">R10</text>
<rect x="56.144" y="145.463" fill="none" stroke="#000000" stroke-miterlimit="10" width="45" height="45"/>
<text transform="matrix(1 0 0 1 111.7578 172.9629)" font-family="'AdobeSongStd-Light-GBpc-EUC-H'" font-size="14">R11</text>
<rect x="101.144" y="145.463" fill="none" stroke="#000000" stroke-miterlimit="10" width="45" height="45"/>
<text transform="matrix(1 0 0 1 156.7578 172.9629)" font-family="'AdobeSongStd-Light-GBpc-EUC-H'" font-size="14">R12</text>
<rect x="146.144" y="145.463" fill="none" stroke="#000000" stroke-miterlimit="10" width="45" height="45"/>
<text transform="matrix(1 0 0 1 201.7578 172.9629)" font-family="'AdobeSongStd-Light-GBpc-EUC-H'" font-size="14">R13</text>
<rect x="191.145" y="145.463" fill="none" stroke="#000000" stroke-miterlimit="10" width="45" height="45"/>
<text transform="matrix(1 0 0 1 66.7578 217.6641)" font-family="'AdobeSongStd-Light-GBpc-EUC-H'" font-size="14">R20</text>
<rect x="56.144" y="190.163" fill="none" stroke="#000000" stroke-miterlimit="10" width="45" height="45"/>
<text transform="matrix(1 0 0 1 111.7578 217.6641)" font-family="'AdobeSongStd-Light-GBpc-EUC-H'" font-size="14">R21</text>
<rect x="101.144" y="190.163" fill="none" stroke="#000000" stroke-miterlimit="10" width="45" height="45"/>
<text transform="matrix(1 0 0 1 156.7578 217.6641)" font-family="'AdobeSongStd-Light-GBpc-EUC-H'" font-size="14">R22</text>
<rect x="146.144" y="190.163" fill="none" stroke="#000000" stroke-miterlimit="10" width="45" height="45"/>
<text transform="matrix(1 0 0 1 201.7578 217.6641)" font-family="'AdobeSongStd-Light-GBpc-EUC-H'" font-size="14">R23</text>
<rect x="191.145" y="190.163" fill="none" stroke="#000000" stroke-miterlimit="10" width="45" height="45"/>
<text transform="matrix(1 0 0 1 66.7578 262.3643)" font-family="'AdobeSongStd-Light-GBpc-EUC-H'" font-size="14">R20</text>
<rect x="56.144" y="234.864" fill="none" stroke="#000000" stroke-miterlimit="10" width="45" height="45"/>
<text transform="matrix(1 0 0 1 111.7578 262.3643)" font-family="'AdobeSongStd-Light-GBpc-EUC-H'" font-size="14">R21</text>
<rect x="101.144" y="234.864" fill="none" stroke="#000000" stroke-miterlimit="10" width="45" height="45"/>
<text transform="matrix(1 0 0 1 156.7578 262.3643)" font-family="'AdobeSongStd-Light-GBpc-EUC-H'" font-size="14">R22</text>
<rect x="146.144" y="234.864" fill="none" stroke="#000000" stroke-miterlimit="10" width="45" height="45"/>
<text transform="matrix(1 0 0 1 201.7578 262.3643)" font-family="'AdobeSongStd-Light-GBpc-EUC-H'" font-size="14">R23</text>
<rect x="191.145" y="234.864" fill="none" stroke="#000000" stroke-miterlimit="10" width="45" height="45"/>
<text transform="matrix(1 0 0 1 21 220.8467)" font-family="'AdobeSongStd-Light-GBpc-EUC-H'" font-size="14">ptr</text>
<g>
	<g>
		<path fill="none" stroke="#3F1D93" stroke-miterlimit="10" d="M221.828,258.422c0,0-1.031,41.49-8.771,41.49
			c-7.74,0-9.806-79.498-9.806-108.75c0-29.25,3.098-118.903,12.386-119.577c8.069-0.585,6.791,112.53,6.315,142.207"/>
		<g>
			<polygon fill="#3F1D93" points="221.828,220.848 217.908,210.842 221.938,213.26 226.037,210.957 			"/>
		</g>
	</g>
</g>
<g>
	<g>
		<path fill="none" stroke="#3F1D93" stroke-miterlimit="10" d="M131.688,182.203c0,0-1.627,118.031-5.694,118.031
			c-4.068,0-11.392-75.498-11.392-108.75c0-33.25,2.033-118.124,8.543-120.188c5.354-1.698,7.682,55.534,8.336,75.88"/>
		<g>
			<polygon fill="#3F1D93" points="131.688,154.234 127.309,144.418 131.447,146.649 135.436,144.161 			"/>
		</g>
	</g>
</g>
<g>
	<g>
		<path fill="none" stroke="#3F1D93" stroke-miterlimit="10" d="M172.65,141.679c0,0-1.946,159.537-6.229,158.537
			c-4.282-1-9.735-80.498-9.346-108.749c0.389-28.251,1.927-121.123,7.776-120.187c4.188,0.669,6.375,19.11,7.28,29.552"/>
		<g>
			<polygon fill="#3F1D93" points="172.65,107.873 167.795,98.285 172.037,100.31 175.898,97.628 			"/>
		</g>
	</g>
</g>
<text transform="matrix(1 0 0 1 123.1445 353.25)" font-family="'AdobeSongStd-Light-GBpc-EUC-H'" font-size="12">DPA原理</text>
<g>
	<g>
		<path fill="none" stroke="#3F1D93" stroke-miterlimit="10" d="M86.969,225.25c0,0,2.716,74.984-10.072,74.984
			c-12.788,0-8.792-75.984-9.591-74.984c-0.799,1-3.996-153.953,12.788-153.977c14.395-0.02,9.155,94.137,7.372,120.938"/>
		<g>
			<polygon fill="#3F1D93" points="86.969,199.25 83.551,189.061 87.456,191.677 91.664,189.582 			"/>
		</g>
	</g>
</g>
<path fill="none" stroke="#DF1800" stroke-miterlimit="10" d="M37.5,220.848L226.037,53.25c0,0,37.463-20,43.463-11s0,184,0,184
	l-96.85,99"/>
</svg>
