<?xml version="1.0" encoding="utf-8"?>
<!-- Generator: Adobe Illustrator 15.0.0, SVG Export Plug-In . SVG Version: 6.00 Build 0)  -->
<!DOCTYPE svg PUBLIC "-//W3C//DTD SVG 1.1//EN" "http://www.w3.org/Graphics/SVG/1.1/DTD/svg11.dtd">
<svg version="1.1" id="图层_1" xmlns="http://www.w3.org/2000/svg" xmlns:xlink="http://www.w3.org/1999/xlink" x="0px" y="0px"
	 width="764.141px" height="1025.445px" viewBox="0 0 764.141 1025.445" enable-background="new 0 0 764.141 1025.445"
	 xml:space="preserve">
<symbol  id="标注" viewBox="-10.704 -47.23 21.408 94.461">
	<path fill="none" stroke="#000000" stroke-miterlimit="10" d="M-10.704,46.73h9.5V0.77c0,0-1.5-3.038,8.5-2.77s-9-0.73-9-5.73
		s0-39,0-39h-9"/>
</symbol>
<g>
	<rect x="276.64" y="118.47" fill="#FFFFFF" stroke="#000000" stroke-miterlimit="10" width="52" height="64"/>
	<text transform="matrix(1 0 0 1 285.6409 156.4683)" font-family="'ArialMT'" font-size="18">SCO</text>
	<g>
		<g>
			<line fill="none" stroke="#000000" stroke-miterlimit="10" x1="249.64" y1="128.47" x2="269.579" y2="128.47"/>
			<g>
				<polygon points="276.64,128.47 266.691,132.535 269.052,128.47 266.691,124.405 				"/>
			</g>
		</g>
	</g>
	<g>
		<g>
			<line fill="none" stroke="#000000" stroke-miterlimit="10" x1="249.64" y1="142.803" x2="269.579" y2="142.803"/>
			<g>
				<polygon points="276.64,142.803 266.691,146.869 269.052,142.803 266.691,138.739 				"/>
			</g>
		</g>
	</g>
	<g>
		<g>
			<line fill="none" stroke="#000000" stroke-miterlimit="10" x1="249.64" y1="157.136" x2="269.579" y2="157.136"/>
			<g>
				<polygon points="276.64,157.136 266.691,161.202 269.052,157.136 266.691,153.072 				"/>
			</g>
		</g>
	</g>
	<g>
		<g>
			<line fill="none" stroke="#000000" stroke-miterlimit="10" x1="249.64" y1="171.47" x2="269.579" y2="171.47"/>
			<g>
				<polygon points="276.64,171.47 266.691,175.535 269.052,171.47 266.691,167.405 				"/>
			</g>
		</g>
	</g>
	<line fill="none" stroke="#000000" stroke-miterlimit="10" x1="328.64" y1="128.97" x2="355.64" y2="128.97"/>
	<line fill="none" stroke="#000000" stroke-miterlimit="10" x1="328.64" y1="143.303" x2="355.64" y2="143.303"/>
	<line fill="none" stroke="#000000" stroke-miterlimit="10" x1="328.64" y1="157.636" x2="355.64" y2="157.636"/>
	<line fill="none" stroke="#000000" stroke-miterlimit="10" x1="328.64" y1="171.97" x2="355.64" y2="171.97"/>
</g>
<g>
	<rect x="476.64" y="118.47" fill="#FFFFFF" stroke="#000000" stroke-miterlimit="10" width="52" height="64"/>
	<text transform="matrix(1 0 0 1 489.6404 156.4683)" font-family="'ArialMT'" font-size="18">SCI</text>
	<g>
		<g>
			<line fill="none" stroke="#000000" stroke-miterlimit="10" x1="449.64" y1="128.47" x2="469.579" y2="128.47"/>
			<g>
				<polygon points="476.64,128.47 466.691,132.535 469.052,128.47 466.691,124.405 				"/>
			</g>
		</g>
	</g>
	<g>
		<g>
			<line fill="none" stroke="#000000" stroke-miterlimit="10" x1="449.64" y1="142.803" x2="469.579" y2="142.803"/>
			<g>
				<polygon points="476.64,142.803 466.691,146.869 469.052,142.803 466.691,138.739 				"/>
			</g>
		</g>
	</g>
	<g>
		<g>
			<line fill="none" stroke="#000000" stroke-miterlimit="10" x1="449.64" y1="157.136" x2="469.579" y2="157.136"/>
			<g>
				<polygon points="476.64,157.136 466.691,161.202 469.052,157.136 466.691,153.072 				"/>
			</g>
		</g>
	</g>
	<g>
		<g>
			<line fill="none" stroke="#000000" stroke-miterlimit="10" x1="449.64" y1="171.47" x2="469.579" y2="171.47"/>
			<g>
				<polygon points="476.64,171.47 466.691,175.535 469.052,171.47 466.691,167.405 				"/>
			</g>
		</g>
	</g>
	<line fill="none" stroke="#000000" stroke-miterlimit="10" x1="528.64" y1="128.97" x2="555.64" y2="128.97"/>
	<line fill="none" stroke="#000000" stroke-miterlimit="10" x1="528.64" y1="143.303" x2="555.64" y2="143.303"/>
	<line fill="none" stroke="#000000" stroke-miterlimit="10" x1="528.64" y1="157.636" x2="555.64" y2="157.636"/>
	<line fill="none" stroke="#000000" stroke-miterlimit="10" x1="528.64" y1="171.97" x2="555.64" y2="171.97"/>
</g>
<g>
	<rect x="276.64" y="212.47" fill="#FFFFFF" stroke="#000000" stroke-miterlimit="10" width="52" height="64"/>
	<text transform="matrix(1 0 0 1 285.6409 250.4683)" font-family="'ArialMT'" font-size="18">SCO</text>
	<g>
		<g>
			<line fill="none" stroke="#000000" stroke-miterlimit="10" x1="249.64" y1="222.47" x2="269.579" y2="222.47"/>
			<g>
				<polygon points="276.64,222.47 266.691,226.535 269.052,222.47 266.691,218.405 				"/>
			</g>
		</g>
	</g>
	<g>
		<g>
			<line fill="none" stroke="#000000" stroke-miterlimit="10" x1="249.64" y1="236.803" x2="269.579" y2="236.803"/>
			<g>
				<polygon points="276.64,236.803 266.691,240.869 269.052,236.803 266.691,232.739 				"/>
			</g>
		</g>
	</g>
	<g>
		<g>
			<line fill="none" stroke="#000000" stroke-miterlimit="10" x1="249.64" y1="251.137" x2="269.579" y2="251.137"/>
			<g>
				<polygon points="276.64,251.137 266.691,255.202 269.052,251.137 266.691,247.072 				"/>
			</g>
		</g>
	</g>
	<g>
		<g>
			<line fill="none" stroke="#000000" stroke-miterlimit="10" x1="249.64" y1="265.471" x2="269.579" y2="265.471"/>
			<g>
				<polygon points="276.64,265.471 266.691,269.535 269.052,265.471 266.691,261.405 				"/>
			</g>
		</g>
	</g>
	<line fill="none" stroke="#000000" stroke-miterlimit="10" x1="328.64" y1="222.97" x2="355.64" y2="222.97"/>
	<line fill="none" stroke="#000000" stroke-miterlimit="10" x1="328.64" y1="237.303" x2="355.64" y2="237.303"/>
	<line fill="none" stroke="#000000" stroke-miterlimit="10" x1="328.64" y1="251.637" x2="355.64" y2="251.637"/>
	<line fill="none" stroke="#000000" stroke-miterlimit="10" x1="328.64" y1="265.971" x2="355.64" y2="265.971"/>
</g>
<g>
	<rect x="476.64" y="212.47" fill="#FFFFFF" stroke="#000000" stroke-miterlimit="10" width="52" height="64"/>
	<text transform="matrix(0.998 0 0 1 489.6404 250.4995)" font-family="'ArialMT'" font-size="18.0357">SCI</text>
	<g>
		<g>
			<line fill="none" stroke="#000000" stroke-miterlimit="10" x1="449.64" y1="222.47" x2="469.579" y2="222.47"/>
			<g>
				<polygon points="476.64,222.47 466.691,226.535 469.052,222.47 466.691,218.405 				"/>
			</g>
		</g>
	</g>
	<g>
		<g>
			<line fill="none" stroke="#000000" stroke-miterlimit="10" x1="449.64" y1="236.803" x2="469.579" y2="236.803"/>
			<g>
				<polygon points="476.64,236.803 466.691,240.869 469.052,236.803 466.691,232.739 				"/>
			</g>
		</g>
	</g>
	<g>
		<g>
			<line fill="none" stroke="#000000" stroke-miterlimit="10" x1="449.64" y1="251.137" x2="469.579" y2="251.137"/>
			<g>
				<polygon points="476.64,251.137 466.691,255.202 469.052,251.137 466.691,247.072 				"/>
			</g>
		</g>
	</g>
	<g>
		<g>
			<line fill="none" stroke="#000000" stroke-miterlimit="10" x1="449.64" y1="265.471" x2="469.579" y2="265.471"/>
			<g>
				<polygon points="476.64,265.471 466.691,269.535 469.052,265.471 466.691,261.405 				"/>
			</g>
		</g>
	</g>
	<line fill="none" stroke="#000000" stroke-miterlimit="10" x1="528.64" y1="222.97" x2="555.64" y2="222.97"/>
	<line fill="none" stroke="#000000" stroke-miterlimit="10" x1="528.64" y1="237.303" x2="555.64" y2="237.303"/>
	<line fill="none" stroke="#000000" stroke-miterlimit="10" x1="528.64" y1="251.637" x2="555.64" y2="251.637"/>
	<line fill="none" stroke="#000000" stroke-miterlimit="10" x1="528.64" y1="265.971" x2="555.64" y2="265.971"/>
</g>
<g>
	<rect x="276.64" y="306.47" fill="#FFFFFF" stroke="#000000" stroke-miterlimit="10" width="52" height="64"/>
	<text transform="matrix(1 0 0 1 285.6409 344.4683)" font-family="'ArialMT'" font-size="18">SCO</text>
	<g>
		<g>
			<line fill="none" stroke="#000000" stroke-miterlimit="10" x1="249.64" y1="316.47" x2="269.579" y2="316.47"/>
			<g>
				<polygon points="276.64,316.47 266.691,320.535 269.052,316.47 266.691,312.406 				"/>
			</g>
		</g>
	</g>
	<g>
		<g>
			<line fill="none" stroke="#000000" stroke-miterlimit="10" x1="249.64" y1="330.804" x2="269.579" y2="330.804"/>
			<g>
				<polygon points="276.64,330.804 266.691,334.869 269.052,330.804 266.691,326.74 				"/>
			</g>
		</g>
	</g>
	<g>
		<g>
			<line fill="none" stroke="#000000" stroke-miterlimit="10" x1="249.64" y1="345.136" x2="269.579" y2="345.136"/>
			<g>
				<polygon points="276.64,345.136 266.691,349.201 269.052,345.136 266.691,341.072 				"/>
			</g>
		</g>
	</g>
	<g>
		<g>
			<line fill="none" stroke="#000000" stroke-miterlimit="10" x1="249.64" y1="359.47" x2="269.579" y2="359.47"/>
			<g>
				<polygon points="276.64,359.47 266.691,363.535 269.052,359.47 266.691,355.406 				"/>
			</g>
		</g>
	</g>
	<line fill="none" stroke="#000000" stroke-miterlimit="10" x1="328.64" y1="316.97" x2="355.64" y2="316.97"/>
	<line fill="none" stroke="#000000" stroke-miterlimit="10" x1="328.64" y1="331.304" x2="355.64" y2="331.304"/>
	<line fill="none" stroke="#000000" stroke-miterlimit="10" x1="328.64" y1="345.636" x2="355.64" y2="345.636"/>
	<line fill="none" stroke="#000000" stroke-miterlimit="10" x1="328.64" y1="359.97" x2="355.64" y2="359.97"/>
</g>
<g>
	<rect x="476.64" y="306.47" fill="#FFFFFF" stroke="#000000" stroke-miterlimit="10" width="52" height="64"/>
	<text transform="matrix(1 0 0 1 488.6404 344.4683)" font-family="'ArialMT'" font-size="18">SCI</text>
	<g>
		<g>
			<line fill="none" stroke="#000000" stroke-miterlimit="10" x1="449.64" y1="316.47" x2="469.579" y2="316.47"/>
			<g>
				<polygon points="476.64,316.47 466.691,320.535 469.052,316.47 466.691,312.406 				"/>
			</g>
		</g>
	</g>
	<g>
		<g>
			<line fill="none" stroke="#000000" stroke-miterlimit="10" x1="449.64" y1="330.804" x2="469.579" y2="330.804"/>
			<g>
				<polygon points="476.64,330.804 466.691,334.869 469.052,330.804 466.691,326.74 				"/>
			</g>
		</g>
	</g>
	<g>
		<g>
			<line fill="none" stroke="#000000" stroke-miterlimit="10" x1="449.64" y1="345.136" x2="469.579" y2="345.136"/>
			<g>
				<polygon points="476.64,345.136 466.691,349.201 469.052,345.136 466.691,341.072 				"/>
			</g>
		</g>
	</g>
	<g>
		<g>
			<line fill="none" stroke="#000000" stroke-miterlimit="10" x1="449.64" y1="359.47" x2="469.579" y2="359.47"/>
			<g>
				<polygon points="476.64,359.47 466.691,363.535 469.052,359.47 466.691,355.406 				"/>
			</g>
		</g>
	</g>
	<line fill="none" stroke="#000000" stroke-miterlimit="10" x1="528.64" y1="316.97" x2="555.64" y2="316.97"/>
	<line fill="none" stroke="#000000" stroke-miterlimit="10" x1="528.64" y1="331.304" x2="555.64" y2="331.304"/>
	<line fill="none" stroke="#000000" stroke-miterlimit="10" x1="528.64" y1="345.636" x2="555.64" y2="345.636"/>
	<line fill="none" stroke="#000000" stroke-miterlimit="10" x1="528.64" y1="359.97" x2="555.64" y2="359.97"/>
</g>
<g>
	<rect x="276.64" y="400.47" fill="#FFFFFF" stroke="#000000" stroke-miterlimit="10" width="52" height="64"/>
	<text transform="matrix(1 0 0 1 285.6409 438.4702)" font-family="'ArialMT'" font-size="18">SCO</text>
	<g>
		<g>
			<line fill="none" stroke="#000000" stroke-miterlimit="10" x1="249.64" y1="410.47" x2="269.579" y2="410.47"/>
			<g>
				<polygon points="276.64,410.47 266.691,414.535 269.052,410.47 266.691,406.406 				"/>
			</g>
		</g>
	</g>
	<g>
		<g>
			<line fill="none" stroke="#000000" stroke-miterlimit="10" x1="249.64" y1="424.804" x2="269.579" y2="424.804"/>
			<g>
				<polygon points="276.64,424.804 266.691,428.869 269.052,424.804 266.691,420.74 				"/>
			</g>
		</g>
	</g>
	<g>
		<g>
			<line fill="none" stroke="#000000" stroke-miterlimit="10" x1="249.64" y1="439.136" x2="269.579" y2="439.136"/>
			<g>
				<polygon points="276.64,439.136 266.691,443.203 269.052,439.136 266.691,435.072 				"/>
			</g>
		</g>
	</g>
	<g>
		<g>
			<line fill="none" stroke="#000000" stroke-miterlimit="10" x1="249.64" y1="453.47" x2="269.579" y2="453.47"/>
			<g>
				<polygon points="276.64,453.47 266.691,457.535 269.052,453.47 266.691,449.406 				"/>
			</g>
		</g>
	</g>
	<line fill="none" stroke="#000000" stroke-miterlimit="10" x1="328.64" y1="410.97" x2="355.64" y2="410.97"/>
	<line fill="none" stroke="#000000" stroke-miterlimit="10" x1="328.64" y1="425.304" x2="355.64" y2="425.304"/>
	<line fill="none" stroke="#000000" stroke-miterlimit="10" x1="328.64" y1="439.636" x2="355.64" y2="439.636"/>
	<line fill="none" stroke="#000000" stroke-miterlimit="10" x1="328.64" y1="453.97" x2="355.64" y2="453.97"/>
</g>
<g>
	<rect x="476.64" y="400.47" fill="#FFFFFF" stroke="#000000" stroke-miterlimit="10" width="52" height="64"/>
	<text transform="matrix(1 0 0 1 488.6404 438.4702)" font-family="'ArialMT'" font-size="18">SCI</text>
	<g>
		<g>
			<line fill="none" stroke="#000000" stroke-miterlimit="10" x1="449.64" y1="410.47" x2="469.579" y2="410.47"/>
			<g>
				<polygon points="476.64,410.47 466.691,414.535 469.052,410.47 466.691,406.406 				"/>
			</g>
		</g>
	</g>
	<g>
		<g>
			<line fill="none" stroke="#000000" stroke-miterlimit="10" x1="449.64" y1="424.804" x2="469.579" y2="424.804"/>
			<g>
				<polygon points="476.64,424.804 466.691,428.869 469.052,424.804 466.691,420.74 				"/>
			</g>
		</g>
	</g>
	<g>
		<g>
			<line fill="none" stroke="#000000" stroke-miterlimit="10" x1="449.64" y1="439.136" x2="469.579" y2="439.136"/>
			<g>
				<polygon points="476.64,439.136 466.691,443.203 469.052,439.136 466.691,435.072 				"/>
			</g>
		</g>
	</g>
	<g>
		<g>
			<line fill="none" stroke="#000000" stroke-miterlimit="10" x1="449.64" y1="453.47" x2="469.579" y2="453.47"/>
			<g>
				<polygon points="476.64,453.47 466.691,457.535 469.052,453.47 466.691,449.406 				"/>
			</g>
		</g>
	</g>
	<line fill="none" stroke="#000000" stroke-miterlimit="10" x1="528.64" y1="410.97" x2="555.64" y2="410.97"/>
	<line fill="none" stroke="#000000" stroke-miterlimit="10" x1="528.64" y1="425.304" x2="555.64" y2="425.304"/>
	<line fill="none" stroke="#000000" stroke-miterlimit="10" x1="528.64" y1="439.636" x2="555.64" y2="439.636"/>
	<line fill="none" stroke="#000000" stroke-miterlimit="10" x1="528.64" y1="453.97" x2="555.64" y2="453.97"/>
</g>
<line fill="none" stroke="#000000" stroke-miterlimit="10" x1="355.64" y1="128.97" x2="449.64" y2="128.47"/>
<line fill="none" stroke="#000000" stroke-miterlimit="10" x1="355.64" y1="143.303" x2="449.64" y2="222.47"/>
<line fill="none" stroke="#000000" stroke-miterlimit="10" x1="355.64" y1="157.636" x2="449.64" y2="316.47"/>
<line fill="none" stroke="#000000" stroke-miterlimit="10" x1="355.64" y1="171.97" x2="449.64" y2="410.47"/>
<line fill="none" stroke="#000000" stroke-miterlimit="10" x1="355.64" y1="222.97" x2="449.64" y2="142.803"/>
<line fill="none" stroke="#000000" stroke-miterlimit="10" x1="355.64" y1="237.303" x2="449.64" y2="236.803"/>
<line fill="none" stroke="#000000" stroke-miterlimit="10" x1="355.64" y1="251.637" x2="449.64" y2="330.804"/>
<line fill="none" stroke="#000000" stroke-miterlimit="10" x1="355.64" y1="265.971" x2="449.64" y2="424.804"/>
<line fill="none" stroke="#000000" stroke-miterlimit="10" x1="355.64" y1="316.97" x2="449.64" y2="157.136"/>
<line fill="none" stroke="#000000" stroke-miterlimit="10" x1="355.64" y1="331.304" x2="449.64" y2="251.137"/>
<line fill="none" stroke="#000000" stroke-miterlimit="10" x1="355.64" y1="345.636" x2="449.64" y2="345.136"/>
<line fill="none" stroke="#000000" stroke-miterlimit="10" x1="355.64" y1="359.97" x2="449.64" y2="439.136"/>
<line fill="none" stroke="#000000" stroke-miterlimit="10" x1="355.64" y1="410.97" x2="449.64" y2="171.47"/>
<line fill="none" stroke="#000000" stroke-miterlimit="10" x1="355.64" y1="425.304" x2="449.64" y2="265.471"/>
<line fill="none" stroke="#000000" stroke-miterlimit="10" x1="355.64" y1="439.636" x2="449.64" y2="359.47"/>
<line fill="none" stroke="#000000" stroke-miterlimit="10" x1="355.64" y1="453.97" x2="449.64" y2="453.47"/>
<line fill="none" stroke="#000000" stroke-miterlimit="10" x1="155.64" y1="128.97" x2="249.64" y2="128.47"/>
<line fill="none" stroke="#000000" stroke-miterlimit="10" x1="155.64" y1="143.303" x2="249.64" y2="222.47"/>
<line fill="none" stroke="#000000" stroke-miterlimit="10" x1="155.64" y1="157.636" x2="249.64" y2="316.47"/>
<line fill="none" stroke="#000000" stroke-miterlimit="10" x1="155.64" y1="171.97" x2="249.64" y2="410.47"/>
<line fill="none" stroke="#000000" stroke-miterlimit="10" x1="155.64" y1="222.97" x2="249.64" y2="142.803"/>
<line fill="none" stroke="#000000" stroke-miterlimit="10" x1="155.64" y1="237.303" x2="249.64" y2="236.803"/>
<line fill="none" stroke="#000000" stroke-miterlimit="10" x1="155.64" y1="251.637" x2="249.64" y2="330.804"/>
<line fill="none" stroke="#000000" stroke-miterlimit="10" x1="155.64" y1="265.971" x2="249.64" y2="424.804"/>
<line fill="none" stroke="#000000" stroke-miterlimit="10" x1="155.64" y1="316.97" x2="249.64" y2="157.136"/>
<line fill="none" stroke="#000000" stroke-miterlimit="10" x1="155.64" y1="331.304" x2="249.64" y2="251.137"/>
<line fill="none" stroke="#000000" stroke-miterlimit="10" x1="155.64" y1="345.636" x2="249.64" y2="345.136"/>
<line fill="none" stroke="#000000" stroke-miterlimit="10" x1="155.64" y1="359.97" x2="249.64" y2="439.136"/>
<line fill="none" stroke="#000000" stroke-miterlimit="10" x1="155.64" y1="410.97" x2="249.64" y2="171.47"/>
<line fill="none" stroke="#000000" stroke-miterlimit="10" x1="155.64" y1="425.304" x2="249.64" y2="265.471"/>
<line fill="none" stroke="#000000" stroke-miterlimit="10" x1="155.64" y1="439.636" x2="249.64" y2="359.47"/>
<line fill="none" stroke="#000000" stroke-miterlimit="10" x1="155.64" y1="453.97" x2="249.64" y2="453.47"/>
<line fill="none" stroke="#000000" stroke-miterlimit="10" x1="128.64" y1="128.97" x2="155.64" y2="128.97"/>
<line fill="none" stroke="#000000" stroke-miterlimit="10" x1="128.64" y1="143.303" x2="155.64" y2="143.303"/>
<line fill="none" stroke="#000000" stroke-miterlimit="10" x1="128.64" y1="157.636" x2="155.64" y2="157.636"/>
<line fill="none" stroke="#000000" stroke-miterlimit="10" x1="128.64" y1="171.97" x2="155.64" y2="171.97"/>
<line fill="none" stroke="#000000" stroke-miterlimit="10" x1="128.64" y1="222.97" x2="155.64" y2="222.97"/>
<line fill="none" stroke="#000000" stroke-miterlimit="10" x1="128.64" y1="237.303" x2="155.64" y2="237.303"/>
<line fill="none" stroke="#000000" stroke-miterlimit="10" x1="128.64" y1="251.637" x2="155.64" y2="251.637"/>
<line fill="none" stroke="#000000" stroke-miterlimit="10" x1="128.64" y1="265.971" x2="155.64" y2="265.971"/>
<line fill="none" stroke="#000000" stroke-miterlimit="10" x1="128.64" y1="316.97" x2="155.64" y2="316.97"/>
<line fill="none" stroke="#000000" stroke-miterlimit="10" x1="128.64" y1="331.304" x2="155.64" y2="331.304"/>
<line fill="none" stroke="#000000" stroke-miterlimit="10" x1="128.64" y1="345.636" x2="155.64" y2="345.636"/>
<line fill="none" stroke="#000000" stroke-miterlimit="10" x1="128.64" y1="359.97" x2="155.64" y2="359.97"/>
<line fill="none" stroke="#000000" stroke-miterlimit="10" x1="128.64" y1="410.97" x2="155.64" y2="410.97"/>
<line fill="none" stroke="#000000" stroke-miterlimit="10" x1="128.64" y1="425.304" x2="155.64" y2="425.304"/>
<line fill="none" stroke="#000000" stroke-miterlimit="10" x1="128.64" y1="439.636" x2="155.64" y2="439.636"/>
<line fill="none" stroke="#000000" stroke-miterlimit="10" x1="128.64" y1="453.97" x2="155.64" y2="453.97"/>
<text transform="matrix(1 0 0 1 70.1394 156.4683)" font-family="'ArialMT'" font-size="18">R0[3:0]</text>
<text transform="matrix(0.9669 0 -0.2551 0.9669 61.1394 48.4692)" font-family="'ArialMT'" font-size="18.6159">4x4 ESLIP</text>
<text transform="matrix(0.9669 0 -0.2551 0.9669 61.1394 48.4692)" fill="none" stroke="#000000" stroke-width="0.25" stroke-miterlimit="10" font-family="'ArialMT'" font-size="18.6159">4x4 ESLIP</text>
<text transform="matrix(1 0 0 1 625.1394 156.4683)" font-family="'ArialMT'" font-size="18">G0[3:0]</text>
<text transform="matrix(1 0 0 1 625.1394 251.7603)" font-family="'ArialMT'" font-size="18">G1[3:0]</text>
<text transform="matrix(1 0 0 1 625.1394 345.7593)" font-family="'ArialMT'" font-size="18">G2[3:0]</text>
<text transform="matrix(1 0 0 1 625.1394 438.4702)" font-family="'ArialMT'" font-size="18">G3[3:0]</text>
<text transform="matrix(1 0 0 1 308.3904 985.4702)" enable-background="new    "><tspan x="0" y="0" font-family="'ArialMT'" font-size="18">ESLIP</tspan><tspan x="51.029" y="0" font-family="'AdobeSongStd-Light-GBpc-EUC-H'" font-size="18">结构与调度</tspan></text>
<text transform="matrix(1 0 0 1 633.1394 549.4702)" font-family="'ArialMT'" font-size="18">SCO/SCI</text>
<text transform="matrix(1 0 0 1 177.6394 124.4048)" font-family="'ArialMT'" font-size="14">M pri</text>
<text transform="matrix(1 0 0 1 70.1394 251.6353)" font-family="'ArialMT'" font-size="18">R1[3:0]</text>
<text transform="matrix(1 0 0 1 70.1394 345.6353)" font-family="'ArialMT'" font-size="18">R2[3:0]</text>
<text transform="matrix(1 0 0 1 70.1394 438.4702)" font-family="'ArialMT'" font-size="18">R3[3:0]</text>
<line fill="none" stroke="#000000" stroke-miterlimit="10" x1="173.139" y1="120.72" x2="166.639" y2="138.739"/>
<text transform="matrix(1 0 0 1 389.6394 123.145)" font-family="'ArialMT'" font-size="14">N pri</text>
<text transform="matrix(0.9734 0 0 1 397.1394 80.145)" font-family="'ArialMT'" font-size="14">update</text>
<line fill="none" stroke="#000000" stroke-miterlimit="10" x1="385.139" y1="119.46" x2="378.639" y2="137.479"/>
<line fill="none" stroke="#000000" stroke-width="3" stroke-miterlimit="10" x1="555.64" y1="453.97" x2="555.64" y2="67.72"/>
<g>
	<line fill="none" stroke="#000000" stroke-miterlimit="10" x1="545.639" y1="128.47" x2="555.64" y2="119.46"/>
	<line fill="none" stroke="#000000" stroke-miterlimit="10" x1="545.639" y1="143.244" x2="555.64" y2="134.234"/>
	<line fill="none" stroke="#000000" stroke-miterlimit="10" x1="545.639" y1="157.577" x2="555.64" y2="148.567"/>
	<line fill="none" stroke="#000000" stroke-miterlimit="10" x1="545.639" y1="171.91" x2="555.64" y2="162.9"/>
</g>
<g>
	<line fill="none" stroke="#000000" stroke-miterlimit="10" x1="545.639" y1="222.653" x2="555.64" y2="213.645"/>
	<line fill="none" stroke="#000000" stroke-miterlimit="10" x1="545.639" y1="237.427" x2="555.64" y2="228.418"/>
	<line fill="none" stroke="#000000" stroke-miterlimit="10" x1="545.639" y1="251.761" x2="555.64" y2="242.751"/>
	<line fill="none" stroke="#000000" stroke-miterlimit="10" x1="545.639" y1="266.094" x2="555.64" y2="257.084"/>
</g>
<g>
	<line fill="none" stroke="#000000" stroke-miterlimit="10" x1="545.639" y1="316.652" x2="555.64" y2="307.644"/>
	<line fill="none" stroke="#000000" stroke-miterlimit="10" x1="545.639" y1="331.427" x2="555.64" y2="322.417"/>
	<line fill="none" stroke="#000000" stroke-miterlimit="10" x1="545.639" y1="345.759" x2="555.64" y2="336.75"/>
	<line fill="none" stroke="#000000" stroke-miterlimit="10" x1="545.639" y1="360.093" x2="555.64" y2="351.083"/>
</g>
<g>
	<line fill="none" stroke="#000000" stroke-miterlimit="10" x1="545.639" y1="410.652" x2="555.64" y2="401.644"/>
	<line fill="none" stroke="#000000" stroke-miterlimit="10" x1="545.639" y1="425.427" x2="555.64" y2="416.417"/>
	<line fill="none" stroke="#000000" stroke-miterlimit="10" x1="545.639" y1="439.759" x2="555.64" y2="430.75"/>
	<line fill="none" stroke="#000000" stroke-miterlimit="10" x1="545.639" y1="454.093" x2="555.64" y2="445.083"/>
</g>
<line fill="none" stroke="#000000" stroke-width="3" stroke-miterlimit="10" x1="555.64" y1="67.72" x2="302.64" y2="67.72"/>
<g>
	<g>
		<line fill="none" stroke="#000000" stroke-miterlimit="10" x1="302.64" y1="67.72" x2="302.64" y2="111.409"/>
		<g>
			<polygon points="302.64,118.47 298.575,108.521 302.64,110.881 306.705,108.521 			"/>
		</g>
	</g>
</g>
<g>
	<g>
		<line fill="none" stroke="#000000" stroke-miterlimit="10" x1="302.64" y1="182.886" x2="302.64" y2="205.409"/>
		<g>
			<polygon points="302.64,212.47 298.575,202.521 302.64,204.881 306.705,202.521 			"/>
		</g>
	</g>
</g>
<g>
	<g>
		<line fill="none" stroke="#000000" stroke-miterlimit="10" x1="302.64" y1="276.429" x2="302.64" y2="298.951"/>
		<g>
			<polygon points="302.64,306.013 298.575,296.064 302.64,298.423 306.705,296.064 			"/>
		</g>
	</g>
</g>
<g>
	<g>
		<line fill="none" stroke="#000000" stroke-miterlimit="10" x1="302.64" y1="371.429" x2="302.64" y2="393.951"/>
		<g>
			<polygon points="302.64,401.013 298.575,391.064 302.64,393.423 306.705,391.064 			"/>
		</g>
	</g>
</g>
<g>
	<g>
		<g>
			<line fill="none" stroke="#000000" stroke-miterlimit="10" x1="555.64" y1="128.97" x2="611.079" y2="128.97"/>
			<g>
				<polygon points="618.139,128.97 608.19,133.035 610.552,128.97 608.19,124.905 				"/>
			</g>
		</g>
	</g>
	<g>
		<g>
			<line fill="none" stroke="#000000" stroke-miterlimit="10" x1="555.64" y1="143.136" x2="611.079" y2="143.136"/>
			<g>
				<polygon points="618.139,143.136 608.19,147.202 610.552,143.136 608.19,139.072 				"/>
			</g>
		</g>
	</g>
	<g>
		<g>
			<line fill="none" stroke="#000000" stroke-miterlimit="10" x1="555.64" y1="157.303" x2="611.079" y2="157.303"/>
			<g>
				<polygon points="618.139,157.303 608.19,161.369 610.552,157.303 608.19,153.239 				"/>
			</g>
		</g>
	</g>
	<g>
		<g>
			<line fill="none" stroke="#000000" stroke-miterlimit="10" x1="555.64" y1="171.47" x2="611.079" y2="171.47"/>
			<g>
				<polygon points="618.139,171.47 608.19,175.535 610.552,171.47 608.19,167.405 				"/>
			</g>
		</g>
	</g>
</g>
<g>
	<g>
		<g>
			<line fill="none" stroke="#000000" stroke-miterlimit="10" x1="555.64" y1="223.22" x2="611.079" y2="223.22"/>
			<g>
				<polygon points="618.139,223.22 608.19,227.285 610.552,223.22 608.19,219.155 				"/>
			</g>
		</g>
	</g>
	<g>
		<g>
			<line fill="none" stroke="#000000" stroke-miterlimit="10" x1="555.64" y1="237.386" x2="611.079" y2="237.386"/>
			<g>
				<polygon points="618.139,237.386 608.19,241.452 610.552,237.386 608.19,233.322 				"/>
			</g>
		</g>
	</g>
	<g>
		<g>
			<line fill="none" stroke="#000000" stroke-miterlimit="10" x1="555.64" y1="251.554" x2="611.079" y2="251.554"/>
			<g>
				<polygon points="618.139,251.554 608.19,255.619 610.552,251.554 608.19,247.489 				"/>
			</g>
		</g>
	</g>
	<g>
		<g>
			<line fill="none" stroke="#000000" stroke-miterlimit="10" x1="555.64" y1="265.721" x2="611.079" y2="265.721"/>
			<g>
				<polygon points="618.139,265.721 608.19,269.785 610.552,265.721 608.19,261.655 				"/>
			</g>
		</g>
	</g>
</g>
<g>
	<g>
		<g>
			<line fill="none" stroke="#000000" stroke-miterlimit="10" x1="555.64" y1="317.22" x2="611.079" y2="317.22"/>
			<g>
				<polygon points="618.139,317.22 608.19,321.285 610.552,317.22 608.19,313.156 				"/>
			</g>
		</g>
	</g>
	<g>
		<g>
			<line fill="none" stroke="#000000" stroke-miterlimit="10" x1="555.64" y1="331.386" x2="611.079" y2="331.386"/>
			<g>
				<polygon points="618.139,331.386 608.19,335.451 610.552,331.386 608.19,327.322 				"/>
			</g>
		</g>
	</g>
	<g>
		<g>
			<line fill="none" stroke="#000000" stroke-miterlimit="10" x1="555.64" y1="345.554" x2="611.079" y2="345.554"/>
			<g>
				<polygon points="618.139,345.554 608.19,349.619 610.552,345.554 608.19,341.49 				"/>
			</g>
		</g>
	</g>
	<g>
		<g>
			<line fill="none" stroke="#000000" stroke-miterlimit="10" x1="555.64" y1="359.72" x2="611.079" y2="359.72"/>
			<g>
				<polygon points="618.139,359.72 608.19,363.785 610.552,359.72 608.19,355.656 				"/>
			</g>
		</g>
	</g>
</g>
<g>
	<g>
		<g>
			<line fill="none" stroke="#000000" stroke-miterlimit="10" x1="555.64" y1="411.22" x2="611.079" y2="411.22"/>
			<g>
				<polygon points="618.139,411.22 608.19,415.285 610.552,411.22 608.19,407.156 				"/>
			</g>
		</g>
	</g>
	<g>
		<g>
			<line fill="none" stroke="#000000" stroke-miterlimit="10" x1="555.64" y1="425.386" x2="611.079" y2="425.386"/>
			<g>
				<polygon points="618.139,425.386 608.19,429.451 610.552,425.386 608.19,421.322 				"/>
			</g>
		</g>
	</g>
	<g>
		<g>
			<line fill="none" stroke="#000000" stroke-miterlimit="10" x1="555.64" y1="439.554" x2="611.079" y2="439.554"/>
			<g>
				<polygon points="618.139,439.554 608.19,443.619 610.552,439.554 608.19,435.49 				"/>
			</g>
		</g>
	</g>
	<g>
		<g>
			<line fill="none" stroke="#000000" stroke-miterlimit="10" x1="555.64" y1="453.72" x2="611.079" y2="453.72"/>
			<g>
				<polygon points="618.139,453.72 608.19,457.785 610.552,453.72 608.19,449.656 				"/>
			</g>
		</g>
	</g>
</g>
<g>
	<g>
		<polyline fill="none" stroke="#000000" stroke-width="3" stroke-miterlimit="10" points="722.139,492.72 722.139,498.72 
			716.139,498.72 		"/>
		<line fill="none" stroke="#000000" stroke-width="3" stroke-miterlimit="10" x1="704.139" y1="498.72" x2="62.139" y2="498.72"/>
		<polyline fill="none" stroke="#000000" stroke-width="3" stroke-miterlimit="10" points="56.139,498.72 50.139,498.72 
			50.139,492.72 		"/>
		<line fill="none" stroke="#000000" stroke-width="3" stroke-miterlimit="10" x1="50.139" y1="480.951" x2="50.139" y2="39.605"/>
		<polyline fill="none" stroke="#000000" stroke-width="3" stroke-miterlimit="10" points="50.139,33.72 50.139,27.72 56.139,27.72 
					"/>
		<line fill="none" stroke="#000000" stroke-width="3" stroke-miterlimit="10" x1="68.139" y1="27.72" x2="710.139" y2="27.72"/>
		<polyline fill="none" stroke="#000000" stroke-width="3" stroke-miterlimit="10" points="716.139,27.72 722.139,27.72 
			722.139,33.72 		"/>
		
			<line fill="none" stroke="#000000" stroke-width="3" stroke-miterlimit="10" x1="722.139" y1="45.489" x2="722.139" y2="486.835"/>
	</g>
</g>
<line fill="none" stroke="#000000" stroke-miterlimit="10" x1="264.39" y1="558.82" x2="308.39" y2="558.82"/>
<line fill="none" stroke="#000000" stroke-miterlimit="10" x1="375.96" y1="575.07" x2="419.96" y2="575.07"/>
<text transform="matrix(1 0 0 1 125.3904 562.8198)" font-family="'AdobeSongStd-Light-GBpc-EUC-H'" font-size="14">unimatch input #1</text>
<line fill="none" stroke="#000000" stroke-miterlimit="10" x1="264.39" y1="589.82" x2="308.39" y2="589.82"/>
<text transform="matrix(1 0 0 1 125.3904 593.8198)" font-family="'AdobeSongStd-Light-GBpc-EUC-H'" font-size="14">unimatch input #S</text>
<text transform="matrix(1 0 0 1 183.3904 576.3198)" font-family="'AdobeSongStd-Light-GBpc-EUC-H'" font-size="18">...</text>
<ellipse fill="none" stroke="#231815" stroke-miterlimit="10" cx="357.96" cy="575.07" rx="18" ry="12.25"/>
<text transform="matrix(1 0 0 1 348.5291 578.8198)" font-family="'AdobeSongStd-Light-GBpc-EUC-H'" font-size="14">RR</text>
<ellipse fill="none" stroke="#231815" stroke-miterlimit="10" cx="479.14" cy="628.57" rx="22.75" ry="12.25"/>
<text transform="matrix(1 0 0 1 460.9597 633.3198)" font-family="'AdobeSongStd-Light-GBpc-EUC-H'" font-size="14">WRR</text>
<ellipse fill="none" stroke="#231815" stroke-miterlimit="10" cx="611.105" cy="738.57" rx="31.465" ry="12.25"/>
<text transform="matrix(1 0 0 1 586.2087 743.3198)" font-family="'AdobeSongStd-Light-GBpc-EUC-H'" font-size="14">SP/WRR</text>
<g>
	<g>
		<line fill="none" stroke="#231815" stroke-miterlimit="10" x1="308.39" y1="558.82" x2="334.938" y2="572.485"/>
		<g>
			<polygon fill="#231815" points="339.96,575.07 331.394,574.319 334.562,572.292 334.371,568.536 			"/>
		</g>
	</g>
</g>
<g>
	<g>
		<line fill="none" stroke="#231815" stroke-miterlimit="10" x1="419.959" y1="575.32" x2="453.201" y2="623.908"/>
		<g>
			<polygon fill="#231815" points="456.39,628.57 449.212,623.837 452.963,623.559 454.58,620.165 			"/>
		</g>
	</g>
</g>
<g>
	<g>
		<line fill="none" stroke="#231815" stroke-miterlimit="10" x1="538.425" y1="628.445" x2="577.66" y2="733.28"/>
		<g>
			<polygon fill="#231815" points="579.639,738.57 573.803,732.255 577.511,732.884 579.895,729.976 			"/>
		</g>
	</g>
</g>
<g>
	<g>
		
			<line fill="none" stroke="#231815" stroke-miterlimit="10" stroke-dasharray="8,8" x1="419.959" y1="681.57" x2="453.191" y2="633.224"/>
		<g>
			<polygon fill="#231815" points="456.39,628.57 454.562,636.971 452.952,633.573 449.202,633.288 			"/>
		</g>
	</g>
</g>
<g>
	<g>
		<line fill="none" stroke="#231815" stroke-miterlimit="10" x1="538.816" y1="843.445" x2="577.591" y2="743.833"/>
		<g>
			<polygon fill="#231815" points="579.639,738.57 579.783,747.167 577.437,744.227 573.722,744.807 			"/>
		</g>
	</g>
</g>
<g>
	<g>
		<line fill="none" stroke="#231815" stroke-miterlimit="10" x1="418.959" y1="628.445" x2="450.742" y2="628.445"/>
		<g>
			<polygon fill="#231815" points="456.39,628.445 448.431,631.697 450.32,628.445 448.431,625.193 			"/>
		</g>
	</g>
</g>
<g>
	<g>
		<line fill="none" stroke="#231815" stroke-miterlimit="10" x1="642.57" y1="738.57" x2="674.353" y2="738.57"/>
		<g>
			<polygon fill="#231815" points="680.002,738.57 672.043,741.822 673.931,738.57 672.043,735.318 			"/>
		</g>
	</g>
</g>
<line fill="none" stroke="#231815" stroke-miterlimit="10" x1="501.459" y1="628.445" x2="538.89" y2="628.445"/>
<g>
	<g>
		<line fill="none" stroke="#231815" stroke-miterlimit="10" x1="308.39" y1="589.82" x2="334.843" y2="577.46"/>
		<g>
			<polygon fill="#231815" points="339.96,575.07 334.125,581.385 334.46,577.639 331.372,575.494 			"/>
		</g>
	</g>
</g>
<line fill="none" stroke="#000000" stroke-miterlimit="10" x1="263.606" y1="612.32" x2="307.606" y2="612.32"/>
<line fill="none" stroke="#000000" stroke-miterlimit="10" x1="375.176" y1="628.57" x2="419.176" y2="628.57"/>
<text transform="matrix(1 0 0 1 124.6057 616.3198)" font-family="'AdobeSongStd-Light-GBpc-EUC-H'" font-size="14">anymatch input #1</text>
<line fill="none" stroke="#000000" stroke-miterlimit="10" x1="263.606" y1="643.32" x2="307.606" y2="643.32"/>
<text transform="matrix(1 0 0 1 124.6057 647.3198)" font-family="'AdobeSongStd-Light-GBpc-EUC-H'" font-size="14">anymatch input #S</text>
<text transform="matrix(1 0 0 1 182.6057 629.8198)" font-family="'AdobeSongStd-Light-GBpc-EUC-H'" font-size="18">...</text>
<ellipse fill="none" stroke="#231815" stroke-miterlimit="10" cx="357.175" cy="628.57" rx="18" ry="12.25"/>
<text transform="matrix(1 0 0 1 347.7444 632.3198)" font-family="'AdobeSongStd-Light-GBpc-EUC-H'" font-size="14">RR</text>
<g>
	<g>
		<line fill="none" stroke="#231815" stroke-miterlimit="10" x1="307.606" y1="612.32" x2="334.153" y2="625.985"/>
		<g>
			<polygon fill="#231815" points="339.175,628.57 330.61,627.819 333.778,625.792 333.586,622.036 			"/>
		</g>
	</g>
</g>
<g>
	<g>
		<line fill="none" stroke="#231815" stroke-miterlimit="10" x1="307.606" y1="643.32" x2="334.058" y2="630.96"/>
		<g>
			<polygon fill="#231815" points="339.175,628.57 333.341,634.885 333.675,631.139 330.588,628.994 			"/>
		</g>
	</g>
</g>
<g>
	<g>
		<line fill="none" stroke="#000000" stroke-miterlimit="10" x1="264.39" y1="665.32" x2="268.39" y2="665.32"/>
		
			<line fill="none" stroke="#000000" stroke-miterlimit="10" stroke-dasharray="7.2,7.2" x1="275.591" y1="665.32" x2="300.79" y2="665.32"/>
		<line fill="none" stroke="#000000" stroke-miterlimit="10" x1="304.39" y1="665.32" x2="308.39" y2="665.32"/>
	</g>
</g>
<line fill="none" stroke="#000000" stroke-miterlimit="10" stroke-dasharray="8" x1="375.961" y1="681.57" x2="419.961" y2="681.57"/>
<text transform="matrix(1 0 0 1 116.3904 669.3198)" font-family="'AdobeSongStd-Light-GBpc-EUC-H'" font-size="14">multimatch input #1</text>
<g>
	<g>
		<line fill="none" stroke="#000000" stroke-miterlimit="10" x1="264.39" y1="696.32" x2="268.39" y2="696.32"/>
		
			<line fill="none" stroke="#000000" stroke-miterlimit="10" stroke-dasharray="7.2,7.2" x1="275.591" y1="696.32" x2="300.79" y2="696.32"/>
		<line fill="none" stroke="#000000" stroke-miterlimit="10" x1="304.39" y1="696.32" x2="308.39" y2="696.32"/>
	</g>
</g>
<text transform="matrix(1 0 0 1 116.3904 700.3198)" font-family="'AdobeSongStd-Light-GBpc-EUC-H'" font-size="14">multimatch input #S</text>
<text transform="matrix(1 0 0 1 179.3904 682.8198)" font-family="'AdobeSongStd-Light-GBpc-EUC-H'" font-size="18">...</text>
<text transform="matrix(4.489659e-011 -1 1 4.489659e-011 302.6057 750.8198)" font-family="'AdobeSongStd-Light-GBpc-EUC-H'" font-size="24">......</text>
<ellipse fill="none" stroke="#231815" stroke-miterlimit="10" cx="357.96" cy="681.57" rx="18" ry="12.25"/>
<text transform="matrix(1 0 0 1 348.5291 685.3198)" font-family="'AdobeSongStd-Light-GBpc-EUC-H'" font-size="14">RR</text>
<g>
	<g>
		<line fill="none" stroke="#231815" stroke-miterlimit="10" x1="308.39" y1="665.32" x2="311.947" y2="667.151"/>
		
			<line fill="none" stroke="#231815" stroke-miterlimit="10" stroke-dasharray="7.2859,7.2859" x1="318.425" y1="670.485" x2="328.142" y2="675.487"/>
		<line fill="none" stroke="#231815" stroke-miterlimit="10" x1="331.381" y1="677.154" x2="334.938" y2="678.985"/>
		<g>
			<polygon fill="#231815" points="339.96,681.57 331.394,680.819 334.562,678.792 334.371,675.036 			"/>
		</g>
	</g>
</g>
<g>
	<g>
		<line fill="none" stroke="#231815" stroke-miterlimit="10" x1="308.39" y1="696.32" x2="312.014" y2="694.626"/>
		
			<line fill="none" stroke="#231815" stroke-miterlimit="10" stroke-dasharray="7.0656,7.0656" x1="318.416" y1="691.636" x2="328.018" y2="687.15"/>
		<line fill="none" stroke="#231815" stroke-miterlimit="10" x1="331.219" y1="685.654" x2="334.843" y2="683.96"/>
		<g>
			<polygon fill="#231815" points="339.96,681.57 334.125,687.885 334.46,684.139 331.372,681.994 			"/>
		</g>
	</g>
</g>
<line fill="none" stroke="#000000" stroke-miterlimit="10" x1="264.39" y1="773.82" x2="308.39" y2="773.82"/>
<line fill="none" stroke="#000000" stroke-miterlimit="10" x1="375.96" y1="790.07" x2="419.96" y2="790.07"/>
<text transform="matrix(1 0 0 1 125.3904 777.8198)" font-family="'AdobeSongStd-Light-GBpc-EUC-H'" font-size="14">unimatch input #1</text>
<text transform="matrix(1 0 0 1 34.3904 634.3198)" font-family="'AdobeSongStd-Light-GBpc-EUC-H'" font-size="14">cos #1</text>
<line fill="none" stroke="#000000" stroke-miterlimit="10" x1="264.39" y1="804.82" x2="308.39" y2="804.82"/>
<text transform="matrix(1 0 0 1 125.3904 808.8198)" font-family="'AdobeSongStd-Light-GBpc-EUC-H'" font-size="14">unimatch input #S</text>
<text transform="matrix(1 0 0 1 183.3904 791.3198)" font-family="'AdobeSongStd-Light-GBpc-EUC-H'" font-size="18">...</text>
<ellipse fill="none" stroke="#231815" stroke-miterlimit="10" cx="357.96" cy="790.07" rx="18" ry="12.25"/>
<text transform="matrix(1 0 0 1 348.5291 793.8198)" font-family="'AdobeSongStd-Light-GBpc-EUC-H'" font-size="14">RR</text>
<ellipse fill="none" stroke="#231815" stroke-miterlimit="10" cx="479.14" cy="843.57" rx="22.75" ry="12.25"/>
<text transform="matrix(1 0 0 1 460.9597 848.3198)" font-family="'AdobeSongStd-Light-GBpc-EUC-H'" font-size="14">WRR</text>
<g>
	<g>
		<line fill="none" stroke="#231815" stroke-miterlimit="10" x1="308.39" y1="773.82" x2="334.938" y2="787.485"/>
		<g>
			<polygon fill="#231815" points="339.96,790.07 331.394,789.319 334.562,787.292 334.371,783.536 			"/>
		</g>
	</g>
</g>
<g>
	<g>
		<line fill="none" stroke="#231815" stroke-miterlimit="10" x1="419.959" y1="790.32" x2="453.201" y2="838.908"/>
		<g>
			<polygon fill="#231815" points="456.39,843.57 449.212,838.837 452.963,838.559 454.58,835.165 			"/>
		</g>
	</g>
</g>
<g>
	<g>
		
			<line fill="none" stroke="#231815" stroke-miterlimit="10" stroke-dasharray="8,8" x1="419.959" y1="896.57" x2="453.191" y2="848.225"/>
		<g>
			<polygon fill="#231815" points="456.39,843.57 454.562,851.971 452.952,848.573 449.202,848.288 			"/>
		</g>
	</g>
</g>
<g>
	<g>
		<line fill="none" stroke="#231815" stroke-miterlimit="10" x1="418.959" y1="843.445" x2="450.742" y2="843.445"/>
		<g>
			<polygon fill="#231815" points="456.39,843.445 448.431,846.697 450.32,843.445 448.431,840.193 			"/>
		</g>
	</g>
</g>
<line fill="none" stroke="#231815" stroke-miterlimit="10" x1="501.459" y1="843.445" x2="538.89" y2="843.445"/>
<g>
	<g>
		<line fill="none" stroke="#231815" stroke-miterlimit="10" x1="308.39" y1="804.82" x2="334.843" y2="792.46"/>
		<g>
			<polygon fill="#231815" points="339.96,790.07 334.125,796.385 334.46,792.639 331.372,790.494 			"/>
		</g>
	</g>
</g>
<line fill="none" stroke="#000000" stroke-miterlimit="10" x1="263.606" y1="827.32" x2="307.606" y2="827.32"/>
<line fill="none" stroke="#000000" stroke-miterlimit="10" x1="375.176" y1="843.57" x2="419.176" y2="843.57"/>
<text transform="matrix(1 0 0 1 124.6057 831.3198)" font-family="'AdobeSongStd-Light-GBpc-EUC-H'" font-size="14">anymatch input #1</text>
<line fill="none" stroke="#000000" stroke-miterlimit="10" x1="263.606" y1="858.32" x2="307.606" y2="858.32"/>
<text transform="matrix(1 0 0 1 124.6057 862.3198)" font-family="'AdobeSongStd-Light-GBpc-EUC-H'" font-size="14">anymatch input #S</text>
<text transform="matrix(1 0 0 1 182.6057 844.8198)" font-family="'AdobeSongStd-Light-GBpc-EUC-H'" font-size="18">...</text>
<ellipse fill="none" stroke="#231815" stroke-miterlimit="10" cx="357.175" cy="843.57" rx="18" ry="12.25"/>
<text transform="matrix(1 0 0 1 347.7444 847.3198)" font-family="'AdobeSongStd-Light-GBpc-EUC-H'" font-size="14">RR</text>
<g>
	<g>
		<line fill="none" stroke="#231815" stroke-miterlimit="10" x1="307.606" y1="827.32" x2="334.153" y2="840.985"/>
		<g>
			<polygon fill="#231815" points="339.175,843.57 330.61,842.819 333.778,840.792 333.586,837.036 			"/>
		</g>
	</g>
</g>
<g>
	<g>
		<line fill="none" stroke="#231815" stroke-miterlimit="10" x1="307.606" y1="858.32" x2="334.058" y2="845.96"/>
		<g>
			<polygon fill="#231815" points="339.175,843.57 333.341,849.885 333.675,846.139 330.588,843.994 			"/>
		</g>
	</g>
</g>
<line fill="none" stroke="#000000" stroke-miterlimit="10" stroke-dasharray="8" x1="264.39" y1="880.32" x2="308.39" y2="880.32"/>
<line fill="none" stroke="#000000" stroke-miterlimit="10" stroke-dasharray="8" x1="375.961" y1="896.57" x2="419.961" y2="896.57"/>
<text transform="matrix(1 0 0 1 116.3904 884.3198)" font-family="'AdobeSongStd-Light-GBpc-EUC-H'" font-size="14">multimatch input #1</text>
<line fill="none" stroke="#000000" stroke-miterlimit="10" stroke-dasharray="8" x1="264.39" y1="911.32" x2="308.39" y2="911.32"/>
<text transform="matrix(1 0 0 1 116.3904 915.3198)" font-family="'AdobeSongStd-Light-GBpc-EUC-H'" font-size="14">multimatch input #S</text>
<text transform="matrix(1 0 0 1 179.3904 897.8198)" font-family="'AdobeSongStd-Light-GBpc-EUC-H'" font-size="18">...</text>
<ellipse fill="none" stroke="#231815" stroke-miterlimit="10" cx="357.96" cy="896.57" rx="18" ry="12.25"/>
<text transform="matrix(1 0 0 1 348.5291 900.3198)" font-family="'AdobeSongStd-Light-GBpc-EUC-H'" font-size="14">RR</text>
<g>
	<g>
		
			<line fill="none" stroke="#231815" stroke-miterlimit="10" stroke-dasharray="8,8" x1="308.39" y1="880.32" x2="334.938" y2="893.985"/>
		<g>
			<polygon fill="#231815" points="339.96,896.57 331.394,895.819 334.562,893.792 334.371,890.036 			"/>
		</g>
	</g>
</g>
<g>
	<g>
		
			<line fill="none" stroke="#231815" stroke-miterlimit="10" stroke-dasharray="8,8" x1="308.39" y1="911.32" x2="334.843" y2="898.96"/>
		<g>
			<polygon fill="#231815" points="339.96,896.57 334.125,902.885 334.46,899.139 331.372,896.993 			"/>
		</g>
	</g>
</g>
<rect x="29.57" y="527.445" fill="none" stroke="#000000" stroke-miterlimit="10" width="686.569" height="411"/>
<path fill="none" stroke="#E73119" stroke-miterlimit="10" d="M438.175,661.445c0,12.194,10.191,22.063,22.785,22.063"/>
<text transform="matrix(1 0 0 1 462.9597 688.9448)" font-family="'AdobeSongStd-Light-GBpc-EUC-H'" font-size="14">SCI无</text>
<use xlink:href="#标注"  width="21.408" height="94.461" x="-10.704" y="-47.23" transform="matrix(-1 0 0 -1.5688 93.2742 626.4546)" overflow="visible" enable-background="new    "/>
<text transform="matrix(1 0 0 1 32.3455 852.6851)" font-family="'AdobeSongStd-Light-GBpc-EUC-H'" font-size="14">cos #K</text>
<use xlink:href="#标注"  width="21.408" height="94.461" x="-10.704" y="-47.23" transform="matrix(-1 0 0 -1.5688 91.2292 844.8198)" overflow="visible" enable-background="new    "/>
</svg>
