<?xml version="1.0" encoding="utf-8"?>
<!-- Generator: Adobe Illustrator 15.0.0, SVG Export Plug-In . SVG Version: 6.00 Build 0)  -->
<!DOCTYPE svg PUBLIC "-//W3C//DTD SVG 1.1//EN" "http://www.w3.org/Graphics/SVG/1.1/DTD/svg11.dtd">
<svg version="1.1" id="图层_1" xmlns="http://www.w3.org/2000/svg" xmlns:xlink="http://www.w3.org/1999/xlink" x="0px" y="0px"
	 width="302px" height="411.5px" viewBox="0 0 302 411.5" enable-background="new 0 0 302 411.5" xml:space="preserve">
<text transform="matrix(1 0 0 1 66.7578 128.2627)" font-family="'AdobeSongStd-Light-GBpc-EUC-H'" font-size="14">R00</text>
<rect x="56.144" y="100.763" fill="none" stroke="#000000" stroke-miterlimit="10" width="45" height="45"/>
<text transform="matrix(1 0 0 1 111.7578 128.2627)" font-family="'AdobeSongStd-Light-GBpc-EUC-H'" font-size="14">R01</text>
<rect x="101.144" y="100.763" fill="none" stroke="#000000" stroke-miterlimit="10" width="45" height="45"/>
<text transform="matrix(1 0 0 1 156.7578 128.2627)" font-family="'AdobeSongStd-Light-GBpc-EUC-H'" font-size="14">R02</text>
<rect x="146.144" y="100.763" fill="none" stroke="#000000" stroke-miterlimit="10" width="45" height="45"/>
<text transform="matrix(1 0 0 1 201.7578 128.2627)" font-family="'AdobeSongStd-Light-GBpc-EUC-H'" font-size="14">R03</text>
<rect x="191.145" y="100.763" fill="none" stroke="#000000" stroke-miterlimit="10" width="45" height="45"/>
<text transform="matrix(1 0 0 1 66.7578 172.9629)" font-family="'AdobeSongStd-Light-GBpc-EUC-H'" font-size="14">R10</text>
<rect x="56.144" y="145.463" fill="none" stroke="#000000" stroke-miterlimit="10" width="45" height="45"/>
<text transform="matrix(1 0 0 1 111.7578 172.9629)" font-family="'AdobeSongStd-Light-GBpc-EUC-H'" font-size="14">R11</text>
<rect x="101.144" y="145.463" fill="none" stroke="#000000" stroke-miterlimit="10" width="45" height="45"/>
<text transform="matrix(1 0 0 1 156.7578 172.9629)" font-family="'AdobeSongStd-Light-GBpc-EUC-H'" font-size="14">R12</text>
<rect x="146.144" y="145.463" fill="none" stroke="#000000" stroke-miterlimit="10" width="45" height="45"/>
<text transform="matrix(1 0 0 1 201.7578 172.9629)" font-family="'AdobeSongStd-Light-GBpc-EUC-H'" font-size="14">R13</text>
<rect x="191.145" y="145.463" fill="none" stroke="#000000" stroke-miterlimit="10" width="45" height="45"/>
<text transform="matrix(1 0 0 1 66.7578 217.6641)" font-family="'AdobeSongStd-Light-GBpc-EUC-H'" font-size="14">R20</text>
<rect x="56.144" y="190.163" fill="none" stroke="#000000" stroke-miterlimit="10" width="45" height="45"/>
<text transform="matrix(1 0 0 1 111.7578 217.6641)" font-family="'AdobeSongStd-Light-GBpc-EUC-H'" font-size="14">R21</text>
<rect x="101.144" y="190.163" fill="none" stroke="#000000" stroke-miterlimit="10" width="45" height="45"/>
<text transform="matrix(1 0 0 1 156.7578 217.6641)" font-family="'AdobeSongStd-Light-GBpc-EUC-H'" font-size="14">R22</text>
<rect x="146.144" y="190.163" fill="none" stroke="#000000" stroke-miterlimit="10" width="45" height="45"/>
<text transform="matrix(1 0 0 1 201.7578 217.6641)" font-family="'AdobeSongStd-Light-GBpc-EUC-H'" font-size="14">R23</text>
<rect x="191.145" y="190.163" fill="none" stroke="#000000" stroke-miterlimit="10" width="45" height="45"/>
<text transform="matrix(1 0 0 1 66.7578 262.3643)" font-family="'AdobeSongStd-Light-GBpc-EUC-H'" font-size="14">R20</text>
<rect x="56.144" y="234.864" fill="none" stroke="#000000" stroke-miterlimit="10" width="45" height="45"/>
<text transform="matrix(1 0 0 1 111.7578 262.3643)" font-family="'AdobeSongStd-Light-GBpc-EUC-H'" font-size="14">R21</text>
<rect x="101.144" y="234.864" fill="none" stroke="#000000" stroke-miterlimit="10" width="45" height="45"/>
<text transform="matrix(1 0 0 1 156.7578 262.3643)" font-family="'AdobeSongStd-Light-GBpc-EUC-H'" font-size="14">R22</text>
<rect x="146.144" y="234.864" fill="none" stroke="#000000" stroke-miterlimit="10" width="45" height="45"/>
<text transform="matrix(1 0 0 1 201.7578 262.3643)" font-family="'AdobeSongStd-Light-GBpc-EUC-H'" font-size="14">R23</text>
<rect x="191.145" y="234.864" fill="none" stroke="#000000" stroke-miterlimit="10" width="45" height="45"/>
<text transform="matrix(1 0 0 1 59.6001 316.7119)" font-family="'AdobeSongStd-Light-GBpc-EUC-H'" font-size="14">cptr[0]</text>
<text transform="matrix(1 0 0 1 253.0996 125.7119)" font-family="'AdobeSongStd-Light-GBpc-EUC-H'" font-size="14">rptr[0]</text>
<text transform="matrix(1 0 0 1 253.0996 172.9629)" font-family="'AdobeSongStd-Light-GBpc-EUC-H'" font-size="14">rptr[1]</text>
<text transform="matrix(1 0 0 1 253.0996 214.9795)" font-family="'AdobeSongStd-Light-GBpc-EUC-H'" font-size="14">rptr[2]</text>
<text transform="matrix(1 0 0 1 253.0996 262.3643)" font-family="'AdobeSongStd-Light-GBpc-EUC-H'" font-size="14">rptr[3]</text>
<text transform="matrix(1 0 0 1 103.3164 316.7119)" font-family="'AdobeSongStd-Light-GBpc-EUC-H'" font-size="14">cptr[1]</text>
<text transform="matrix(1 0 0 1 151.7734 316.7119)" font-family="'AdobeSongStd-Light-GBpc-EUC-H'" font-size="14">cptr[2]</text>
<text transform="matrix(1 0 0 1 193.7734 316.7119)" font-family="'AdobeSongStd-Light-GBpc-EUC-H'" font-size="14">cptr[3]</text>
<g>
	<g>
		<path fill="none" stroke="#3F1D93" stroke-miterlimit="10" d="M88.84,173.963c0,0-4.003,125.949-9.481,125.949
			S67.56,218.414,67.138,191.163C66.716,163.912,70.087,72.26,79.359,71.586c7.656-0.557,9.134,59.229,9.415,80.068"/>
		<g>
			<polygon fill="#3F1D93" points="88.84,158.712 84.646,148.816 88.741,151.124 92.775,148.711 			"/>
		</g>
	</g>
</g>
<g>
	<g>
		<path fill="none" stroke="#3F1D93" stroke-miterlimit="10" d="M130.728,257.557c0,0-1.032,41.49-8.771,41.49
			c-7.74,0-9.805-79.498-9.805-108.75c0-29.25,3.097-118.903,12.385-119.577c8.069-0.585,6.791,112.53,6.316,142.206"/>
		<g>
			<polygon fill="#3F1D93" points="130.728,219.982 126.807,209.977 130.838,212.395 134.936,210.093 			"/>
		</g>
	</g>
</g>
<g>
	<g>
		<path fill="none" stroke="#3F1D93" stroke-miterlimit="10" d="M176.688,182.203c0,0-1.627,118.031-5.694,118.031
			c-4.068,0-11.392-75.498-11.392-108.75c0-33.25,2.033-118.124,8.543-120.188c5.354-1.698,7.682,55.534,8.336,75.88"/>
		<g>
			<polygon fill="#3F1D93" points="176.688,154.234 172.309,144.418 176.447,146.649 180.436,144.161 			"/>
		</g>
	</g>
</g>
<g>
	<g>
		<path fill="none" stroke="#3F1D93" stroke-miterlimit="10" d="M217.65,141.679c0,0-1.946,159.537-6.229,158.537
			c-4.282-1-9.735-80.498-9.346-108.749c0.389-28.251,1.927-121.123,7.776-120.187c4.188,0.669,6.375,19.11,7.28,29.552"/>
		<g>
			<polygon fill="#3F1D93" points="217.65,107.873 212.795,98.285 217.037,100.31 220.898,97.628 			"/>
		</g>
	</g>
</g>
<g>
	<g>
		<path fill="none" stroke="#00BF02" stroke-miterlimit="10" d="M118.569,132.783c0,0-77.52-1.057-77.52-11.524
			c0-10.467,101.041-11.241,101.041-11.241s105,4.47,105,12.229c0,6.532-74.399,9.532-97.943,10.318"/>
		<g>
			<polygon fill="#3F1D93" stroke="#00BF02" stroke-miterlimit="10" points="142.091,132.783 151.897,128.384 149.676,132.527 
				152.172,136.509 			"/>
		</g>
	</g>
</g>
<text transform="matrix(1 0 0 1 120.8491 359.25)" font-family="'AdobeSongStd-Light-GBpc-EUC-H'" font-size="12">Eslip原理</text>
<g>
	<g>
		<path fill="none" stroke="#00BF02" stroke-miterlimit="10" d="M75.5,184.882c0,0-33.901-5.207-34.451-16.919
			s105.095-14.251,105.095-14.251s99.536,3.632,100.946,15.585c1.247,10.574-122.258,15.914-153.539,15.875"/>
		<g>
			<polygon fill="#00BF02" points="86.5,184.882 96.59,181.181 94.083,185.158 96.295,189.306 			"/>
		</g>
	</g>
</g>
<g>
	<g>
		<path fill="none" stroke="#00BF02" stroke-miterlimit="10" d="M152.773,228.25c0,0-111.175-5.047-111.724-18.273
			s105.095-13.727,105.095-13.727s101.036,4,100.946,16c-0.071,9.578-42.498,14.06-59.616,15.479"/>
		<g>
			<polygon fill="#00BF02" points="180.436,228.25 190.038,223.422 188.001,227.659 190.671,231.527 			"/>
		</g>
	</g>
</g>
<g>
	<g>
		<path fill="none" stroke="#00BF02" stroke-miterlimit="10" d="M152.778,273.363c0,0-111.175-5.047-111.724-18.273
			s105.095-13.727,105.095-13.727s101.036,4,100.946,16c-0.071,9.578-42.498,14.061-59.616,15.479"/>
		<g>
			<polygon fill="#00BF02" points="180.44,273.363 190.043,268.535 188.006,272.773 190.676,276.641 			"/>
		</g>
	</g>
</g>
</svg>
