<?xml version="1.0" encoding="utf-8"?>
<!-- Generator: Adobe Illustrator 15.0.0, SVG Export Plug-In . SVG Version: 6.00 Build 0)  -->
<!DOCTYPE svg PUBLIC "-//W3C//DTD SVG 1.1//EN" "http://www.w3.org/Graphics/SVG/1.1/DTD/svg11.dtd">
<svg version="1.1" id="图层_1" xmlns="http://www.w3.org/2000/svg" xmlns:xlink="http://www.w3.org/1999/xlink" x="0px" y="0px"
	 width="378px" height="294px" viewBox="0 0 378 294" enable-background="new 0 0 378 294" xml:space="preserve">
<g>
	<g>
		<line fill="none" stroke="#000000" stroke-miterlimit="10" x1="86" y1="188" x2="295.939" y2="188"/>
		<g>
			<polygon points="303,188 293.051,192.065 295.412,188 293.051,183.936 			"/>
		</g>
	</g>
</g>
<g>
	<g>
		<line fill="none" stroke="#000000" stroke-miterlimit="10" x1="86" y1="188" x2="86" y2="33.061"/>
		<g>
			<polygon points="86,26 90.065,35.949 86,33.588 81.936,35.949 			"/>
		</g>
	</g>
</g>
<text transform="matrix(1 0 0 1 273 207)" font-family="'AdobeSongStd-Light-GBpc-EUC-H'" font-size="14">迭代次数</text>
<text transform="matrix(1 0 0 1 93 203)" font-family="'AdobeSongStd-Light-GBpc-EUC-H'" font-size="14">收敛点</text>
<text transform="matrix(1 0 0 1 97 36)" font-family="'AdobeSongStd-Light-GBpc-EUC-H'" font-size="14">匹配个数</text>
<text transform="matrix(1 0 0 1 102 254)" font-family="'AdobeSongStd-Light-GBpc-EUC-H'" font-size="18">迭代次数VS匹配效率</text>
<text transform="matrix(1 0 0 1 34.5 87.7451)" font-family="'AdobeSongStd-Light-GBpc-EUC-H'" font-size="12">极大匹配</text>
<path fill="none" stroke="#E94328" stroke-miterlimit="10" d="M87.25,186.25c0,0,8.75-88.25,25.5-88.75s58-10,163.5-9.75"/>
<g>
	<g>
		<line fill="none" stroke="#000000" stroke-miterlimit="10" x1="86" y1="82.25" x2="90" y2="82.25"/>
		
			<line fill="none" stroke="#000000" stroke-miterlimit="10" stroke-dasharray="8.0652,8.0652" x1="98.065" y1="82.25" x2="271.468" y2="82.25"/>
		<line fill="none" stroke="#000000" stroke-miterlimit="10" x1="275.5" y1="82.25" x2="279.5" y2="82.25"/>
	</g>
</g>
<g>
	<g>
		<line fill="none" stroke="#000000" stroke-miterlimit="10" x1="112.75" y1="97.5" x2="112.75" y2="101.5"/>
		
			<line fill="none" stroke="#000000" stroke-miterlimit="10" stroke-dasharray="7.5,7.5" x1="112.75" y1="109" x2="112.75" y2="180.25"/>
		<line fill="none" stroke="#000000" stroke-miterlimit="10" x1="112.75" y1="184" x2="112.75" y2="188"/>
	</g>
</g>
</svg>
