<?xml version="1.0" encoding="utf-8"?>
<!-- Generator: Adobe Illustrator 15.0.0, SVG Export Plug-In . SVG Version: 6.00 Build 0)  -->
<!DOCTYPE svg PUBLIC "-//W3C//DTD SVG 1.1//EN" "http://www.w3.org/Graphics/SVG/1.1/DTD/svg11.dtd">
<svg version="1.1" id="图层_1" xmlns="http://www.w3.org/2000/svg" xmlns:xlink="http://www.w3.org/1999/xlink" x="0px" y="0px"
	 width="1206px" height="584px" viewBox="0 0 1206 584" enable-background="new 0 0 1206 584" xml:space="preserve">
<g>
	<rect x="345.506" y="125.327" fill="#FFFFFF" stroke="#000000" stroke-miterlimit="10" width="52" height="64"/>
	<text transform="matrix(1 0 0 1 356.5071 160.3252)" font-family="'AdobeSongStd-Light-GBpc-EUC-H'" font-size="18">SC0</text>
	<g>
		<g>
			<line fill="none" stroke="#000000" stroke-miterlimit="10" x1="318.506" y1="135.327" x2="338.446" y2="135.327"/>
			<g>
				<polygon points="345.506,135.327 335.557,139.392 337.918,135.327 335.557,131.262 				"/>
			</g>
		</g>
	</g>
	<g>
		<g>
			<line fill="none" stroke="#000000" stroke-miterlimit="10" x1="318.506" y1="149.659" x2="338.446" y2="149.659"/>
			<g>
				<polygon points="345.506,149.659 335.557,153.726 337.918,149.659 335.557,145.596 				"/>
			</g>
		</g>
	</g>
	<g>
		<g>
			<line fill="none" stroke="#000000" stroke-miterlimit="10" x1="318.506" y1="178.327" x2="338.446" y2="178.327"/>
			<g>
				<polygon points="345.506,178.327 335.557,182.392 337.918,178.327 335.557,174.262 				"/>
			</g>
		</g>
	</g>
	<line fill="none" stroke="#000000" stroke-miterlimit="10" x1="397.506" y1="135.827" x2="424.506" y2="135.827"/>
	<line fill="none" stroke="#000000" stroke-miterlimit="10" x1="397.506" y1="150.159" x2="424.506" y2="150.159"/>
	<line fill="none" stroke="#000000" stroke-miterlimit="10" x1="397.506" y1="178.827" x2="424.506" y2="178.827"/>
	<text transform="matrix(1 0 0 1 365.4412 175.2617)" font-family="'AdobeSongStd-Light-GBpc-EUC-H'" font-size="12">#1</text>
	<text transform="matrix(1 0 0 1 401.9363 165.8086)" font-family="'AdobeSongStd-Light-GBpc-EUC-H'" font-size="12">...</text>
	<text transform="matrix(1 0 0 1 322.4363 165.8086)" font-family="'AdobeSongStd-Light-GBpc-EUC-H'" font-size="12">...</text>
</g>
<g>
	<rect x="901.506" y="125.327" fill="#FFFFFF" stroke="#000000" stroke-miterlimit="10" width="52" height="64"/>
	<text transform="matrix(1 0 0 1 912.5061 160.3252)" font-family="'AdobeSongStd-Light-GBpc-EUC-H'" font-size="18">SCx</text>
	<g>
		<g>
			<line fill="none" stroke="#000000" stroke-miterlimit="10" x1="874.506" y1="135.327" x2="894.445" y2="135.327"/>
			<g>
				<polygon points="901.506,135.327 891.557,139.392 893.918,135.327 891.557,131.262 				"/>
			</g>
		</g>
	</g>
	<g>
		<g>
			<line fill="none" stroke="#000000" stroke-miterlimit="10" x1="874.506" y1="149.659" x2="894.445" y2="149.659"/>
			<g>
				<polygon points="901.506,149.659 891.557,153.726 893.918,149.659 891.557,145.596 				"/>
			</g>
		</g>
	</g>
	<g>
		<g>
			<line fill="none" stroke="#000000" stroke-miterlimit="10" x1="874.506" y1="178.327" x2="894.445" y2="178.327"/>
			<g>
				<polygon points="901.506,178.327 891.557,182.392 893.918,178.327 891.557,174.262 				"/>
			</g>
		</g>
	</g>
	<line fill="none" stroke="#000000" stroke-miterlimit="10" x1="953.506" y1="135.827" x2="980.506" y2="135.827"/>
	<line fill="none" stroke="#000000" stroke-miterlimit="10" x1="953.506" y1="150.159" x2="980.506" y2="150.159"/>
	<line fill="none" stroke="#000000" stroke-miterlimit="10" x1="953.506" y1="178.827" x2="980.506" y2="178.827"/>
	<text transform="matrix(1 0 0 1 877.5061 164.4922)" font-family="'AdobeSongStd-Light-GBpc-EUC-H'" font-size="12">...</text>
	<text transform="matrix(1 0 0 1 922.9417 178.8262)" font-family="'AdobeSongStd-Light-GBpc-EUC-H'" font-size="12">#1</text>
</g>
<g>
	<rect x="345.506" y="219.327" fill="#FFFFFF" stroke="#000000" stroke-miterlimit="10" width="52" height="64"/>
	<text transform="matrix(1 0 0 1 356.5071 251.3252)" font-family="'AdobeSongStd-Light-GBpc-EUC-H'" font-size="18">SC0</text>
	<g>
		<g>
			<line fill="none" stroke="#000000" stroke-miterlimit="10" x1="318.506" y1="229.327" x2="338.446" y2="229.327"/>
			<g>
				<polygon points="345.506,229.327 335.557,233.392 337.918,229.327 335.557,225.262 				"/>
			</g>
		</g>
	</g>
	<g>
		<g>
			<line fill="none" stroke="#000000" stroke-miterlimit="10" x1="318.506" y1="243.659" x2="338.446" y2="243.659"/>
			<g>
				<polygon points="345.506,243.659 335.557,247.726 337.918,243.659 335.557,239.596 				"/>
			</g>
		</g>
	</g>
	<g>
		<g>
			<line fill="none" stroke="#000000" stroke-miterlimit="10" x1="318.506" y1="272.327" x2="338.446" y2="272.327"/>
			<g>
				<polygon points="345.506,272.327 335.557,276.391 337.918,272.327 335.557,268.262 				"/>
			</g>
		</g>
	</g>
	<line fill="none" stroke="#000000" stroke-miterlimit="10" x1="397.506" y1="229.827" x2="424.506" y2="229.827"/>
	<line fill="none" stroke="#000000" stroke-miterlimit="10" x1="397.506" y1="244.159" x2="424.506" y2="244.159"/>
	<line fill="none" stroke="#000000" stroke-miterlimit="10" x1="397.506" y1="272.827" x2="424.506" y2="272.827"/>
	<text transform="matrix(1 0 0 1 365.4412 268.4453)" font-family="'AdobeSongStd-Light-GBpc-EUC-H'" font-size="12">#2</text>
	<text transform="matrix(1 0 0 1 402.9363 259.4922)" font-family="'AdobeSongStd-Light-GBpc-EUC-H'" font-size="12">...</text>
	<text transform="matrix(1.0726 0 0 1 322.4358 258.6963)" font-family="'AdobeSongStd-Light-GBpc-EUC-H'" font-size="11.1874">...</text>
</g>
<g>
	<rect x="901.506" y="219.327" fill="#FFFFFF" stroke="#000000" stroke-miterlimit="10" width="52" height="64"/>
	<text transform="matrix(0.998 0 0 1 913.5061 252.3555)" font-family="'AdobeSongStd-Light-GBpc-EUC-H'" font-size="18.0357">SCx</text>
	<g>
		<g>
			<line fill="none" stroke="#000000" stroke-miterlimit="10" x1="874.506" y1="229.327" x2="894.445" y2="229.327"/>
			<g>
				<polygon points="901.506,229.327 891.557,233.392 893.918,229.327 891.557,225.262 				"/>
			</g>
		</g>
	</g>
	<g>
		<g>
			<line fill="none" stroke="#000000" stroke-miterlimit="10" x1="874.506" y1="243.659" x2="894.445" y2="243.659"/>
			<g>
				<polygon points="901.506,243.659 891.557,247.726 893.918,243.659 891.557,239.596 				"/>
			</g>
		</g>
	</g>
	<g>
		<g>
			<line fill="none" stroke="#000000" stroke-miterlimit="10" x1="874.506" y1="272.327" x2="894.445" y2="272.327"/>
			<g>
				<polygon points="901.506,272.327 891.557,276.391 893.918,272.327 891.557,268.262 				"/>
			</g>
		</g>
	</g>
	<line fill="none" stroke="#000000" stroke-miterlimit="10" x1="953.506" y1="229.827" x2="980.506" y2="229.827"/>
	<line fill="none" stroke="#000000" stroke-miterlimit="10" x1="953.506" y1="244.159" x2="980.506" y2="244.159"/>
	<line fill="none" stroke="#000000" stroke-miterlimit="10" x1="953.506" y1="272.827" x2="980.506" y2="272.827"/>
	<text transform="matrix(1.0052 0 0 1 879.5061 258.0938)" font-family="'AdobeSongStd-Light-GBpc-EUC-H'" font-size="11.9374">...</text>
	<text transform="matrix(1 0 0 1 922.9417 272.8262)" font-family="'AdobeSongStd-Light-GBpc-EUC-H'" font-size="12">#2</text>
</g>
<g>
	<rect x="345.506" y="407.326" fill="#FFFFFF" stroke="#000000" stroke-miterlimit="10" width="52" height="64"/>
	<text transform="matrix(1 0 0 1 356.5071 440.3271)" font-family="'AdobeSongStd-Light-GBpc-EUC-H'" font-size="18">SC0</text>
	<g>
		<g>
			<line fill="none" stroke="#000000" stroke-miterlimit="10" x1="318.506" y1="417.326" x2="338.446" y2="417.326"/>
			<g>
				<polygon points="345.506,417.326 335.557,421.391 337.918,417.326 335.557,413.262 				"/>
			</g>
		</g>
	</g>
	<g>
		<g>
			<line fill="none" stroke="#000000" stroke-miterlimit="10" x1="318.506" y1="431.66" x2="338.446" y2="431.66"/>
			<g>
				<polygon points="345.506,431.66 335.557,435.725 337.918,431.66 335.557,427.596 				"/>
			</g>
		</g>
	</g>
	<g>
		<g>
			<line fill="none" stroke="#000000" stroke-miterlimit="10" x1="318.506" y1="460.326" x2="338.446" y2="460.326"/>
			<g>
				<polygon points="345.506,460.326 335.557,464.391 337.918,460.326 335.557,456.262 				"/>
			</g>
		</g>
	</g>
	<line fill="none" stroke="#000000" stroke-miterlimit="10" x1="397.506" y1="417.826" x2="424.506" y2="417.826"/>
	<line fill="none" stroke="#000000" stroke-miterlimit="10" x1="397.506" y1="432.16" x2="424.506" y2="432.16"/>
	<line fill="none" stroke="#000000" stroke-miterlimit="10" x1="397.506" y1="460.826" x2="424.506" y2="460.826"/>
	<text transform="matrix(1 0 0 1 365.4412 459.9883)" font-family="'AdobeSongStd-Light-GBpc-EUC-H'" font-size="12">#a</text>
	<text transform="matrix(1 0 0 1 401.9363 446.8086)" font-family="'AdobeSongStd-Light-GBpc-EUC-H'" font-size="12">...</text>
	<text transform="matrix(1.0504 0 0 1 322.4358 446.2451)" font-family="'AdobeSongStd-Light-GBpc-EUC-H'" font-size="11.4243">...</text>
</g>
<g>
	<rect x="901.506" y="407.326" fill="#FFFFFF" stroke="#000000" stroke-miterlimit="10" width="52" height="64"/>
	<text transform="matrix(1 0 0 1 913.5061 440.3271)" font-family="'AdobeSongStd-Light-GBpc-EUC-H'" font-size="18">SCx</text>
	<g>
		<g>
			<line fill="none" stroke="#000000" stroke-miterlimit="10" x1="874.506" y1="417.326" x2="894.445" y2="417.326"/>
			<g>
				<polygon points="901.506,417.326 891.557,421.391 893.918,417.326 891.557,413.262 				"/>
			</g>
		</g>
	</g>
	<g>
		<g>
			<line fill="none" stroke="#000000" stroke-miterlimit="10" x1="874.506" y1="431.66" x2="894.445" y2="431.66"/>
			<g>
				<polygon points="901.506,431.66 891.557,435.725 893.918,431.66 891.557,427.596 				"/>
			</g>
		</g>
	</g>
	<g>
		<g>
			<line fill="none" stroke="#000000" stroke-miterlimit="10" x1="874.506" y1="460.326" x2="894.445" y2="460.326"/>
			<g>
				<polygon points="901.506,460.326 891.557,464.391 893.918,460.326 891.557,456.262 				"/>
			</g>
		</g>
	</g>
	<line fill="none" stroke="#000000" stroke-miterlimit="10" x1="953.506" y1="417.826" x2="980.506" y2="417.826"/>
	<line fill="none" stroke="#000000" stroke-miterlimit="10" x1="953.506" y1="432.16" x2="980.506" y2="432.16"/>
	<line fill="none" stroke="#000000" stroke-miterlimit="10" x1="953.506" y1="460.826" x2="980.506" y2="460.826"/>
	<text transform="matrix(1 0 0 1 879.5061 446.8086)" font-family="'AdobeSongStd-Light-GBpc-EUC-H'" font-size="12">...</text>
	<text transform="matrix(1 0 0 1 922.9417 459.9883)" font-family="'AdobeSongStd-Light-GBpc-EUC-H'" font-size="12">#z</text>
</g>
<line fill="none" stroke="#000000" stroke-miterlimit="10" x1="424.506" y1="135.827" x2="518.506" y2="135.327"/>
<line fill="none" stroke="#000000" stroke-miterlimit="10" x1="424.506" y1="150.159" x2="518.506" y2="229.327"/>
<line fill="none" stroke="#000000" stroke-miterlimit="10" x1="424.506" y1="178.827" x2="518.506" y2="417.326"/>
<line fill="none" stroke="#000000" stroke-miterlimit="10" x1="424.506" y1="229.827" x2="518.506" y2="149.659"/>
<line fill="none" stroke="#000000" stroke-miterlimit="10" x1="424.506" y1="244.159" x2="518.506" y2="243.659"/>
<line fill="none" stroke="#000000" stroke-miterlimit="10" x1="424.506" y1="272.827" x2="518.506" y2="431.66"/>
<line fill="none" stroke="#000000" stroke-miterlimit="10" x1="424.506" y1="417.826" x2="518.506" y2="178.327"/>
<line fill="none" stroke="#000000" stroke-miterlimit="10" x1="424.506" y1="460.826" x2="518.506" y2="460.326"/>
<line fill="none" stroke="#000000" stroke-miterlimit="10" x1="224.506" y1="135.827" x2="318.506" y2="135.327"/>
<line fill="none" stroke="#000000" stroke-miterlimit="10" x1="224.506" y1="150.159" x2="318.506" y2="229.327"/>
<line fill="none" stroke="#000000" stroke-miterlimit="10" x1="224.506" y1="178.827" x2="318.506" y2="417.326"/>
<line fill="none" stroke="#000000" stroke-miterlimit="10" x1="224.506" y1="229.827" x2="318.506" y2="149.659"/>
<line fill="none" stroke="#000000" stroke-miterlimit="10" x1="224.506" y1="244.159" x2="318.506" y2="243.659"/>
<line fill="none" stroke="#000000" stroke-miterlimit="10" x1="224.506" y1="272.827" x2="318.506" y2="431.66"/>
<line fill="none" stroke="#000000" stroke-miterlimit="10" x1="224.506" y1="417.826" x2="318.506" y2="178.327"/>
<line fill="none" stroke="#000000" stroke-miterlimit="10" x1="224.506" y1="432.16" x2="318.506" y2="272.327"/>
<line fill="none" stroke="#000000" stroke-miterlimit="10" x1="224.506" y1="460.826" x2="318.506" y2="460.326"/>
<line fill="none" stroke="#000000" stroke-miterlimit="10" x1="197.506" y1="135.827" x2="224.506" y2="135.827"/>
<line fill="none" stroke="#000000" stroke-miterlimit="10" x1="197.506" y1="150.159" x2="224.506" y2="150.159"/>
<line fill="none" stroke="#000000" stroke-miterlimit="10" x1="197.506" y1="178.827" x2="224.506" y2="178.827"/>
<line fill="none" stroke="#000000" stroke-miterlimit="10" x1="197.506" y1="229.827" x2="224.506" y2="229.827"/>
<line fill="none" stroke="#000000" stroke-miterlimit="10" x1="197.506" y1="244.159" x2="224.506" y2="244.159"/>
<line fill="none" stroke="#000000" stroke-miterlimit="10" x1="197.506" y1="272.827" x2="224.506" y2="272.827"/>
<line fill="none" stroke="#000000" stroke-miterlimit="10" x1="197.506" y1="417.826" x2="224.506" y2="417.826"/>
<line fill="none" stroke="#000000" stroke-miterlimit="10" x1="197.506" y1="432.16" x2="224.506" y2="432.16"/>
<line fill="none" stroke="#000000" stroke-miterlimit="10" x1="197.506" y1="460.826" x2="224.506" y2="460.826"/>
<text transform="matrix(1 0 0 1 97.1477 154.8442)" font-family="'AdobeSongStd-Light-GBpc-EUC-H'" font-size="18">R0[M][z]</text>
<text transform="matrix(1 0 0 1 98.6492 249.6763)" font-family="'AdobeSongStd-Light-GBpc-EUC-H'" font-size="18">R1[M][z]</text>
<text transform="matrix(1 0 0 1 98.6492 436.8477)" font-family="'AdobeSongStd-Light-GBpc-EUC-H'" font-size="18">Ry[M][z]</text>
<text transform="matrix(0.9669 0 -0.2551 0.9669 60.7737 56.3252)" font-family="'AdobeSongStd-Light-GBpc-EUC-H'" font-size="18.6159">MSLIP</text>
<text transform="matrix(1 0 0 1 1050.0051 163.3252)" font-family="'AdobeSongStd-Light-GBpc-EUC-H'" font-size="18">G0[M][z]</text>
<text transform="matrix(1 0 0 1 1050.0051 258.6172)" font-family="'AdobeSongStd-Light-GBpc-EUC-H'" font-size="18">G1[M][z]</text>
<text transform="matrix(1 0 0 1 1050.0051 445.3271)" font-family="'AdobeSongStd-Light-GBpc-EUC-H'" font-size="18">Gy[M][z]</text>
<text transform="matrix(1 0 0 1 246.5051 131.2607)" font-family="'AdobeSongStd-Light-GBpc-EUC-H'" font-size="14">M pri</text>
<text transform="matrix(1 0 0 1 278.5051 87.001)" font-family="'AdobeSongStd-Light-GBpc-EUC-H'" font-size="12">仲裁节点</text>
<text transform="matrix(1 0 0 1 151.0496 99.1763)" font-family="'AdobeSongStd-Light-GBpc-EUC-H'" font-size="12">请求</text>
<text transform="matrix(1 0 0 1 286.4363 505.1758)" font-family="'AdobeSongStd-Light-GBpc-EUC-H'" font-size="12">第一级选路：第一级选择输入</text>
<text transform="matrix(1 0 0 1 64.4275 69.3252)" font-family="'AdobeSongStd-Light-GBpc-EUC-H'" font-size="12">M pri; y Input; a Output;</text>
<line fill="none" stroke="#000000" stroke-miterlimit="10" x1="242.005" y1="127.577" x2="235.505" y2="145.596"/>
<text transform="matrix(1 0 0 1 458.5051 130.001)" font-family="'AdobeSongStd-Light-GBpc-EUC-H'" font-size="14">N pri</text>
<line fill="none" stroke="#000000" stroke-miterlimit="10" x1="624.506" y1="135.489" x2="718.506" y2="134.989"/>
<line fill="none" stroke="#000000" stroke-miterlimit="10" x1="624.505" y1="150.159" x2="718.504" y2="229.077"/>
<line fill="none" stroke="#000000" stroke-miterlimit="10" x1="624.506" y1="178.489" x2="718.506" y2="416.988"/>
<line fill="none" stroke="#000000" stroke-miterlimit="10" x1="624.506" y1="229.489" x2="718.506" y2="149.322"/>
<line fill="none" stroke="#000000" stroke-miterlimit="10" x1="624.506" y1="243.821" x2="718.506" y2="243.321"/>
<line fill="none" stroke="#000000" stroke-miterlimit="10" x1="624.506" y1="272.491" x2="718.506" y2="431.322"/>
<line fill="none" stroke="#000000" stroke-miterlimit="10" x1="624.506" y1="417.488" x2="718.506" y2="177.989"/>
<line fill="none" stroke="#000000" stroke-miterlimit="10" x1="624.506" y1="431.822" x2="718.506" y2="271.991"/>
<line fill="none" stroke="#000000" stroke-miterlimit="10" x1="624.506" y1="460.488" x2="718.506" y2="459.988"/>
<text transform="matrix(1 0 0 1 658.5042 129.6641)" font-family="'AdobeSongStd-Light-GBpc-EUC-H'" font-size="14">K pri</text>
<line fill="none" stroke="#000000" stroke-miterlimit="10" x1="780.506" y1="135.709" x2="874.506" y2="135.209"/>
<line fill="none" stroke="#000000" stroke-miterlimit="10" x1="780.506" y1="150.042" x2="874.506" y2="229.209"/>
<line fill="none" stroke="#000000" stroke-miterlimit="10" x1="780.506" y1="178.709" x2="874.506" y2="417.209"/>
<line fill="none" stroke="#000000" stroke-miterlimit="10" x1="780.506" y1="229.709" x2="874.506" y2="149.542"/>
<line fill="none" stroke="#000000" stroke-miterlimit="10" x1="780.506" y1="244.042" x2="874.506" y2="243.542"/>
<line fill="none" stroke="#000000" stroke-miterlimit="10" x1="780.506" y1="272.709" x2="874.506" y2="431.543"/>
<line fill="none" stroke="#000000" stroke-miterlimit="10" x1="780.506" y1="417.709" x2="874.506" y2="178.209"/>
<line fill="none" stroke="#000000" stroke-miterlimit="10" x1="780.506" y1="432.043" x2="874.506" y2="272.209"/>
<line fill="none" stroke="#000000" stroke-miterlimit="10" x1="780.506" y1="460.709" x2="874.506" y2="460.209"/>
<text transform="matrix(1 0 0 1 814.5042 129.8838)" font-family="'AdobeSongStd-Light-GBpc-EUC-H'" font-size="14">L pri</text>
<text transform="matrix(1 0 0 1 1008.2249 128.8174)" font-family="'AdobeSongStd-Light-GBpc-EUC-H'" font-size="14">1 pri</text>
<text transform="matrix(0.9734 0 0 1 466.0051 87.001)" font-family="'AdobeSongStd-Light-GBpc-EUC-H'" font-size="14">update</text>
<line fill="none" stroke="#000000" stroke-miterlimit="10" x1="454.005" y1="126.317" x2="447.505" y2="144.336"/>
<line fill="none" stroke="#000000" stroke-miterlimit="10" x1="655.789" y1="126.817" x2="649.289" y2="144.836"/>
<line fill="none" stroke="#000000" stroke-miterlimit="10" x1="811.923" y1="126.317" x2="805.423" y2="144.336"/>
<line fill="none" stroke="#000000" stroke-miterlimit="10" x1="1005.266" y1="125.98" x2="998.766" y2="143.999"/>
<line fill="none" stroke="#000000" stroke-width="3" stroke-miterlimit="10" x1="980.506" y1="460.826" x2="980.506" y2="74.577"/>
<g>
	<line fill="none" stroke="#000000" stroke-miterlimit="10" x1="970.505" y1="135.327" x2="980.506" y2="126.317"/>
	<line fill="none" stroke="#000000" stroke-miterlimit="10" x1="970.505" y1="150.101" x2="980.506" y2="141.091"/>
	<line fill="none" stroke="#000000" stroke-miterlimit="10" x1="970.505" y1="178.767" x2="980.506" y2="169.757"/>
</g>
<g>
	<line fill="none" stroke="#000000" stroke-miterlimit="10" x1="970.505" y1="229.51" x2="980.506" y2="220.501"/>
	<line fill="none" stroke="#000000" stroke-miterlimit="10" x1="970.505" y1="244.284" x2="980.506" y2="235.274"/>
	<line fill="none" stroke="#000000" stroke-miterlimit="10" x1="970.505" y1="272.95" x2="980.506" y2="263.94"/>
</g>
<g>
	<line fill="none" stroke="#000000" stroke-miterlimit="10" x1="970.505" y1="417.508" x2="980.506" y2="408.5"/>
	<line fill="none" stroke="#000000" stroke-miterlimit="10" x1="970.505" y1="432.283" x2="980.506" y2="423.273"/>
	<line fill="none" stroke="#000000" stroke-miterlimit="10" x1="970.505" y1="460.949" x2="980.506" y2="451.939"/>
</g>
<line fill="none" stroke="#000000" stroke-width="3" stroke-miterlimit="10" x1="980.506" y1="74.577" x2="371.506" y2="74.577"/>
<g>
	<g>
		<line fill="none" stroke="#000000" stroke-miterlimit="10" x1="371.506" y1="74.577" x2="371.506" y2="118.266"/>
		<g>
			<polygon points="371.506,125.327 367.442,115.378 371.506,117.738 375.572,115.378 			"/>
		</g>
	</g>
</g>
<g>
	<g>
		<line fill="none" stroke="#000000" stroke-miterlimit="10" x1="571.506" y1="74.577" x2="571.506" y2="118.266"/>
		<g>
			<polygon points="571.506,125.327 567.441,115.378 571.506,117.738 575.571,115.378 			"/>
		</g>
	</g>
</g>
<g>
	<g>
		<line fill="none" stroke="#000000" stroke-miterlimit="10" x1="927.506" y1="74.577" x2="927.506" y2="118.266"/>
		<g>
			<polygon points="927.506,125.327 923.441,115.378 927.506,117.738 931.571,115.378 			"/>
		</g>
	</g>
</g>
<g>
	<g>
		<line fill="none" stroke="#000000" stroke-miterlimit="10" x1="371.506" y1="189.743" x2="371.506" y2="212.266"/>
		<g>
			<polygon points="371.506,219.327 367.442,209.378 371.506,211.737 375.572,209.378 			"/>
		</g>
	</g>
</g>
<g>
	<g>
		<line fill="none" stroke="#000000" stroke-miterlimit="10" x1="371.506" y1="283.286" x2="371.506" y2="305.807"/>
		<g>
			<polygon points="371.506,312.869 367.442,302.92 371.506,305.279 375.572,302.92 			"/>
		</g>
	</g>
</g>
<g>
	<g>
		<line fill="none" stroke="#000000" stroke-miterlimit="10" x1="371.506" y1="378.285" x2="371.506" y2="400.807"/>
		<g>
			<polygon points="371.506,407.869 367.442,397.92 371.506,400.279 375.572,397.92 			"/>
		</g>
	</g>
</g>
<g>
	<rect x="545.506" y="125.077" fill="#FFFFFF" stroke="#000000" stroke-miterlimit="10" width="52" height="64"/>
	<text transform="matrix(1 0 0 1 556.5066 158.0752)" font-family="'AdobeSongStd-Light-GBpc-EUC-H'" font-size="18">SC1</text>
	<g>
		<g>
			<line fill="none" stroke="#000000" stroke-miterlimit="10" x1="518.506" y1="135.077" x2="538.445" y2="135.077"/>
			<g>
				<polygon points="545.506,135.077 535.557,139.142 537.918,135.077 535.557,131.012 				"/>
			</g>
		</g>
	</g>
	<g>
		<g>
			<line fill="none" stroke="#000000" stroke-miterlimit="10" x1="518.506" y1="149.41" x2="538.445" y2="149.41"/>
			<g>
				<polygon points="545.506,149.41 535.557,153.476 537.918,149.41 535.557,145.346 				"/>
			</g>
		</g>
	</g>
	<g>
		<g>
			<line fill="none" stroke="#000000" stroke-miterlimit="10" x1="518.506" y1="178.077" x2="538.445" y2="178.077"/>
			<g>
				<polygon points="545.506,178.077 535.557,182.142 537.918,178.077 535.557,174.012 				"/>
			</g>
		</g>
	</g>
	<line fill="none" stroke="#000000" stroke-miterlimit="10" x1="597.506" y1="135.577" x2="624.506" y2="135.577"/>
	<line fill="none" stroke="#000000" stroke-miterlimit="10" x1="597.506" y1="178.577" x2="624.506" y2="178.577"/>
	<line fill="none" stroke="#000000" stroke-miterlimit="10" x1="597.506" y1="150.159" x2="624.506" y2="150.159"/>
	<text transform="matrix(1 0 0 1 565.4412 176.9883)" font-family="'AdobeSongStd-Light-GBpc-EUC-H'" font-size="12">#1</text>
	<text transform="matrix(1 0 0 1 521.5066 165.8086)" font-family="'AdobeSongStd-Light-GBpc-EUC-H'" font-size="12">...</text>
	<text transform="matrix(1 0 0 1 602.0066 165.8086)" font-family="'AdobeSongStd-Light-GBpc-EUC-H'" font-size="12">...</text>
</g>
<g>
	<rect x="545.506" y="219.077" fill="#FFFFFF" stroke="#000000" stroke-miterlimit="10" width="52" height="64"/>
	<text transform="matrix(1 0 0 1 556.5066 252.0752)" font-family="'AdobeSongStd-Light-GBpc-EUC-H'" font-size="18">SC1</text>
	<g>
		<g>
			<line fill="none" stroke="#000000" stroke-miterlimit="10" x1="518.506" y1="229.077" x2="538.445" y2="229.077"/>
			<g>
				<polygon points="545.506,229.077 535.557,233.142 537.918,229.077 535.557,225.012 				"/>
			</g>
		</g>
	</g>
	<g>
		<g>
			<line fill="none" stroke="#000000" stroke-miterlimit="10" x1="518.506" y1="243.409" x2="538.445" y2="243.409"/>
			<g>
				<polygon points="545.506,243.409 535.557,247.476 537.918,243.409 535.557,239.346 				"/>
			</g>
		</g>
	</g>
	<g>
		<g>
			<line fill="none" stroke="#000000" stroke-miterlimit="10" x1="518.506" y1="272.077" x2="538.445" y2="272.077"/>
			<g>
				<polygon points="545.506,272.077 535.557,276.141 537.918,272.077 535.557,268.012 				"/>
			</g>
		</g>
	</g>
	<line fill="none" stroke="#000000" stroke-miterlimit="10" x1="597.506" y1="229.577" x2="624.506" y2="229.577"/>
	<line fill="none" stroke="#000000" stroke-miterlimit="10" x1="597.506" y1="243.909" x2="624.506" y2="243.909"/>
	<line fill="none" stroke="#000000" stroke-miterlimit="10" x1="597.506" y1="272.577" x2="624.506" y2="272.577"/>
	<text transform="matrix(1 0 0 1 565.4412 272.8262)" font-family="'AdobeSongStd-Light-GBpc-EUC-H'" font-size="12">#2</text>
	<text transform="matrix(1 0 0 1 520.5066 258.4932)" font-family="'AdobeSongStd-Light-GBpc-EUC-H'" font-size="12">...</text>
	<text transform="matrix(1 0 0 1 602.0066 258.4932)" font-family="'AdobeSongStd-Light-GBpc-EUC-H'" font-size="12">...</text>
</g>
<g>
	<rect x="545.506" y="407.076" fill="#FFFFFF" stroke="#000000" stroke-miterlimit="10" width="52" height="64"/>
	<text transform="matrix(1 0 0 1 556.5066 440.0771)" font-family="'AdobeSongStd-Light-GBpc-EUC-H'" font-size="18">SC1</text>
	<g>
		<g>
			<line fill="none" stroke="#000000" stroke-miterlimit="10" x1="518.506" y1="417.076" x2="538.445" y2="417.076"/>
			<g>
				<polygon points="545.506,417.076 535.557,421.141 537.918,417.076 535.557,413.012 				"/>
			</g>
		</g>
	</g>
	<g>
		<g>
			<line fill="none" stroke="#000000" stroke-miterlimit="10" x1="518.506" y1="431.41" x2="538.445" y2="431.41"/>
			<g>
				<polygon points="545.506,431.41 535.557,435.475 537.918,431.41 535.557,427.346 				"/>
			</g>
		</g>
	</g>
	<g>
		<g>
			<line fill="none" stroke="#000000" stroke-miterlimit="10" x1="518.506" y1="460.076" x2="538.445" y2="460.076"/>
			<g>
				<polygon points="545.506,460.076 535.557,464.141 537.918,460.076 535.557,456.012 				"/>
			</g>
		</g>
	</g>
	<line fill="none" stroke="#000000" stroke-miterlimit="10" x1="597.506" y1="417.576" x2="624.506" y2="417.576"/>
	<line fill="none" stroke="#000000" stroke-miterlimit="10" x1="597.506" y1="431.91" x2="624.506" y2="431.91"/>
	<line fill="none" stroke="#000000" stroke-miterlimit="10" x1="597.506" y1="460.576" x2="624.506" y2="460.576"/>
	<text transform="matrix(1 0 0 1 567.4412 460.8271)" font-family="'AdobeSongStd-Light-GBpc-EUC-H'" font-size="12">#b</text>
	<text transform="matrix(1 0 0 1 521.5066 446.4922)" font-family="'AdobeSongStd-Light-GBpc-EUC-H'" font-size="12">...</text>
	<text transform="matrix(1 0 0 1 602.0066 445.9922)" font-family="'AdobeSongStd-Light-GBpc-EUC-H'" font-size="12">...</text>
</g>
<g>
	<g>
		<line fill="none" stroke="#000000" stroke-miterlimit="10" x1="571.506" y1="190.493" x2="571.506" y2="213.016"/>
		<g>
			<polygon points="571.506,220.077 567.441,210.128 571.506,212.487 575.571,210.128 			"/>
		</g>
	</g>
</g>
<g>
	<g>
		<line fill="none" stroke="#000000" stroke-miterlimit="10" x1="571.506" y1="284.036" x2="571.506" y2="306.557"/>
		<g>
			<polygon points="571.506,313.619 567.441,303.67 571.506,306.029 575.571,303.67 			"/>
		</g>
	</g>
</g>
<g>
	<g>
		<line fill="none" stroke="#000000" stroke-miterlimit="10" x1="571.506" y1="379.035" x2="571.506" y2="401.557"/>
		<g>
			<polygon points="571.506,408.619 567.441,398.67 571.506,401.029 575.571,398.67 			"/>
		</g>
	</g>
</g>
<g>
	<g>
		<g>
			<line fill="none" stroke="#000000" stroke-miterlimit="10" x1="980.506" y1="135.827" x2="1035.945" y2="135.827"/>
			<g>
				<polygon points="1043.005,135.827 1033.056,139.892 1035.418,135.827 1033.056,131.762 				"/>
			</g>
		</g>
	</g>
	<g>
		<g>
			<line fill="none" stroke="#000000" stroke-miterlimit="10" x1="980.506" y1="149.993" x2="1035.945" y2="149.993"/>
			<g>
				<polygon points="1043.005,149.993 1033.056,154.059 1035.418,149.993 1033.056,145.929 				"/>
			</g>
		</g>
	</g>
	<g>
		<g>
			<line fill="none" stroke="#000000" stroke-miterlimit="10" x1="980.506" y1="178.327" x2="1035.945" y2="178.327"/>
			<g>
				<polygon points="1043.005,178.327 1033.056,182.392 1035.418,178.327 1033.056,174.262 				"/>
			</g>
		</g>
	</g>
</g>
<g>
	<g>
		<g>
			<line fill="none" stroke="#000000" stroke-miterlimit="10" x1="980.506" y1="230.077" x2="1035.945" y2="230.077"/>
			<g>
				<polygon points="1043.005,230.077 1033.056,234.142 1035.418,230.077 1033.056,226.012 				"/>
			</g>
		</g>
	</g>
	<g>
		<g>
			<line fill="none" stroke="#000000" stroke-miterlimit="10" x1="980.506" y1="244.243" x2="1035.945" y2="244.243"/>
			<g>
				<polygon points="1043.005,244.243 1033.056,248.309 1035.418,244.243 1033.056,240.179 				"/>
			</g>
		</g>
	</g>
	<g>
		<g>
			<line fill="none" stroke="#000000" stroke-miterlimit="10" x1="980.506" y1="272.577" x2="1035.945" y2="272.577"/>
			<g>
				<polygon points="1043.005,272.577 1033.056,276.641 1035.418,272.577 1033.056,268.512 				"/>
			</g>
		</g>
	</g>
</g>
<g>
	<g>
		<g>
			<line fill="none" stroke="#000000" stroke-miterlimit="10" x1="980.506" y1="418.076" x2="1035.945" y2="418.076"/>
			<g>
				<polygon points="1043.005,418.076 1033.056,422.141 1035.418,418.076 1033.056,414.012 				"/>
			</g>
		</g>
	</g>
	<g>
		<g>
			<line fill="none" stroke="#000000" stroke-miterlimit="10" x1="980.506" y1="432.242" x2="1035.945" y2="432.242"/>
			<g>
				<polygon points="1043.005,432.242 1033.056,436.307 1035.418,432.242 1033.056,428.178 				"/>
			</g>
		</g>
	</g>
	<g>
		<g>
			<line fill="none" stroke="#000000" stroke-miterlimit="10" x1="980.506" y1="460.576" x2="1035.945" y2="460.576"/>
			<g>
				<polygon points="1043.005,460.576 1033.056,464.641 1035.418,460.576 1033.056,456.512 				"/>
			</g>
		</g>
	</g>
</g>
<g>
	<g>
		<polyline fill="none" stroke="#000000" stroke-width="3" stroke-miterlimit="10" points="1182.5,528.132 1182.5,534.5 
			1172.418,534.5 		"/>
		
			<line fill="none" stroke="#000000" stroke-width="3" stroke-miterlimit="10" stroke-dasharray="12,12" x1="1152.255" y1="534.5" x2="73.507" y2="534.5"/>
		<polyline fill="none" stroke="#000000" stroke-width="3" stroke-miterlimit="10" points="63.427,534.5 53.344,534.5 
			53.344,528.132 		"/>
		
			<line fill="none" stroke="#000000" stroke-width="3" stroke-miterlimit="10" stroke-dasharray="11.7692,11.7692" x1="53.344" y1="515.64" x2="53.344" y2="47.192"/>
		<polyline fill="none" stroke="#000000" stroke-width="3" stroke-miterlimit="10" points="53.344,40.945 53.344,34.577 
			63.427,34.577 		"/>
		
			<line fill="none" stroke="#000000" stroke-width="3" stroke-miterlimit="10" stroke-dasharray="12,12" x1="83.589" y1="34.577" x2="1162.337" y2="34.577"/>
		<polyline fill="none" stroke="#000000" stroke-width="3" stroke-miterlimit="10" points="1172.418,34.577 1182.5,34.577 
			1182.5,40.945 		"/>
		
			<line fill="none" stroke="#000000" stroke-width="3" stroke-miterlimit="10" stroke-dasharray="11.7692,11.7692" x1="1182.5" y1="53.437" x2="1182.5" y2="521.886"/>
	</g>
</g>
<text transform="matrix(1 0 0 1 727.4358 182.3916)" font-family="'AdobeSongStd-Light-GBpc-EUC-H'" font-size="36">…</text>
<text transform="matrix(1 0 0 1 727.4358 268.4453)" font-family="'AdobeSongStd-Light-GBpc-EUC-H'" font-size="36">…</text>
<text transform="matrix(1 0 0 1 353.5071 356.4111)" font-family="'AdobeSongStd-Light-GBpc-EUC-H'" font-size="36">…</text>
<text transform="matrix(1 0 0 1 118.3811 348.5859)" font-family="'AdobeSongStd-Light-GBpc-EUC-H'" font-size="36">…</text>
<text transform="matrix(1 0 0 1 552.5066 355.3252)" font-family="'AdobeSongStd-Light-GBpc-EUC-H'" font-size="36">…</text>
<text transform="matrix(1 0 0 1 727.4358 347.6787)" font-family="'AdobeSongStd-Light-GBpc-EUC-H'" font-size="36">…</text>
<text transform="matrix(1 0 0 1 907.4358 351.9072)" font-family="'AdobeSongStd-Light-GBpc-EUC-H'" font-size="36">…</text>
<text transform="matrix(1 0 0 1 994.9358 352.6162)" font-family="'AdobeSongStd-Light-GBpc-EUC-H'" font-size="36">…</text>
<text transform="matrix(1 0 0 1 727.4358 441.6787)" font-family="'AdobeSongStd-Light-GBpc-EUC-H'" font-size="36">…</text>
<text transform="matrix(1.0504 0 0 1 199.4358 163.9287)" font-family="'AdobeSongStd-Light-GBpc-EUC-H'" font-size="11.424">...</text>
<text transform="matrix(1 0 0 1 199.4363 259.4932)" font-family="'AdobeSongStd-Light-GBpc-EUC-H'" font-size="12">...</text>
<text transform="matrix(1 0 0 1 199.4363 446.4922)" font-family="'AdobeSongStd-Light-GBpc-EUC-H'" font-size="12">...</text>
<line fill="none" stroke="#000000" stroke-miterlimit="10" x1="424.506" y1="432.16" x2="518.506" y2="272.077"/>
<text transform="matrix(1 0 0 1 959.4358 164.4922)" font-family="'AdobeSongStd-Light-GBpc-EUC-H'" font-size="12">...</text>
<text transform="matrix(1 0 0 1 1002.0159 165.8086)" font-family="'AdobeSongStd-Light-GBpc-EUC-H'" font-size="12">...</text>
<text transform="matrix(1 0 0 1 956.4358 258.4932)" font-family="'AdobeSongStd-Light-GBpc-EUC-H'" font-size="12">...</text>
<text transform="matrix(1 0 0 1 1002.0159 259.1553)" font-family="'AdobeSongStd-Light-GBpc-EUC-H'" font-size="12">...</text>
<text transform="matrix(1 0 0 1 956.4358 446.1543)" font-family="'AdobeSongStd-Light-GBpc-EUC-H'" font-size="12">...</text>
<text transform="matrix(1 0 0 1 1002.0159 445.3271)" font-family="'AdobeSongStd-Light-GBpc-EUC-H'" font-size="12">...</text>
<path fill="none" stroke="#3FFF9B" stroke-miterlimit="10" d="M356.507,134.989c0-26.524-15.239-47.988-34.071-47.988"/>
<path fill="none" stroke="#3FFF9B" stroke-miterlimit="10" d="M133.718,133.266c0-16.635,15.503-30.096,34.663-30.096"/>
<path fill="none" stroke="#3FFF9B" stroke-miterlimit="10" d="M367.442,471.327c0,11.703,10.313,21.173,23.059,21.173"/>
<text transform="matrix(1 0 0 1 512.4753 505.1758)" font-family="'AdobeSongStd-Light-GBpc-EUC-H'" font-size="12">第二级选路：第一级选择上一级</text>
<path fill="none" stroke="#3FFF9B" stroke-miterlimit="10" d="M573.481,471.077c0,11.703,10.313,21.173,23.059,21.173"/>
<text transform="matrix(1 0 0 1 935.51 504.2988)" font-family="'AdobeSongStd-Light-GBpc-EUC-H'" font-size="12">输入选择</text>
<path fill="none" stroke="#3FFF9B" stroke-miterlimit="10" d="M935.511,470.2c0,11.703,10.313,21.173,23.059,21.173"/>
<text transform="matrix(1 0 0 1 792.3909 517.8867)" font-family="'AdobeSongStd-Light-GBpc-EUC-H'" font-size="12">输出选择</text>
<path fill="none" stroke="#3FFF9B" stroke-miterlimit="10" d="M808.673,460.95c0,24.445,6.884,44.226,15.392,44.226"/>
</svg>
