<?xml version="1.0" encoding="utf-8"?>
<!-- Generator: Adobe Illustrator 15.0.0, SVG Export Plug-In . SVG Version: 6.00 Build 0)  -->
<!DOCTYPE svg PUBLIC "-//W3C//DTD SVG 1.1//EN" "http://www.w3.org/Graphics/SVG/1.1/DTD/svg11.dtd">
<svg version="1.1" id="图层_1" xmlns="http://www.w3.org/2000/svg" xmlns:xlink="http://www.w3.org/1999/xlink" x="0px" y="0px"
	 width="595.28px" height="435px" viewBox="0 0 595.28 435" enable-background="new 0 0 595.28 435" xml:space="preserve">
<g id="fifo_34_">
	<rect x="81.749" y="160.5" fill="#FFFFFF" width="15.004" height="14.5"/>
	<rect x="107.629" y="160.5" fill="#DDDCDC" stroke="#221F20" stroke-miterlimit="10" width="5.49" height="14.5"/>
	<rect x="102.14" y="160.5" fill="#DDDCDC" stroke="#221F20" stroke-miterlimit="10" width="5.489" height="14.5"/>
	<rect x="96.753" y="160.5" fill="#DDDCDC" stroke="#221F20" stroke-miterlimit="10" width="5.49" height="14.5"/>
	<line fill="none" stroke="#221F20" stroke-miterlimit="10" x1="96.753" y1="175" x2="81.749" y2="175"/>
	<line fill="none" stroke="#221F20" stroke-miterlimit="10" x1="96.753" y1="160.5" x2="81.749" y2="160.5"/>
</g>
<g id="fifo_33_">
	<rect x="81.749" y="118.25" fill="#FFFFFF" width="15.004" height="14.5"/>
	<rect x="107.629" y="118.25" fill="#DDDCDC" stroke="#221F20" stroke-miterlimit="10" width="5.49" height="14.5"/>
	<rect x="102.14" y="118.25" fill="#DDDCDC" stroke="#221F20" stroke-miterlimit="10" width="5.489" height="14.5"/>
	<rect x="96.753" y="118.25" fill="#DDDCDC" stroke="#221F20" stroke-miterlimit="10" width="5.49" height="14.5"/>
	<line fill="none" stroke="#221F20" stroke-miterlimit="10" x1="96.753" y1="132.75" x2="81.749" y2="132.75"/>
	<line fill="none" stroke="#221F20" stroke-miterlimit="10" x1="96.753" y1="118.25" x2="81.749" y2="118.25"/>
</g>
<g id="fifo_32_">
	<rect x="81.749" y="99.19" fill="#FFFFFF" width="15.004" height="14.5"/>
	<rect x="107.629" y="99.19" fill="#DDDCDC" stroke="#221F20" stroke-miterlimit="10" width="5.49" height="14.5"/>
	<rect x="102.14" y="99.19" fill="#DDDCDC" stroke="#221F20" stroke-miterlimit="10" width="5.489" height="14.5"/>
	<rect x="96.753" y="99.19" fill="#DDDCDC" stroke="#221F20" stroke-miterlimit="10" width="5.49" height="14.5"/>
	<line fill="none" stroke="#221F20" stroke-miterlimit="10" x1="96.753" y1="113.69" x2="81.749" y2="113.69"/>
	<line fill="none" stroke="#221F20" stroke-miterlimit="10" x1="96.753" y1="99.19" x2="81.749" y2="99.19"/>
</g>
<text transform="matrix(4.489659e-011 -1 -1 -4.489659e-011 96.7539 155.5)" fill="#040000" font-family="'ArialMT'" font-size="18">…</text>
<rect x="31.498" y="79.5" fill="none" stroke="#221F20" stroke-miterlimit="10" width="140" height="111"/>
<text transform="matrix(1 0 0 1 36.4976 95.5)" fill="#040000" font-family="'ArialMT'" font-size="14">iFIC</text>
<text transform="matrix(4.489659e-011 -1 1 4.489659e-011 102.2432 254.499)" fill="#040000" font-family="'ArialMT'" font-size="50">...</text>
<text transform="matrix(4.489659e-011 -1 1 4.489659e-011 297.6401 254.499)" fill="#040000" font-family="'ArialMT'" font-size="50">...</text>
<g id="fifo_3_">
	<rect x="82.494" y="358.945" fill="#FFFFFF" width="15.004" height="14.5"/>
	<rect x="108.374" y="358.945" fill="#DDDCDC" stroke="#221F20" stroke-miterlimit="10" width="5.49" height="14.5"/>
	<rect x="102.885" y="358.945" fill="#DDDCDC" stroke="#221F20" stroke-miterlimit="10" width="5.489" height="14.5"/>
	<rect x="97.498" y="358.945" fill="#DDDCDC" stroke="#221F20" stroke-miterlimit="10" width="5.49" height="14.5"/>
	<line fill="none" stroke="#221F20" stroke-miterlimit="10" x1="97.498" y1="373.445" x2="82.494" y2="373.445"/>
	<line fill="none" stroke="#221F20" stroke-miterlimit="10" x1="97.498" y1="358.945" x2="82.494" y2="358.945"/>
</g>
<g id="fifo_2_">
	<rect x="82.494" y="316.695" fill="#FFFFFF" width="15.004" height="14.5"/>
	<rect x="108.374" y="316.695" fill="#DDDCDC" stroke="#221F20" stroke-miterlimit="10" width="5.49" height="14.5"/>
	<rect x="102.885" y="316.695" fill="#DDDCDC" stroke="#221F20" stroke-miterlimit="10" width="5.489" height="14.5"/>
	<rect x="97.498" y="316.695" fill="#DDDCDC" stroke="#221F20" stroke-miterlimit="10" width="5.49" height="14.5"/>
	<line fill="none" stroke="#221F20" stroke-miterlimit="10" x1="97.498" y1="331.195" x2="82.494" y2="331.195"/>
	<line fill="none" stroke="#221F20" stroke-miterlimit="10" x1="97.498" y1="316.695" x2="82.494" y2="316.695"/>
</g>
<g id="fifo_1_">
	<rect x="82.494" y="297.635" fill="#FFFFFF" width="15.004" height="14.5"/>
	<rect x="108.374" y="297.635" fill="#DDDCDC" stroke="#221F20" stroke-miterlimit="10" width="5.49" height="14.5"/>
	<rect x="102.885" y="297.635" fill="#DDDCDC" stroke="#221F20" stroke-miterlimit="10" width="5.489" height="14.5"/>
	<rect x="97.498" y="297.635" fill="#DDDCDC" stroke="#221F20" stroke-miterlimit="10" width="5.49" height="14.5"/>
	<line fill="none" stroke="#221F20" stroke-miterlimit="10" x1="97.498" y1="312.135" x2="82.494" y2="312.135"/>
	<line fill="none" stroke="#221F20" stroke-miterlimit="10" x1="97.498" y1="297.635" x2="82.494" y2="297.635"/>
</g>
<text transform="matrix(4.489659e-011 -1 -1 -4.489659e-011 97.5 353.9453)" fill="#040000" font-family="'ArialMT'" font-size="18">…</text>
<rect x="32.243" y="277.945" fill="none" stroke="#221F20" stroke-miterlimit="10" width="140" height="111"/>
<text transform="matrix(1 0 0 1 37.2427 293.9448)" fill="#040000" font-family="'ArialMT'" font-size="14">iFIC</text>
<rect x="422.498" y="79.5" fill="none" stroke="#221F20" stroke-miterlimit="10" width="140" height="111"/>
<text transform="matrix(1 0 0 1 427.498 95.5)" enable-background="new    "><tspan x="0" y="0" fill="#040000" font-family="'AdobeSongStd-Light-GBpc-EUC-H'" font-size="14">e</tspan><tspan x="5.81" y="0" fill="#040000" font-family="'ArialMT'" font-size="14">FIC</tspan></text>
<rect x="423.243" y="277.945" fill="none" stroke="#221F20" stroke-miterlimit="10" width="140" height="111"/>
<text transform="matrix(1 0 0 1 428.2422 293.9448)" enable-background="new    "><tspan x="0" y="0" fill="#040000" font-family="'AdobeSongStd-Light-GBpc-EUC-H'" font-size="14">e</tspan><tspan x="5.811" y="0" fill="#040000" font-family="'ArialMT'" font-size="14">FIC</tspan></text>
<rect x="240" y="79.5" fill="none" stroke="#000000" stroke-miterlimit="10" width="114" height="111"/>
<g>
	<path fill="none" stroke="#221F20" stroke-miterlimit="10" d="M327.846,92.915h-17.408c0,0-26.114,50.67-32.343,50.67
		c-6.211,0-12.428,0-12.428,0"/>
	<path fill="none" stroke="#221F20" stroke-miterlimit="10" d="M265.667,92.915h17.404c0,0,26.114,50.67,32.336,50.67
		s12.438,0,12.438,0"/>
</g>
<rect x="262.756" y="152" fill="none" stroke="#000000" stroke-miterlimit="10" width="68" height="31.501"/>
<text transform="matrix(1 0 0 1 277.7563 172.4453)" font-family="'AdobeSongStd-Light-GBpc-EUC-H'" font-size="14">Arbiter</text>
<rect x="240" y="275.695" fill="none" stroke="#000000" stroke-miterlimit="10" width="114" height="111"/>
<g>
	<path fill="none" stroke="#221F20" stroke-miterlimit="10" d="M327.846,289.109h-17.408c0,0-26.114,50.67-32.343,50.67
		c-6.211,0-12.428,0-12.428,0"/>
	<path fill="none" stroke="#221F20" stroke-miterlimit="10" d="M265.667,289.109h17.404c0,0,26.114,50.67,32.336,50.67
		s12.438,0,12.438,0"/>
</g>
<rect x="262.756" y="348.194" fill="none" stroke="#000000" stroke-miterlimit="10" width="68" height="31.501"/>
<text transform="matrix(1 0 0 1 277.7563 368.6401)" font-family="'AdobeSongStd-Light-GBpc-EUC-H'" font-size="14">Arbiter</text>
<g>
	<g>
		<path fill="none" stroke="#E72A19" stroke-miterlimit="10" d="M163.762,135c0,0,1.055,0.171,2.955,0.495"/>
		<path fill="none" stroke="#E72A19" stroke-miterlimit="10" stroke-dasharray="5.9402,5.9402" d="M172.565,136.513
			c19.971,3.546,68.566,12.836,89.075,22.623"/>
		<path fill="none" stroke="#E72A19" stroke-miterlimit="10" d="M264.285,160.488c0.942,0.52,1.798,1.04,2.56,1.56"/>
		<g>
			<polygon fill="#E72A19" points="271.006,167.75 261.624,162.507 266.274,161.817 267.979,157.438 			"/>
		</g>
	</g>
</g>
<g>
	<g>
		<path fill="none" stroke="#E72A19" stroke-miterlimit="10" stroke-dasharray="6,6" d="M163.762,135
			c0,0,104.644,120.151,107.263,219.938"/>
		<g>
			<polygon fill="#E72A19" points="271.037,362 266.87,352.093 270.959,354.412 275,352.01 			"/>
		</g>
	</g>
</g>
<ellipse fill="none" stroke="#000000" stroke-miterlimit="10" cx="148" cy="137.095" rx="16" ry="12.25"/>
<text transform="matrix(1 0 0 1 136.5 140.3447)" font-family="'AdobeSongStd-Light-GBpc-EUC-H'" font-size="12">REQ</text>
<ellipse fill="none" stroke="#000000" stroke-miterlimit="10" cx="143" cy="339.78" rx="16" ry="12.25"/>
<text transform="matrix(1 0 0 1 131.5 343.0298)" font-family="'AdobeSongStd-Light-GBpc-EUC-H'" font-size="12">REQ</text>
<g>
	<g>
		<path fill="none" stroke="#D22E19" stroke-miterlimit="10" stroke-dasharray="6,6" d="M158.266,336.104
			c0,0,101.385-99.892,110.134-154.067"/>
		<g>
			<polygon fill="#D22E19" points="269,175 272.029,185.312 268.226,182.549 263.941,184.482 			"/>
		</g>
	</g>
</g>
<g>
	<g>
		<path fill="none" stroke="#D22E19" stroke-miterlimit="10" stroke-dasharray="6,6" d="M159,339.78
			c0,0,85.896,6.754,105.882,20.668"/>
		<g>
			<polygon fill="#D22E19" points="269,366.195 259.682,360.838 264.34,360.206 266.099,355.846 			"/>
		</g>
	</g>
</g>
<g>
	<g>
		<path fill="none" stroke="#1B7B3A" stroke-miterlimit="10" stroke-dasharray="6,6" d="M269,170c0,0-78.408-13.84-100.153-25.136"
			/>
		<g>
			<polygon fill="#1B7B3A" points="163.426,140.345 173.759,143.303 169.389,145.038 168.731,149.692 			"/>
		</g>
	</g>
</g>
<g>
	<g>
		<path fill="none" stroke="#1B7B3A" stroke-miterlimit="10" stroke-dasharray="6,6" d="M265.667,175
			c0,0-105.687,103.7-112.727,141.885"/>
		<g>
			<polygon fill="#1B7B3A" points="153,323.945 149.091,313.933 153.119,316.357 157.22,314.061 			"/>
		</g>
	</g>
</g>
<g>
	<g>
		<path fill="none" stroke="#1B7B3A" stroke-miterlimit="10" stroke-dasharray="6,6" d="M265.667,346
			c0,0-99.963-149.132-105.135-189.605"/>
		<g>
			<polygon fill="#1B7B3A" points="161,149.345 164.697,159.437 160.721,156.928 156.573,159.138 			"/>
		</g>
	</g>
</g>
<g>
	<g>
		<path fill="none" stroke="#1B7B3A" stroke-miterlimit="10" stroke-dasharray="6,6" d="M265.667,368.64
			c0,0-80.51,1.551-102.428-11.595"/>
		<g>
			<polygon fill="#1B7B3A" points="158.266,352.03 168.293,355.899 163.786,357.236 162.715,361.813 			"/>
		</g>
	</g>
</g>
<g>
	<g>
		<line fill="none" stroke="#000000" stroke-width="5" stroke-miterlimit="10" x1="172.243" y1="108.5" x2="225.879" y2="108.5"/>
		<g>
			<polygon points="240,108.5 220.102,116.631 224.823,108.5 220.102,100.371 			"/>
		</g>
	</g>
</g>
<g>
	<g>
		
			<line fill="none" stroke="#000000" stroke-width="5" stroke-miterlimit="10" x1="175.242" y1="360.363" x2="228.877" y2="360.363"/>
		<g>
			<polygon points="242.999,360.363 223.1,368.494 227.822,360.363 223.1,352.234 			"/>
		</g>
	</g>
</g>
<g>
	<g>
		<line fill="none" stroke="#000000" stroke-width="5" stroke-miterlimit="10" x1="171.498" y1="163" x2="233.596" y2="285.049"/>
		<g>
			<polygon points="240,297.635 223.73,283.587 233.118,284.108 238.222,276.214 			"/>
		</g>
	</g>
</g>
<g>
	<g>
		<line fill="none" stroke="#000000" stroke-width="5" stroke-miterlimit="10" x1="171.871" y1="301.379" x2="233.5" y2="182.536"/>
		<g>
			<polygon points="240,170 238.058,191.408 233.013,183.473 223.624,183.922 			"/>
		</g>
	</g>
</g>
<g>
	<g>
		<line fill="none" stroke="#000000" stroke-width="5" stroke-miterlimit="10" x1="354.745" y1="108.5" x2="408.381" y2="108.5"/>
		<g>
			<polygon points="422.502,108.5 402.604,116.631 407.325,108.5 402.604,100.371 			"/>
		</g>
	</g>
</g>
<g>
	<g>
		
			<line fill="none" stroke="#000000" stroke-width="5" stroke-miterlimit="10" x1="357.744" y1="360.363" x2="411.379" y2="360.363"/>
		<g>
			<polygon points="425.5,360.363 405.602,368.494 410.324,360.363 405.602,352.234 			"/>
		</g>
	</g>
</g>
<g>
	<g>
		<line fill="none" stroke="#000000" stroke-width="5" stroke-miterlimit="10" x1="354" y1="163" x2="416.098" y2="285.049"/>
		<g>
			<polygon points="422.502,297.635 406.232,283.587 415.619,284.108 420.724,276.214 			"/>
		</g>
	</g>
</g>
<g>
	<g>
		
			<line fill="none" stroke="#000000" stroke-width="5" stroke-miterlimit="10" x1="354.373" y1="301.379" x2="416.002" y2="182.536"/>
		<g>
			<polygon points="422.502,170 420.56,191.408 415.516,183.473 406.125,183.922 			"/>
		</g>
	</g>
</g>
</svg>
