<?xml version="1.0" encoding="utf-8"?>
<!-- Generator: Adobe Illustrator 15.0.0, SVG Export Plug-In . SVG Version: 6.00 Build 0)  -->
<!DOCTYPE svg PUBLIC "-//W3C//DTD SVG 1.1//EN" "http://www.w3.org/Graphics/SVG/1.1/DTD/svg11.dtd">
<svg version="1.1" id="图层_1" xmlns="http://www.w3.org/2000/svg" xmlns:xlink="http://www.w3.org/1999/xlink" x="0px" y="0px"
	 width="595.279px" height="513px" viewBox="0 0 595.279 513" enable-background="new 0 0 595.279 513" xml:space="preserve">
<rect x="114" y="113" fill="#FFFFFF" stroke="#000000" stroke-width="2" stroke-miterlimit="10" width="417" height="339"/>
<g>
	<g>
		<line fill="none" stroke="#000000" stroke-miterlimit="10" x1="114" y1="382" x2="120" y2="382"/>
		
			<line fill="none" stroke="#000000" stroke-miterlimit="10" stroke-dasharray="12.2727,12.2727" x1="132.273" y1="382" x2="518.864" y2="382"/>
		<line fill="none" stroke="#000000" stroke-miterlimit="10" x1="525" y1="382" x2="531" y2="382"/>
	</g>
</g>
<g>
	<g>
		<line fill="none" stroke="#000000" stroke-miterlimit="10" x1="178" y1="382" x2="178" y2="388"/>
		
			<line fill="none" stroke="#000000" stroke-miterlimit="10" stroke-dasharray="11.6,11.6" x1="178" y1="399.6" x2="178" y2="440.2"/>
		<line fill="none" stroke="#000000" stroke-miterlimit="10" x1="178" y1="446" x2="178" y2="452"/>
	</g>
</g>
<g>
	<g>
		<line fill="none" stroke="#000000" stroke-miterlimit="10" x1="288" y1="382" x2="288" y2="388"/>
		
			<line fill="none" stroke="#000000" stroke-miterlimit="10" stroke-dasharray="11.6,11.6" x1="288" y1="399.6" x2="288" y2="440.2"/>
		<line fill="none" stroke="#000000" stroke-miterlimit="10" x1="288" y1="446" x2="288" y2="452"/>
	</g>
</g>
<g>
	<g>
		<line fill="none" stroke="#000000" stroke-miterlimit="10" x1="460" y1="382" x2="460" y2="388"/>
		
			<line fill="none" stroke="#000000" stroke-miterlimit="10" stroke-dasharray="11.6,11.6" x1="460" y1="399.6" x2="460" y2="440.2"/>
		<line fill="none" stroke="#000000" stroke-miterlimit="10" x1="460" y1="446" x2="460" y2="452"/>
	</g>
</g>
<text transform="matrix(1 0 0 1 136.9998 425)" font-family="'ArialMT'" font-size="16">R0</text>
<text transform="matrix(1 0 0 1 142.9998 299.5)" font-family="'ArialMT'" font-size="16">cnt0</text>
<text transform="matrix(1 0 0 1 210.9998 299.5)" font-family="'ArialMT'" font-size="16">cnt1</text>
<text transform="matrix(1 0 0 1 297.6404 299.5)" font-family="'ArialMT'" font-size="16">cnt2</text>
<text transform="matrix(1 0 0 1 438.6399 299.5)" font-family="'ArialMT'" font-size="16">cnt3</text>
<text transform="matrix(1 0 0 1 139.9998 81)" font-family="'ArialMT'" font-size="16">thd0</text>
<text transform="matrix(1 0 0 1 139.9998 42)" font-family="'ArialMT'" font-size="16">thd0 : thd1 : thd2 : thd3 = a0 : a1 : a2 : a3</text>
<text transform="matrix(1 0 0 1 53.9998 299.5)" font-family="'ArialMT'" font-size="16">used</text>
<text transform="matrix(1 0 0 1 296.9998 143)" font-family="'ArialMT'" font-size="16">Gap</text>
<text transform="matrix(1 0 0 1 222.9998 425)" font-family="'ArialMT'" font-size="16">R1</text>
<text transform="matrix(1 0 0 1 364.9993 425)" font-family="'ArialMT'" font-size="16">R2</text>
<text transform="matrix(1 0 0 1 487.9993 425)" font-family="'ArialMT'" font-size="16">R3</text>
<line fill="none" stroke="#000000" stroke-miterlimit="10" x1="114" y1="162" x2="531" y2="162"/>
<g>
	<g>
		<line fill="none" stroke="#000000" stroke-miterlimit="10" x1="114" y1="217" x2="120" y2="217"/>
		
			<line fill="none" stroke="#000000" stroke-miterlimit="10" stroke-dasharray="12.2727,12.2727" x1="132.273" y1="217" x2="518.863" y2="217"/>
		<line fill="none" stroke="#000000" stroke-miterlimit="10" x1="525" y1="217" x2="531" y2="217"/>
	</g>
</g>
<line fill="none" stroke="#000000" stroke-miterlimit="10" stroke-dasharray="12" x1="203" y1="217" x2="203" y2="382"/>
<line fill="none" stroke="#000000" stroke-miterlimit="10" stroke-dasharray="12" x1="254" y1="217" x2="254" y2="382"/>
<line fill="none" stroke="#000000" stroke-miterlimit="10" stroke-dasharray="12" x1="378" y1="217" x2="378" y2="382"/>
<g>
	<g>
		<line fill="none" stroke="#000000" stroke-miterlimit="10" x1="121.061" y1="89" x2="187.939" y2="89"/>
		<g>
			<polygon points="114,89 123.949,93.065 121.588,89 123.949,84.936 			"/>
		</g>
		<g>
			<polygon points="195,89 185.051,93.065 187.412,89 185.051,84.936 			"/>
		</g>
	</g>
</g>
<text transform="matrix(1 0 0 1 220.6399 81)" font-family="'ArialMT'" font-size="16">thd1</text>
<g>
	<g>
		<line fill="none" stroke="#000000" stroke-miterlimit="10" x1="200.701" y1="89" x2="267.58" y2="89"/>
		<g>
			<polygon points="193.64,89 203.589,93.065 201.229,89 203.589,84.936 			"/>
		</g>
		<g>
			<polygon points="274.64,89 264.691,93.065 267.052,89 264.691,84.936 			"/>
		</g>
	</g>
</g>
<text transform="matrix(1 0 0 1 317.6399 81)" font-family="'ArialMT'" font-size="16">thd2</text>
<g>
	<g>
		<line fill="none" stroke="#000000" stroke-miterlimit="10" x1="281.701" y1="89" x2="382.939" y2="89"/>
		<g>
			<polygon points="274.64,89 284.59,93.065 282.229,89 284.59,84.936 			"/>
		</g>
		<g>
			<polygon points="390,89 380.051,93.065 382.411,89 380.051,84.936 			"/>
		</g>
	</g>
</g>
<text transform="matrix(1 0 0 1 446.9993 81)" font-family="'ArialMT'" font-size="16">thd3</text>
<g>
	<g>
		<line fill="none" stroke="#000000" stroke-miterlimit="10" x1="397.061" y1="89" x2="523.939" y2="89"/>
		<g>
			<polygon points="390,89 399.948,93.065 397.588,89 399.948,84.936 			"/>
		</g>
		<g>
			<polygon points="531,89 521.051,93.065 523.411,89 521.051,84.936 			"/>
		</g>
	</g>
</g>
<line fill="none" stroke="#2250A2" stroke-miterlimit="10" x1="114" y1="109" x2="114" y2="62"/>
<line fill="none" stroke="#2250A2" stroke-miterlimit="10" x1="193.64" y1="109.5" x2="193.64" y2="62.5"/>
<line fill="none" stroke="#2250A2" stroke-miterlimit="10" x1="274.64" y1="109.5" x2="274.64" y2="62.5"/>
<line fill="none" stroke="#2250A2" stroke-miterlimit="10" x1="390" y1="109.5" x2="390" y2="62.5"/>
<line fill="none" stroke="#2250A2" stroke-miterlimit="10" x1="531" y1="109.5" x2="531" y2="62.5"/>
<g>
	<g>
		<line fill="none" stroke="#000000" stroke-miterlimit="10" x1="90" y1="224.061" x2="90" y2="374.939"/>
		<g>
			<polygon points="90,217 85.935,226.949 90,224.588 94.064,226.949 			"/>
		</g>
		<g>
			<polygon points="90,382 85.935,372.051 90,374.412 94.064,372.051 			"/>
		</g>
	</g>
</g>
<line fill="none" stroke="#2250A2" stroke-miterlimit="10" x1="72" y1="217" x2="106" y2="217"/>
<line fill="none" stroke="#2250A2" stroke-miterlimit="10" x1="73" y1="382" x2="107" y2="382"/>
</svg>
