<?xml version="1.0" encoding="UTF-8" standalone="no"?>
<!DOCTYPE svg PUBLIC "-//W3C//DTD SVG 1.0//EN" "http://www.w3.org/TR/2001/REC-SVG-20010904/DTD/svg10.dtd">
<!-- 由 Microsoft Visio 11.0, SVG Export, v1.0 生成 DynTh_assoc_effect.svg 图层_1 -->
<svg xmlns="http://www.w3.org/2000/svg" xmlns:xlink="http://www.w3.org/1999/xlink" xmlns:ev="http://www.w3.org/2001/xml-events"
		xmlns:v="http://schemas.microsoft.com/visio/2003/SVGExtensions/" width="7.71875in" height="6.625in"
		viewBox="0 0 555.75 477" xml:space="preserve" color-interpolation-filters="sRGB" class="st18">
	<v:documentProperties v:langID="1033" v:metric="true"/>

	<style type="text/css">
	<![CDATA[
		.st1 {fill:none;stroke:none;stroke-linecap:butt;stroke-width:0.75}
		.st2 {fill:#000000;font-family:Calibri;font-size:1.00001em}
		.st3 {fill:#000000;font-family:宋体;font-size:1.00001em}
		.st4 {fill:#000000;font-family:宋体;font-size:0.833336em}
		.st5 {font-size:1em}
		.st6 {fill:none;stroke:none;stroke-width:1}
		.st7 {fill:none}
		.st8 {stroke:#000000;stroke-dasharray:6,3,0.75,3,0.75,3;stroke-linecap:butt;stroke-width:0.75}
		.st9 {stroke:#000000;stroke-dasharray:12,6;stroke-linecap:butt;stroke-width:0.75}
		.st10 {stroke:#2250a2;stroke-linecap:butt;stroke-width:0.75}
		.st11 {stroke:#000000;stroke-linecap:round;stroke-linejoin:round;stroke-width:0.75}
		.st12 {marker-end:url(#mrkr5-123);marker-start:url(#mrkr5-121);stroke:#000000;stroke-linecap:round;stroke-linejoin:round;stroke-width:0.75}
		.st13 {fill:#000000;fill-opacity:1;stroke:#000000;stroke-opacity:1;stroke-width:0.22935779816514}
		.st14 {marker-end:url(#mrkr5-131);marker-start:url(#mrkr5-121);stroke:#000000;stroke-linecap:round;stroke-linejoin:round;stroke-width:0.75}
		.st15 {stroke:#000000;stroke-linecap:round;stroke-linejoin:round;stroke-width:1.5}
		.st16 {stroke:#000000;stroke-dasharray:5.25,3.75;stroke-linecap:round;stroke-linejoin:round;stroke-width:0.75}
		.st17 {marker-end:url(#mrkr5-165);marker-start:url(#mrkr5-163);stroke:#000000;stroke-linecap:round;stroke-linejoin:round;stroke-width:0.75}
		.st18 {fill:none;fill-rule:evenodd;font-size:12px;overflow:visible;stroke-linecap:square;stroke-miterlimit:3}
	]]>
	</style>

	<defs id="Markers">
		<g id="lend5">
			<path d="M 2 1 L 0 0 L 1.98117 -0.993387 C 1.67173 -0.364515 1.67301 0.372641 1.98465 1.00043 " style="stroke:none"/>
		</g>
		<marker id="mrkr5-121" class="st13" v:arrowType="5" v:arrowSize="2" v:setback="0" refX="0" orient="auto"
				markerUnits="strokeWidth" overflow="visible">
			<use xlink:href="#lend5" transform="scale(4.36) "/>
		</marker>
		<marker id="mrkr5-123" class="st13" v:arrowType="5" v:arrowSize="2" v:setback="0" refX="-0" orient="auto"
				markerUnits="strokeWidth" overflow="visible">
			<use xlink:href="#lend5" transform="scale(-4.36,-4.36) "/>
		</marker>
		<marker id="mrkr5-131" class="st13" v:arrowType="5" v:arrowSize="2" v:setback="7.15" refX="-7.15" orient="auto"
				markerUnits="strokeWidth" overflow="visible">
			<use xlink:href="#lend5" transform="scale(-4.36,-4.36) "/>
		</marker>
		<marker id="mrkr5-163" class="st13" v:arrowType="5" v:arrowSize="2" v:setback="7.15" refX="7.15" orient="auto"
				markerUnits="strokeWidth" overflow="visible">
			<use xlink:href="#lend5" transform="scale(4.36) "/>
		</marker>
		<marker id="mrkr5-165" class="st13" v:arrowType="5" v:arrowSize="2" v:setback="7.63" refX="-7.63" orient="auto"
				markerUnits="strokeWidth" overflow="visible">
			<use xlink:href="#lend5" transform="scale(-4.36,-4.36) "/>
		</marker>
	</defs>
	<g v:mID="0" v:index="1" v:groupContext="foregroundPage">
		<title>图层_1</title>
		<v:pageProperties v:drawingScale="1" v:pageScale="1" v:drawingUnits="19" v:shadowOffsetX="9" v:shadowOffsetY="-9"/>
		<g id="shape2-1" v:mID="2" v:groupContext="shape" transform="translate(102.725,-62.4)">
			<title>工作表.18</title>
			<desc>R0</desc>
			<v:userDefs/>
			<v:textBlock v:margins="rect(0,0,0,0)"/>
			<v:textRect cx="12.025" cy="469.8" width="24.06" height="14.4"/>
			<rect x="0" y="462.6" width="24.05" height="14.4" class="st1"/>
			<text x="-0.01" y="473.4" class="st2" v:langID="1033"><v:paragraph/><v:tabList/>R0</text>		</g>
		<g id="shape3-4" v:mID="3" v:groupContext="shape" transform="translate(107.225,-197.55)">
			<title>工作表.19</title>
			<desc>thd0</desc>
			<v:userDefs/>
			<v:textBlock v:margins="rect(0,0,0,0)"/>
			<v:textRect cx="16.1376" cy="469.8" width="32.28" height="14.4"/>
			<rect x="0" y="462.6" width="32.2752" height="14.4" class="st1"/>
			<text x="-0" y="473.4" class="st3" v:langID="1033"><v:paragraph/><v:tabList/>thd0</text>		</g>
		<g id="shape4-7" v:mID="4" v:groupContext="shape" transform="translate(158.225,-197.55)">
			<title>工作表.20</title>
			<desc>thd1</desc>
			<v:userDefs/>
			<v:textBlock v:margins="rect(0,0,0,0)"/>
			<v:textRect cx="15.3876" cy="469.8" width="30.79" height="14.4"/>
			<rect x="0" y="462.6" width="30.7751" height="14.4" class="st1"/>
			<text x="-0.01" y="473.4" class="st3" v:langID="1033"><v:paragraph/><v:tabList/>thd1</text>		</g>
		<g id="shape5-10" v:mID="5" v:groupContext="shape" transform="translate(223.205,-197.55)">
			<title>工作表.21</title>
			<desc>thd2</desc>
			<v:userDefs/>
			<v:textBlock v:margins="rect(0,0,0,0)"/>
			<v:textRect cx="16.6473" cy="469.8" width="33.3" height="14.4"/>
			<rect x="0" y="462.6" width="33.2947" height="14.4" class="st1"/>
			<text x="-0" y="473.4" class="st3" v:langID="1033"><v:paragraph/><v:tabList/>thd2</text>		</g>
		<g id="shape6-13" v:mID="6" v:groupContext="shape" transform="translate(328.955,-197.55)">
			<title>工作表.22</title>
			<desc>thd3</desc>
			<v:userDefs/>
			<v:textBlock v:margins="rect(0,0,0,0)"/>
			<v:textRect cx="14.3975" cy="469.8" width="28.81" height="14.4"/>
			<rect x="0" y="462.6" width="28.7951" height="14.4" class="st1"/>
			<text x="-0.01" y="473.4" class="st3" v:langID="1033"><v:paragraph/><v:tabList/>thd3</text>		</g>
		<g id="shape7-16" v:mID="7" v:groupContext="shape" transform="translate(117,-357.3)">
			<title>工作表.24</title>
			<desc>thd0 : thd1 : thd2 : thd3 = a0 : a1 : a2 : a3</desc>
			<v:userDefs/>
			<v:textBlock v:margins="rect(0,0,0,0)"/>
			<v:textRect cx="114.013" cy="469.8" width="228.03" height="14.4"/>
			<rect x="0" y="462.6" width="228.025" height="14.4" class="st1"/>
			<text x="-0" y="473.4" class="st2" v:langID="1033"><v:paragraph/><v:tabList/>thd0 : thd1 : thd2 : thd3 = a0 : a1 : a2 : a3</text>		</g>
		<g id="shape8-19" v:mID="8" v:groupContext="shape" transform="translate(16.8499,-139.5)">
			<title>工作表.25</title>
			<desc>Shared Space</desc>
			<v:userDefs/>
			<v:textBlock v:margins="rect(0,0,0,0)"/>
			<v:textRect cx="22.5126" cy="460.725" width="45.03" height="32.55"/>
			<rect x="0" y="444.45" width="45.0251" height="32.55" class="st1"/>
			<text x="7.51" y="457.73" class="st4" v:langID="1033"><v:paragraph v:horizAlign="1"/><v:tabList/>Shared <tspan
						x="10.01" dy="1.2em" class="st5">Space</tspan></text>		</g>
		<g id="shape9-23" v:mID="9" v:groupContext="shape" transform="translate(209.225,-322.436)">
			<title>工作表.26</title>
			<desc>Headroom</desc>
			<v:userDefs/>
			<v:textBlock v:margins="rect(0,0,0,0)"/>
			<v:textRect cx="37.1376" cy="469.8" width="74.29" height="14.4"/>
			<rect x="0" y="462.6" width="74.275" height="14.4" class="st1"/>
			<text x="2.14" y="472.8" class="st4" v:langID="1033"><v:paragraph v:horizAlign="1"/><v:tabList/>Headroom Space</text>		</g>
		<g id="shape10-26" v:mID="10" v:groupContext="shape" transform="translate(160.45,-62.4)">
			<title>工作表.27</title>
			<desc>R1</desc>
			<v:userDefs/>
			<v:textBlock v:margins="rect(0,0,0,0)"/>
			<v:textRect cx="12.025" cy="469.8" width="24.06" height="14.4"/>
			<rect x="0" y="462.6" width="24.05" height="14.4" class="st1"/>
			<text x="-0" y="473.4" class="st2" v:langID="1033"><v:paragraph/><v:tabList/>R1</text>		</g>
		<g id="shape11-29" v:mID="11" v:groupContext="shape" transform="translate(260.575,-62.4)">
			<title>工作表.28</title>
			<desc>R2</desc>
			<v:userDefs/>
			<v:textBlock v:margins="rect(0,0,0,0)"/>
			<v:textRect cx="12.025" cy="469.8" width="24.06" height="14.4"/>
			<rect x="0" y="462.6" width="24.05" height="14.4" class="st1"/>
			<text x="-0" y="473.4" class="st2" v:langID="1033"><v:paragraph/><v:tabList/>R2</text>		</g>
		<g id="shape12-32" v:mID="12" v:groupContext="shape" transform="translate(353.95,-62.4)">
			<title>工作表.29</title>
			<desc>R3</desc>
			<v:userDefs/>
			<v:textBlock v:margins="rect(0,0,0,0)"/>
			<v:textRect cx="12.025" cy="469.8" width="24.06" height="14.4"/>
			<rect x="0" y="462.6" width="24.05" height="14.4" class="st1"/>
			<text x="-0" y="473.4" class="st2" v:langID="1033"><v:paragraph/><v:tabList/>R3</text>		</g>
		<g id="group13-35" transform="translate(85.5,-317.25)" v:mID="13" v:groupContext="group">
			<title>工作表.30</title>
			<g id="shape14-36" v:mID="14" v:groupContext="shape">
				<title>工作表.14</title>
				<path d="M0 477 L312.75 477 L0 477 Z" class="st6"/>
			</g>
			<g id="shape15-38" v:mID="15" v:groupContext="shape">
				<title>工作表.15</title>
				<path d="M0 477 L312.75 477 L0 477 Z" class="st7"/>
				<path d="M0 477 L312.75 477" class="st8"/>
			</g>
		</g>
		<g id="group16-41" transform="translate(629.25,182.25) rotate(90)" v:mID="16" v:groupContext="group">
			<title>工作表.35</title>
			<g id="shape17-42" v:mID="17" v:groupContext="shape">
				<title>工作表.17</title>
				<path d="M0 477 L196.5 477 L0 477 Z" class="st6"/>
			</g>
			<g id="shape18-44" v:mID="18" v:groupContext="shape">
				<title>工作表.18</title>
				<path d="M0 477 L196.5 477 L0 477 Z" class="st7"/>
				<path d="M0 477 L196.5 477" class="st9"/>
			</g>
		</g>
		<g id="group19-47" transform="translate(667.5,182.25) rotate(90)" v:mID="19" v:groupContext="group">
			<title>工作表.36</title>
			<g id="shape20-48" v:mID="20" v:groupContext="shape">
				<title>工作表.20</title>
				<path d="M0 477 L196.5 477 L0 477 Z" class="st6"/>
			</g>
			<g id="shape21-50" v:mID="21" v:groupContext="shape">
				<title>工作表.21</title>
				<path d="M0 477 L196.5 477 L0 477 Z" class="st7"/>
				<path d="M0 477 L196.5 477" class="st9"/>
			</g>
		</g>
		<g id="group22-53" transform="translate(760.5,182.25) rotate(90)" v:mID="22" v:groupContext="group">
			<title>工作表.37</title>
			<g id="shape23-54" v:mID="23" v:groupContext="shape">
				<title>工作表.23</title>
				<path d="M0 477 L196.5 477 L0 477 Z" class="st6"/>
			</g>
			<g id="shape24-56" v:mID="24" v:groupContext="shape">
				<title>工作表.24</title>
				<path d="M0 477 L196.5 477 L0 477 Z" class="st7"/>
				<path d="M0 477 L196.5 477" class="st9"/>
			</g>
		</g>
		<g id="group25-59" transform="translate(54.75,-98.25)" v:mID="25" v:groupContext="group">
			<title>工作表.67</title>
			<g id="shape26-60" v:mID="26" v:groupContext="shape">
				<title>工作表.26</title>
				<path d="M0 477 L25.5 477 L0 477 Z" class="st6"/>
			</g>
			<g id="shape27-62" v:mID="27" v:groupContext="shape">
				<title>工作表.27</title>
				<path d="M0 477 L25.5 477 L0 477 Z" class="st7"/>
				<path d="M0 477 L25.5 477" class="st10"/>
			</g>
		</g>
		<g id="group28-65" transform="translate(85.3774,-98.9196) rotate(-0.0147214)" v:mID="28" v:groupContext="group">
			<title>工作表.68</title>
			<g id="shape29-66" v:mID="29" v:groupContext="shape">
				<title>工作表.29</title>
				<path d="M0 477 L312.75 477 L0 477 Z" class="st6"/>
			</g>
			<g id="shape30-68" v:mID="30" v:groupContext="shape">
				<title>工作表.30</title>
				<path d="M0 477 L312.75 477 L0 477 Z" class="st7"/>
				<path d="M0 477 L312.75 477" class="st11"/>
			</g>
		</g>
		<g id="group31-71" transform="translate(606.187,378.069) rotate(90)" v:mID="31" v:groupContext="group">
			<title>工作表.2</title>
			<g id="shape32-72" v:mID="32" v:groupContext="shape">
				<title>工作表.32</title>
				<path d="M0 477 L53.18 477 L0 477 Z" class="st6"/>
			</g>
			<g id="shape33-74" v:mID="33" v:groupContext="shape">
				<title>工作表.33</title>
				<path d="M0 477 L53.18 477 L0 477 Z" class="st7"/>
				<path d="M0 477 L53.18 477" class="st11"/>
			</g>
		</g>
		<g id="group34-77" transform="translate(686.438,378.069) rotate(90)" v:mID="34" v:groupContext="group">
			<title>工作表.3</title>
			<g id="shape35-78" v:mID="35" v:groupContext="shape">
				<title>工作表.35</title>
				<path d="M0 477 L53.18 477 L0 477 Z" class="st6"/>
			</g>
			<g id="shape36-80" v:mID="36" v:groupContext="shape">
				<title>工作表.36</title>
				<path d="M0 477 L53.18 477 L0 477 Z" class="st7"/>
				<path d="M0 477 L53.18 477" class="st11"/>
			</g>
		</g>
		<g id="group37-83" transform="translate(801.188,378.069) rotate(90)" v:mID="37" v:groupContext="group">
			<title>工作表.4</title>
			<g id="shape38-84" v:mID="38" v:groupContext="shape">
				<title>工作表.38</title>
				<path d="M0 477 L53.18 477 L0 477 Z" class="st6"/>
			</g>
			<g id="shape39-86" v:mID="39" v:groupContext="shape">
				<title>工作表.39</title>
				<path d="M0 477 L53.18 477 L0 477 Z" class="st7"/>
				<path d="M0 477 L53.18 477" class="st11"/>
			</g>
		</g>
		<g id="group43-89" transform="translate(54.375,-45)" v:mID="43" v:groupContext="group">
			<title>工作表.12</title>
			<g id="shape44-90" v:mID="44" v:groupContext="shape">
				<title>工作表.44</title>
				<path d="M0 477 L25.5 477 L0 477 Z" class="st6"/>
			</g>
			<g id="shape45-92" v:mID="45" v:groupContext="shape">
				<title>工作表.45</title>
				<path d="M0 477 L25.5 477 L0 477 Z" class="st7"/>
				<path d="M0 477 L25.5 477" class="st10"/>
			</g>
		</g>
		<g id="shape46-95" v:mID="46" v:groupContext="shape" transform="translate(9,-58.5)">
			<title>工作表.13</title>
			<desc>Resevered Space</desc>
			<v:userDefs/>
			<v:textBlock v:margins="rect(0,0,0,0)"/>
			<v:textRect cx="29.25" cy="460.725" width="58.5" height="32.55"/>
			<rect x="0" y="444.45" width="58.5" height="32.55" class="st1"/>
			<text x="6.75" y="457.73" class="st4" v:langID="1033"><v:paragraph v:horizAlign="1"/><v:tabList/>Resevered <tspan
						x="16.75" dy="1.2em" class="st5">Space</tspan></text>		</g>
		<g id="group47-99" transform="translate(52.875,-294.75)" v:mID="47" v:groupContext="group">
			<title>工作表.14</title>
			<g id="shape48-100" v:mID="48" v:groupContext="shape">
				<title>工作表.48</title>
				<path d="M0 477 L25.5 477 L0 477 Z" class="st6"/>
			</g>
			<g id="shape49-102" v:mID="49" v:groupContext="shape">
				<title>工作表.49</title>
				<path d="M0 477 L25.5 477 L0 477 Z" class="st7"/>
				<path d="M0 477 L25.5 477" class="st10"/>
			</g>
		</g>
		<g id="group50-105" transform="translate(54,-344.25)" v:mID="50" v:groupContext="group">
			<title>工作表.15</title>
			<g id="shape51-106" v:mID="51" v:groupContext="shape">
				<title>工作表.51</title>
				<path d="M0 477 L25.5 477 L0 477 Z" class="st6"/>
			</g>
			<g id="shape52-108" v:mID="52" v:groupContext="shape">
				<title>工作表.52</title>
				<path d="M0 477 L25.5 477 L0 477 Z" class="st7"/>
				<path d="M0 477 L25.5 477" class="st10"/>
			</g>
		</g>
		<g id="shape53-111" v:mID="53" v:groupContext="shape" transform="translate(11.2249,-310.5)">
			<title>工作表.39</title>
			<desc>Headroom Space</desc>
			<v:userDefs/>
			<v:textBlock v:margins="rect(0,0,0,0)"/>
			<v:textRect cx="22.5126" cy="460.725" width="45.03" height="32.55"/>
			<rect x="0" y="444.45" width="45.0251" height="32.55" class="st1"/>
			<text x="2.51" y="457.73" class="st4" v:langID="1033"><v:paragraph v:horizAlign="1"/><v:tabList/>Headroom <tspan
						x="10.01" dy="1.2em" class="st5">Space</tspan></text>		</g>
		<g id="shape54-115" v:mID="54" v:groupContext="shape" transform="translate(543.214,378.747) rotate(90)">
			<title>工作表.8</title>
			<path d="M0 477 L5.36 477 L5.72 477 L47.53 477 L47.89 477 L53.25 477" class="st12"/>
		</g>
		<g id="shape60-124" v:mID="60" v:groupContext="shape" transform="translate(542.813,182.247) rotate(90)">
			<title>工作表.17</title>
			<path d="M0 477 L5.36 477 L5.72 477 L190.78 477 L190.78 477 L191.14 477" class="st14"/>
		</g>
		<g id="shape61-132" v:mID="61" v:groupContext="shape" transform="translate(-411.188,182.252) rotate(-90)">
			<title>工作表.61</title>
			<path d="M0 477 L5.36 477 L5.72 477 L43.78 477 L43.78 477 L44.14 477" class="st14"/>
		</g>
		<g id="shape62-139" v:mID="62" v:groupContext="shape" transform="translate(85.5,-294.75)">
			<title>工作表.62</title>
			<path d="M0 477 L312.75 477 L0 477 Z" class="st7"/>
			<path d="M0 477 L312.75 477" class="st11"/>
		</g>
		<g id="shape64-142" v:mID="64" v:groupContext="shape" transform="translate(211.5,-298.35)">
			<title>工作表.64</title>
			<desc>Headroom</desc>
			<v:userDefs/>
			<v:textBlock v:margins="rect(0,0,0,0)"/>
			<v:textRect cx="37.6072" cy="469.8" width="75.23" height="14.4"/>
			<rect x="0" y="462.6" width="75.2143" height="14.4" class="st1"/>
			<text x="2.61" y="472.8" class="st4" v:langID="1033"><v:paragraph v:horizAlign="1"/><v:tabList/>CoS XOFF Space</text>		</g>
		<g id="shape65-145" v:mID="65" v:groupContext="shape" transform="translate(-391.5,432) rotate(-90)">
			<title>工作表.65</title>
			<path d="M0 477 L364.62 477" class="st15"/>
		</g>
		<g id="shape66-148" v:mID="66" v:groupContext="shape" transform="translate(-78.75,431.695) rotate(-90)">
			<title>工作表.66</title>
			<path d="M0 477 L366.45 477" class="st15"/>
		</g>
		<g id="shape1-151" v:mID="1" v:groupContext="shape" transform="translate(398.25,909) rotate(180)">
			<title>工作表.1</title>
			<path d="M0 477 L312.75 477" class="st15"/>
		</g>
		<g id="shape55-154" v:mID="55" v:groupContext="shape" transform="translate(85.5,-344.25)">
			<title>工作表.55</title>
			<path d="M0 477 L312.75 477" class="st16"/>
		</g>
		<g id="shape56-157" v:mID="56" v:groupContext="shape" transform="translate(976.5,378) rotate(90)">
			<title>工作表.56</title>
			<path d="M5.36 477 L5.72 477 L48.28 477" class="st17"/>
		</g>
		<g id="shape42-166" v:mID="42" v:groupContext="shape" transform="translate(504,-55.725)">
			<title>工作表.42</title>
			<desc>Resevered Space</desc>
			<v:userDefs/>
			<v:textBlock v:margins="rect(0,0,0,0)"/>
			<v:textRect cx="18" cy="460.725" width="36" height="32.55"/>
			<rect x="0" y="444.45" width="36" height="32.55" class="st1"/>
			<text x="0.5" y="463.72" class="st4" v:langID="2052"><v:paragraph v:horizAlign="1"/><v:tabList/>Sum(Ri)</text>		</g>
		<g id="shape41-169" v:mID="41" v:groupContext="shape" transform="translate(972,128.25) rotate(90)">
			<title>工作表.41</title>
			<path d="M5.36 477 L5.72 477 L48.28 477" class="st17"/>
		</g>
		<g id="shape57-176" v:mID="57" v:groupContext="shape" transform="translate(495,-305.475)">
			<title>工作表.57</title>
			<desc>Resevered Space</desc>
			<v:userDefs/>
			<v:textBlock v:margins="rect(0,0,0,0)"/>
			<v:textRect cx="12.375" cy="460.725" width="24.75" height="32.55"/>
			<rect x="0" y="444.45" width="24.75" height="32.55" class="st1"/>
			<text x="4.87" y="463.72" class="st4" v:langID="2052"><v:paragraph v:horizAlign="1"/><v:tabList/>GAP</text>		</g>
		<g id="shape63-179" v:mID="63" v:groupContext="shape" transform="translate(407.25,-36)">
			<title>工作表.63</title>
			<desc>Resevered Space</desc>
			<v:userDefs/>
			<v:textBlock v:margins="rect(0,0,0,0)"/>
			<v:textRect cx="7.875" cy="460.725" width="15.75" height="32.55"/>
			<rect x="0" y="444.45" width="15.75" height="32.55" class="st1"/>
			<text x="0" y="463.72" class="st4" v:langID="2052"><v:paragraph/><v:tabList/>0</text>		</g>
		<g id="shape67-182" v:mID="67" v:groupContext="shape" transform="translate(406.125,-325.725)">
			<title>工作表.67</title>
			<desc>Resevered Space</desc>
			<v:userDefs/>
			<v:textBlock v:margins="rect(0,0,0,0)"/>
			<v:textRect cx="43.3125" cy="460.725" width="86.63" height="32.55"/>
			<rect x="0" y="444.45" width="86.625" height="32.55" class="st1"/>
			<text x="0" y="463.72" class="st4" v:langID="2052"><v:paragraph/><v:tabList/>M=max(M0,used+R)</text>		</g>
		<g id="shape68-185" v:mID="68" v:groupContext="shape" transform="translate(405,-81)">
			<title>工作表.68</title>
			<desc>Resevered Space</desc>
			<v:userDefs/>
			<v:textBlock v:margins="rect(0,0,0,0)"/>
			<v:textRect cx="16.875" cy="460.725" width="33.75" height="32.55"/>
			<rect x="0" y="444.45" width="33.75" height="32.55" class="st1"/>
			<text x="0" y="463.72" class="st4" v:langID="2052"><v:paragraph/><v:tabList/>Sum(R)</text>		</g>
		<g id="shape40-188" v:mID="40" v:groupContext="shape" transform="translate(405,-279)">
			<title>工作表.40</title>
			<desc>Resevered Space</desc>
			<v:userDefs/>
			<v:textBlock v:margins="rect(0,0,0,0)"/>
			<v:textRect cx="25.875" cy="460.725" width="51.75" height="32.55"/>
			<rect x="0" y="444.45" width="51.75" height="32.55" class="st1"/>
			<text x="0" y="463.72" class="st4" v:langID="2052"><v:paragraph/><v:tabList/>S+Sum(R)</text>		</g>
	</g>
</svg>
