<?xml version="1.0" encoding="utf-8"?>
<svg version="1.1" id="statement" 
     xmlns="http://www.w3.org/2000/svg" 
     xmlns:xlink="http://www.w3.org/1999/xlink" 
	 width="205" height="405">

<defs>
    
    <marker id="arrow" 
     markerWidth="4" markerHeight="4" 
     refX="0" refY="0" orient="auto-start-reverse" 
     markerUnits="strokeWidth" 
     viewBox="-2,-2,5,5"> 
        <path d="M0,0 L-2,-2 L3,0 L-2,2 z" fill="#000" /> 
    </marker>
    
    <marker id="input_common" 
     markerWidth="4" markerHeight="4" 
     refX="0" refY="0" 
     markerUnits="strokeWidth" 
     viewBox="0,-2,3,5"> 
        <path d="M0,0 L0,-2 L3,0 L0,2 z" fill="#000" /> 
    </marker>
        
    <marker id="input_list" 
     markerWidth="4" markerHeight="4" 
     refX="0" refY="0" 
     markerUnits="strokeWidth" 
     viewBox="0,0,6,5"> 
        <line x1="0" y1="-2" x2="0" y2="2" stroke="black" />
        <path d="M3,0 L3,-2 L6,0 L0,2 z" fill="#000" /> 
    </marker>
       
    <marker id="input_map" 
     markerWidth="4" markerHeight="4" 
     refX="0" refY="0" 
     markerUnits="strokeWidth" 
     viewBox="0,0,9,5"> 
        <line x1="0" y1="-2" x2="0" y2="2" stroke="black" />
        <line x1="3" y1="-2" x2="3" y2="2" stroke="black" />
        <path d="M6,0 L6,-2 L9,0 L6,2 z" fill="#000" /> 
    </marker>
    
    <g id="start">
        <ellipse cx="30" cy="10" rx="30" ry="10" style="fill:white; stroke:rgb(0,0,0);stroke-width:0.05rem"/>
        <text x="5" y="15">
            start
        </text>
    </g>
    
    <g id="process">
        <rect x="0" y="0" width="60" height="20" fill="rgb(255,255,255)" stroke="black" />
        <text x="3" y="15">process</text>
    </g>
    
    <g id="condition">
        <path d="M30,0 L60,10 L30,20 L0,10 z" fill="#FFFFFF" stroke="black" /> 
        <text x="20" y="15">if</text>
    </g>
    
    <g id="return">
        <ellipse cx="30" cy="10" rx="30" ry="10" style="fill:white; stroke:rgb(0,0,0);stroke-width:0.05rem"/>
        <ellipse cx="30" cy="10" rx="28" ry="9" style="fill:white; stroke:rgb(0,0,0);stroke-width:0.05rem"/>
        <text x="10" y="15">return</text>
    </g>
  
    <g id="loop_st">
        <path d="M10,0 L50,0 L60,5 L60,20 L0,20 L0,5 z" fill="#FFFFFF" stroke="black" /> 
        <text x="10" y="15">loop</text>
    </g>
    <g id="loop_ed">
        <path d="M0,0 L60,0 L60,15 L50,20 L10,20 L0,15 z" fill="#FFFFFF" stroke="black" /> 
        <text x="10" y="15">loop</text>
    </g>
    
    <g id="exception">
        <path d="M0,0 L50,0 L60,10 L50,20 L0,20 z" fill="#FFFFFF" stroke="black" /> 
        <text x="3" y="15">excep</text>
    </g>
    
</defs>

<rect x="3" y="3" width="200" height="400" stroke="black" fill="white" stroke-width="0.1rem" />
<text x="10" y="20">
    <title>计算机语句。程序员通过这些特殊定义的语句来控制计算机程序的执行跳转过程。</title>
    statement
</text>

<!-- start -->
<use x="50" y="30" xlink:href="#start" />
<line x1="80" y1="50" x2="80" y2="77" stroke="black" stroke-width="0.1rem" marker-end="url(#arrow)" />

 
<!-- process -->
<use x="50" y="80" xlink:href="#process" />
<line x1="80" y1="100" x2="80" y2="127" stroke="black" stroke-width="0.1rem" marker-end="url(#arrow)" />

<!-- if -->
<use x="50" y="130" xlink:href="#condition" />
<line x1="110" y1="140" x2="137" y2="140" stroke="black" stroke-width="0.1rem" marker-end="url(#arrow)" />
<line x1="80" y1="150" x2="80" y2="177" stroke="black" stroke-width="0.1rem" marker-end="url(#arrow)" />


<!-- return -->
<use x="140" y="130" xlink:href="#return" />

<!-- loop -->
<use x="50" y="180" xlink:href="#loop_st" />
<line x1="80" y1="200" x2="80" y2="227" stroke="black" stroke-width="0.1rem" marker-end="url(#arrow)" />

<!-- process -->
<use x="50" y="230" xlink:href="#process" />
<line x1="80" y1="250" x2="80" y2="277" stroke="black" stroke-width="0.1rem" marker-end="url(#arrow)" />
<line x1="110" y1="240" x2="137" y2="240" stroke="black" stroke-width="0.1rem" marker-end="url(#arrow)" />


<!-- exception -->
<use x="140" y="230" xlink:href="#exception" />

<!-- loop -->
<use x="50" y="280" xlink:href="#loop_ed" />
<path d="M50,290 L10,290 L10,190 L47,190" stroke="black" stroke-width="0.1rem" fill="none" marker-end="url(#arrow)" />

</svg>

